<svg width="20" height="27" viewBox="0 0 20 27" fill="none" xmlns="http://www.w3.org/2000/svg">
<path d="M6.78394 0.466064C6.28035 0.466064 5.86987 0.876546 5.86987 1.38013V4.49471C2.92456 4.82902 0.893311 5.5061 0.893311 6.28898V7.77856C0.893311 8.08325 1.21916 8.36255 1.77352 8.62492C3.22502 9.30623 6.36499 9.77596 10.0001 9.77596C13.6394 9.77596 16.7709 9.30623 18.2266 8.62492C18.7768 8.36255 19.1069 8.08325 19.1069 7.77856V6.28898C19.1069 5.48071 16.9106 4.77824 13.7917 4.46086V1.38013C13.7917 0.876546 13.3813 0.466064 12.8777 0.466064H6.78394ZM7.698 2.12492H11.9975C12.0906 2.12492 12.1329 2.56079 12.1329 3.10669V4.32544C11.4431 4.29158 10.7449 4.25773 10.0001 4.25773C9.2299 4.25773 8.47664 4.28735 7.76571 4.32544L7.52873 4.35929V3.10669C7.52873 2.56079 7.60913 2.12492 7.698 2.12492ZM2.17977 10.8254C2.08244 10.927 2.03166 11.0201 2.0105 11.1301V11.1978C2.0105 11.2148 2.00627 11.2528 2.0105 11.2655L2.61987 23.9947C2.67489 24.9934 3.83016 26.4999 10.0001 26.4999C16.17 26.4999 17.3253 24.9934 17.3803 23.9947L17.9897 11.2655C17.9897 11.2486 17.9897 11.2148 17.9897 11.1978V11.1301C17.9727 11.0201 17.9177 10.927 17.8204 10.8254C17.0248 11.6337 13.8214 11.7395 10.0001 11.7395C6.17879 11.7395 2.97957 11.6337 2.17977 10.8254Z" fill="#FFB3B3"/>
</svg>
