<svg width="30" height="30" viewBox="0 0 30 30" fill="none" xmlns="http://www.w3.org/2000/svg">
<g clip-path="url(#clip0_934:864)">
<path d="M15.0019 29.4774C22.9965 29.4774 29.4774 22.9965 29.4774 15.0019C29.4774 7.00727 22.9965 0.526367 15.0019 0.526367C7.00727 0.526367 0.526367 7.00727 0.526367 15.0019C0.526367 22.9965 7.00727 29.4774 15.0019 29.4774Z" fill="#8E83C7"/>
<path d="M15.0014 30.0001C12.0334 30.0008 9.13194 29.1211 6.66407 27.4723C4.19621 25.8236 2.27284 23.4798 1.13738 20.7376C0.0019068 17.9955 -0.294663 14.9781 0.28521 12.0673C0.865083 9.15656 2.29538 6.48321 4.39503 4.38553C6.49468 2.28784 9.16932 0.860114 12.0806 0.282966C14.9919 -0.294182 18.009 0.0051912 20.7501 1.14323C23.4912 2.28126 25.8332 4.20681 27.4796 6.67622C29.1261 9.14563 30.0031 12.0479 29.9996 15.0159C29.9913 18.9898 28.4079 22.7984 25.5966 25.607C22.7853 28.4157 18.9753 29.9955 15.0014 30.0001ZM15.0014 1.0526C12.2429 1.05191 9.54618 1.86907 7.25208 3.40079C4.95798 4.93251 3.16953 7.11001 2.1128 9.65803C1.05606 12.206 0.778489 15.0102 1.31519 17.7159C1.85189 20.4216 3.17876 22.9075 5.12805 24.8593C7.07735 26.811 9.5616 28.141 12.2667 28.6811C14.9717 29.2212 17.7761 28.9472 20.3254 27.8936C22.8748 26.8401 25.0546 25.0544 26.5892 22.7622C28.1238 20.47 28.9444 17.7743 28.9471 15.0159C28.9462 11.3159 27.4771 7.7675 24.8625 5.14958C22.2479 2.53166 18.7014 1.05818 15.0014 1.0526Z" fill="black"/>
<path d="M16.8367 4.45911V5.98877H12.9775V4.45911C12.9829 4.18166 13.0955 3.91707 13.2917 3.72084C13.4879 3.52462 13.7526 3.41199 14.03 3.4066H15.7421C15.8838 3.40093 16.0253 3.42397 16.1578 3.47431C16.2904 3.52466 16.4115 3.6013 16.5137 3.6996C16.616 3.79791 16.6973 3.91585 16.7528 4.04637C16.8083 4.17689 16.8368 4.31728 16.8367 4.45911Z" fill="#CCBEE3"/>
<path d="M17.0118 6.16417H12.8018V4.45909C12.8018 4.12877 12.933 3.81199 13.1666 3.57842C13.4001 3.34485 13.7169 3.21362 14.0472 3.21362H15.7593C16.089 3.21455 16.4048 3.34619 16.6377 3.57966C16.8705 3.81313 17.0013 4.12938 17.0013 4.45909L17.0118 6.16417ZM13.1526 5.81333H16.661V4.45909C16.661 4.22242 16.5672 3.99541 16.4001 3.82774C16.2331 3.66006 16.0065 3.56539 15.7698 3.56446H14.0577C13.8204 3.56446 13.5929 3.65872 13.4251 3.82649C13.2574 3.99427 13.1631 4.22182 13.1631 4.45909L13.1526 5.81333Z" fill="black"/>
<path d="M18.8927 10.8057V23.899C18.8927 24.4684 18.6665 25.0145 18.2638 25.4172C17.8612 25.8199 17.3151 26.0461 16.7456 26.0461H12.9987C12.4293 26.0461 11.8831 25.8199 11.4804 25.4172C11.0778 25.0145 10.8516 24.4684 10.8516 23.899V10.69C10.8517 10.2497 10.9478 9.81479 11.1332 9.41548C11.3186 9.01618 11.5889 8.66211 11.9251 8.37796L13.4828 7.06584V5.98877H16.1457V7.06584H16.1702L17.9665 8.61302C18.261 8.89697 18.495 9.23767 18.6542 9.61454C18.8133 9.99141 18.8945 10.3966 18.8927 10.8057Z" fill="#E6DAFC"/>
<path d="M16.7453 26.2109H12.9984C12.3827 26.2099 11.7924 25.965 11.3571 25.5296C10.9217 25.0942 10.6767 24.504 10.6758 23.8883V10.6899C10.6741 10.2223 10.775 9.76005 10.9714 9.33572C11.1678 8.91139 11.4549 8.53531 11.8125 8.23403L13.3071 6.97454V5.80273H16.3208V6.95349L18.075 8.4691C18.3857 8.76961 18.6329 9.12934 18.8022 9.52705C18.9716 9.92476 19.0595 10.3524 19.0608 10.7846V23.8778C19.0626 24.4941 18.8199 25.086 18.3857 25.5234C17.9516 25.9608 17.3616 26.2081 16.7453 26.2109ZM13.6579 6.16411V7.14644L12.037 8.5112C11.7203 8.77905 11.4659 9.11274 11.2914 9.48902C11.1169 9.8653 11.0265 10.2751 11.0266 10.6899V23.8883C11.0266 24.4113 11.2343 24.9128 11.6041 25.2825C11.9739 25.6523 12.4755 25.86 12.9984 25.86H16.7453C17.2682 25.86 17.7697 25.6523 18.1395 25.2825C18.5092 24.9128 18.7169 24.4113 18.7169 23.8883V10.8057C18.7158 10.422 18.6379 10.0425 18.4879 9.68947C18.3379 9.3364 18.1187 9.0169 17.8434 8.74977L16.1067 7.25169H15.9944L15.97 7.07627V6.17462L13.6579 6.16411Z" fill="black"/>
<path d="M15.0188 16.6437C15.0188 20.5661 13.0507 22.8711 10.851 22.8711C8.65121 22.8711 6.95312 20.5661 6.95312 16.6437C6.95312 12.7214 10.851 8.66919 10.851 8.66919C10.851 8.66919 15.0188 12.7214 15.0188 16.6437Z" fill="#CCBEE3"/>
<path d="M10.8516 23.0465C8.41676 23.0465 6.77832 20.4749 6.77832 16.6438C6.77832 12.6969 10.5638 8.71486 10.7252 8.54646L10.8481 8.42017L10.9744 8.54295C11.1463 8.71135 15.1844 12.6934 15.1844 16.6438C15.195 20.8468 13.0092 23.0465 10.8516 23.0465ZM10.8516 8.92186C10.1955 9.64809 7.12564 13.2266 7.12564 16.6403C7.12564 20.2609 8.62375 22.6922 10.8481 22.6922C12.8338 22.6922 14.8406 20.6152 14.8406 16.6403C14.8441 13.2196 11.5497 9.63756 10.8551 8.92186H10.8516Z" fill="black"/>
<path d="M10.8519 16.0963C10.8062 16.0959 10.7624 16.0783 10.729 16.0472L8.85562 14.2053C8.83918 14.189 8.82606 14.1696 8.81716 14.1482C8.80825 14.1268 8.80371 14.1039 8.80371 14.0807C8.80371 14.0576 8.80825 14.0346 8.81716 14.0133C8.82606 13.9919 8.83918 13.9725 8.85562 13.9562C8.87192 13.9397 8.89129 13.9267 8.91266 13.9178C8.93404 13.9089 8.957 13.9043 8.98016 13.9043C9.00331 13.9043 9.02619 13.9089 9.04757 13.9178C9.06894 13.9267 9.08839 13.9397 9.1047 13.9562L10.9782 15.7981C10.9945 15.8141 11.0074 15.8332 11.0163 15.8543C11.0252 15.8754 11.0298 15.898 11.0298 15.9209C11.0298 15.9437 11.0252 15.9664 11.0163 15.9875C11.0074 16.0086 10.9945 16.0277 10.9782 16.0437C10.9447 16.0772 10.8993 16.0962 10.8519 16.0963Z" fill="black"/>
<path d="M10.8514 19.8715C10.8287 19.8722 10.806 19.8682 10.7849 19.8598C10.7637 19.8513 10.7445 19.8386 10.7286 19.8224C10.7121 19.8061 10.6991 19.7867 10.6902 19.7653C10.6813 19.7439 10.6768 19.721 10.6768 19.6978C10.6768 19.6746 10.6813 19.6517 10.6902 19.6304C10.6991 19.609 10.7121 19.5896 10.7286 19.5733L13.0231 17.2402C13.0387 17.2218 13.0579 17.2067 13.0796 17.196C13.1013 17.1853 13.125 17.1793 13.1491 17.1782C13.1733 17.1771 13.1973 17.181 13.2199 17.1896C13.2425 17.1983 13.2631 17.2115 13.2803 17.2285C13.2975 17.2455 13.311 17.2658 13.3199 17.2882C13.3289 17.3107 13.3332 17.3348 13.3324 17.3589C13.3317 17.3831 13.3259 17.4068 13.3156 17.4286C13.3052 17.4505 13.2904 17.4699 13.2721 17.4858L10.9813 19.8189C10.9643 19.8359 10.9439 19.8494 10.9216 19.8584C10.8993 19.8674 10.8755 19.8719 10.8514 19.8715Z" fill="black"/>
<path d="M10.8512 23.2816C10.8047 23.2816 10.7601 23.2631 10.7272 23.2302C10.6943 23.1973 10.6758 23.1527 10.6758 23.1062V10.6901C10.6758 10.6435 10.6943 10.5989 10.7272 10.566C10.7601 10.5331 10.8047 10.5146 10.8512 10.5146C10.8977 10.5146 10.9423 10.5331 10.9752 10.566C11.0081 10.5989 11.0266 10.6435 11.0266 10.6901V23.1062C11.0266 23.1527 11.0081 23.1973 10.9752 23.2302C10.9423 23.2631 10.8977 23.2816 10.8512 23.2816Z" fill="black"/>
</g>
<defs>
<clipPath id="clip0_934:864">
<rect width="30" height="30" fill="white"/>
</clipPath>
</defs>
</svg>
