<svg width="31" height="30" viewBox="0 0 31 30" fill="none" xmlns="http://www.w3.org/2000/svg">
<g clip-path="url(#clip0_934:973)">
<path d="M15.0848 29.4707C23.1236 29.4707 29.6403 22.9919 29.6403 14.9999C29.6403 7.00787 23.1236 0.529053 15.0848 0.529053C7.04602 0.529053 0.529297 7.00787 0.529297 14.9999C0.529297 22.9919 7.04602 29.4707 15.0848 29.4707Z" fill="#8E83C7"/>
<path d="M15.0853 29.9858C12.1222 29.9691 9.23048 29.0752 6.77491 27.4168C4.31934 25.7585 2.40995 23.41 1.2876 20.6677C0.165261 17.9253 -0.119766 14.9121 0.468538 12.0079C1.05684 9.10383 2.49211 6.43901 4.59323 4.34968C6.69435 2.26035 9.36724 0.840127 12.2746 0.268178C15.182 -0.303772 18.1936 -0.00181235 20.9296 1.13595C23.6655 2.27371 26.0032 4.19628 27.6477 6.66115C29.2922 9.12602 30.1699 12.0227 30.1699 14.9858C30.155 18.9742 28.5582 22.7936 25.7301 25.6059C22.902 28.4181 19.0736 29.9934 15.0853 29.9858ZM15.0853 1.05828C12.3315 1.07501 9.64443 1.90686 7.3629 3.44892C5.08137 4.99099 3.30764 7.17417 2.2654 9.72311C1.22316 12.272 0.959072 15.0726 1.50654 17.7714C2.054 20.4702 3.38848 22.9464 5.34159 24.8877C7.2947 26.8291 9.77898 28.1485 12.4811 28.6796C15.1831 29.2107 17.9819 28.9297 20.5245 27.8721C23.0671 26.8144 25.2395 25.0275 26.7678 22.7367C28.296 20.4458 29.1116 17.7537 29.1116 15C29.0957 11.2926 27.6102 7.74289 24.9807 5.12932C22.3513 2.51576 18.7927 1.05171 15.0853 1.05828Z" fill="black"/>
<path d="M17.1171 4.37085H13.0531C12.4219 4.37085 11.9102 4.88258 11.9102 5.51384V24.3944C11.9102 25.0256 12.4219 25.5374 13.0531 25.5374H17.1171C17.7484 25.5374 18.2601 25.0256 18.2601 24.3944V5.51384C18.2601 4.88258 17.7484 4.37085 17.1171 4.37085Z" fill="#E6DAFC"/>
<path d="M17.1132 25.7136H13.0528C12.7031 25.7127 12.3681 25.5734 12.1209 25.3262C11.8737 25.0789 11.7343 24.7439 11.7334 24.3942V5.51371C11.7343 5.16408 11.8737 4.82903 12.1209 4.5818C12.3681 4.33457 12.7031 4.19527 13.0528 4.19434H17.1132C17.4635 4.19433 17.7994 4.33322 18.0474 4.58055C18.2954 4.82788 18.4352 5.16347 18.4361 5.51371V24.3942C18.4352 24.7445 18.2954 25.0801 18.0474 25.3274C17.7994 25.5747 17.4635 25.7136 17.1132 25.7136ZM13.0528 4.54711C12.7964 4.54711 12.5505 4.64894 12.3693 4.83021C12.188 5.01148 12.0862 5.25735 12.0862 5.51371V24.3942C12.0862 24.6506 12.188 24.8965 12.3693 25.0777C12.5505 25.259 12.7964 25.3608 13.0528 25.3608H17.1132C17.3699 25.3608 17.6161 25.2591 17.7979 25.0779C17.9798 24.8968 18.0824 24.6509 18.0834 24.3942V5.51371C18.0824 5.25703 17.9798 5.01117 17.7979 4.82999C17.6161 4.64882 17.3699 4.54711 17.1132 4.54711H13.0528Z" fill="black"/>
<path d="M11.9102 8.70998V5.51384C11.9102 5.2107 12.0306 4.91998 12.2449 4.70563C12.4593 4.49128 12.75 4.37086 13.0531 4.37086H17.1136C17.264 4.37039 17.413 4.3996 17.5521 4.45683C17.6911 4.51406 17.8176 4.5982 17.9241 4.70438C18.0306 4.81056 18.1151 4.93673 18.1728 5.07563C18.2304 5.21453 18.2601 5.36345 18.2601 5.51384V8.70998H11.9102Z" fill="#CCBEE3"/>
<path d="M18.2597 8.88624H11.9098C11.863 8.88624 11.8182 8.86767 11.7851 8.83459C11.752 8.80151 11.7334 8.75663 11.7334 8.70985V5.51371C11.7343 5.16408 11.8737 4.82903 12.1209 4.5818C12.3681 4.33457 12.7031 4.19527 13.0528 4.19434H17.1132C17.4635 4.19433 17.7994 4.33322 18.0474 4.58055C18.2954 4.82788 18.4352 5.16347 18.4361 5.51371V8.70985C18.4352 8.75635 18.4164 8.80069 18.3835 8.83357C18.3506 8.86646 18.3062 8.88534 18.2597 8.88624ZM12.0862 8.53347H18.0834V5.51371C18.0824 5.25703 17.9798 5.01117 17.7979 4.82999C17.6161 4.64882 17.3699 4.54711 17.1132 4.54711H13.0528C12.7964 4.54711 12.5505 4.64894 12.3693 4.83021C12.188 5.01148 12.0862 5.25735 12.0862 5.51371V8.53347Z" fill="black"/>
<path d="M16.0474 2.9104H14.1953V4.37089H16.0474V2.9104Z" fill="#E6DAFC"/>
<path d="M16.0481 4.54716H14.2067C14.1599 4.54716 14.115 4.52856 14.0819 4.49548C14.0489 4.4624 14.0303 4.41755 14.0303 4.37077V2.91027C14.0303 2.86349 14.0489 2.81862 14.0819 2.78554C14.115 2.75246 14.1599 2.73389 14.2067 2.73389H16.0587C16.1055 2.73389 16.1504 2.75246 16.1834 2.78554C16.2165 2.81862 16.2351 2.86349 16.2351 2.91027V4.37077C16.2352 4.39485 16.2303 4.41869 16.2207 4.44081C16.2112 4.46293 16.1973 4.48285 16.1797 4.49938C16.1622 4.5159 16.1416 4.52867 16.1189 4.53689C16.0963 4.5451 16.0722 4.5486 16.0481 4.54716ZM14.3725 4.19438H15.8718V3.08666H14.3725V4.19438Z" fill="black"/>
<path d="M14.0297 6.26612L14.0283 6.6189L16.1414 6.62738L16.1428 6.27461L14.0297 6.26612Z" fill="black"/>
<path d="M15.0403 5.38732L15.0059 7.5813L15.3586 7.58684L15.3931 5.39286L15.0403 5.38732Z" fill="black"/>
<path d="M15.5965 19.4414L16.5666 19.7624V20.1751L13.4834 19.1168V18.6335L16.5666 17.5752V18.0021L15.5965 18.3301V19.4414ZM15.2861 18.4289L14.4006 18.7323C14.1996 18.7993 14.0161 18.8452 13.8362 18.891C14.0196 18.9369 14.2066 18.9863 14.3936 19.0463L15.2861 19.3496V18.4289Z" fill="black"/>
<path d="M15.5965 15.6703L16.5666 15.9913V16.404L13.4834 15.3457V14.8659L16.5666 13.8076V14.2345L15.5965 14.5626V15.6703ZM15.2861 14.6613L14.4006 14.9612C14.1996 15.0317 14.0161 15.0776 13.8362 15.1235C14.0196 15.1693 14.2066 15.2222 14.3936 15.2787L15.2861 15.5821V14.6613Z" fill="black"/>
<path d="M15.5965 11.9025L16.5666 12.2236V12.6328L13.4834 11.5745V11.0947L16.5666 10.0364V10.4597L15.5965 10.7913V11.9025ZM15.2861 10.8901L14.4006 11.1935C14.1996 11.2605 14.0161 11.3064 13.8362 11.3522C14.0196 11.3981 14.2066 11.4475 14.3936 11.5074L15.2861 11.8073V10.8901Z" fill="black"/>
<path d="M13.7372 23.6167L13.7344 23.9695L16.3413 23.9904L16.3441 23.6377L13.7372 23.6167Z" fill="black"/>
<path d="M18.2601 8.88633L15.0851 8.8828L11.9102 8.88633V8.53356L18.2601 8.53003V8.88633Z" fill="black"/>
</g>
<defs>
<clipPath id="clip0_934:973">
<rect width="30.1658" height="30" fill="white"/>
</clipPath>
</defs>
</svg>
