<svg width="30" height="30" viewBox="0 0 30 30" fill="none" xmlns="http://www.w3.org/2000/svg">
<g clip-path="url(#clip0_934:1030)">
<path d="M15.0019 29.4774C22.9965 29.4774 29.4774 22.9965 29.4774 15.0019C29.4774 7.00727 22.9965 0.526367 15.0019 0.526367C7.00727 0.526367 0.526367 7.00727 0.526367 15.0019C0.526367 22.9965 7.00727 29.4774 15.0019 29.4774Z" fill="#8E83C7"/>
<path d="M15.0018 29.9859C12.0347 29.9859 9.13432 29.1061 6.66729 27.4577C4.20026 25.8093 2.27741 23.4663 1.14196 20.7251C0.00651559 17.9839 -0.29059 14.9675 0.288256 12.0575C0.867102 9.14743 2.29593 6.47436 4.39396 4.37633C6.492 2.27829 9.16504 0.849529 12.0751 0.270683C14.9852 -0.308163 18.0015 -0.0110784 20.7427 1.12437C23.4839 2.25982 25.8269 4.18263 27.4753 6.64965C29.1237 9.11668 30.0035 12.0171 30.0035 14.9842C29.9989 18.9615 28.4168 22.7745 25.6045 25.5869C22.7921 28.3993 18.9791 29.9813 15.0018 29.9859ZM15.0018 1.03844C12.2427 1.03844 9.54563 1.85664 7.25162 3.38956C4.9576 4.92248 3.16973 7.10125 2.11404 9.65035C1.05836 12.1994 0.782288 15.0044 1.32081 17.7104C1.85933 20.4163 3.18822 22.9018 5.1394 24.8525C7.09059 26.8032 9.57643 28.1315 12.2826 28.6693C14.9887 29.2072 17.7935 28.9304 20.3424 27.8741C22.8912 26.8178 25.0696 25.0293 26.6019 22.7349C28.1343 20.4405 28.9517 17.7432 28.951 14.9842C28.9427 11.2888 27.4698 7.7474 24.8551 5.13601C22.2404 2.52461 18.6972 1.05619 15.0018 1.05248V1.03844Z" fill="black"/>
<path d="M19.5489 6.60962L21.5977 8.29714L22.7695 17.482H18.7174L18.7139 11.6336L19.5489 6.60962Z" fill="#E6DAFC"/>
<path d="M22.7689 17.6539H18.7203C18.6738 17.6539 18.6291 17.6355 18.5962 17.6026C18.5633 17.5697 18.5449 17.5251 18.5449 17.4785V11.6336L19.3799 6.57807C19.3853 6.54799 19.3986 6.51985 19.4182 6.49646C19.4379 6.47308 19.4635 6.45526 19.4922 6.44475C19.5207 6.43331 19.5517 6.42987 19.582 6.43481C19.6123 6.43976 19.6407 6.4529 19.6641 6.4728L21.713 8.16032C21.747 8.18882 21.7694 8.22874 21.7761 8.27259L22.9478 17.4575C22.9507 17.4825 22.9485 17.5079 22.9413 17.532C22.934 17.5561 22.9219 17.5785 22.9058 17.5978C22.8883 17.6164 22.867 17.631 22.8434 17.6407C22.8198 17.6504 22.7944 17.6549 22.7689 17.6539ZM18.8922 17.3031H22.5725L21.4323 8.38837L19.6781 6.93591L18.8922 11.6617V17.3031Z" fill="black"/>
<path d="M17.3909 11.8126C19.2587 11.8126 20.7729 10.4963 20.7729 8.87262C20.7729 7.2489 19.2587 5.93262 17.3909 5.93262C15.523 5.93262 14.0088 7.2489 14.0088 8.87262C14.0088 10.4963 15.523 11.8126 17.3909 11.8126Z" fill="#CCBEE3"/>
<path d="M17.3915 11.9847C15.4303 11.9847 13.834 10.5813 13.834 8.86924C13.834 7.15716 15.4303 5.75732 17.3915 5.75732C19.3527 5.75732 20.949 7.16067 20.949 8.86924C20.949 10.5778 19.3527 11.9847 17.3915 11.9847ZM17.3915 6.10816C15.6373 6.10816 14.1848 7.34661 14.1848 8.86924C14.1848 10.3919 15.6233 11.6338 17.3915 11.6338C19.1597 11.6338 20.5981 10.3954 20.5981 8.86924C20.5981 7.3431 19.1597 6.10816 17.3915 6.10816Z" fill="black"/>
<path d="M23.0462 17.4822H18.5029C18.2316 17.4822 18.0117 17.7021 18.0117 17.9733V18.2014C18.0117 18.4727 18.2316 18.6926 18.5029 18.6926H23.0462C23.3175 18.6926 23.5374 18.4727 23.5374 18.2014V17.9733C23.5374 17.7021 23.3175 17.4822 23.0462 17.4822Z" fill="#E6DAFC"/>
<path d="M23.0462 18.8645H18.4853C18.3094 18.8645 18.1408 18.7946 18.0164 18.6703C17.8921 18.5459 17.8223 18.3772 17.8223 18.2014V17.9698C17.8223 17.7936 17.892 17.6246 18.0163 17.4997C18.1405 17.3748 18.3091 17.3041 18.4853 17.3032H23.0462C23.223 17.3032 23.3925 17.3735 23.5175 17.4985C23.6425 17.6235 23.7128 17.793 23.7128 17.9698V18.2014C23.7119 18.3775 23.6412 18.5462 23.5163 18.6705C23.3914 18.7947 23.2224 18.8645 23.0462 18.8645ZM18.4853 17.6541C18.4022 17.655 18.3228 17.6887 18.2643 17.7478C18.2059 17.8069 18.1731 17.8867 18.1731 17.9698V18.2014C18.1731 18.2842 18.206 18.3636 18.2646 18.4222C18.3231 18.4807 18.4025 18.5136 18.4853 18.5136H23.0462C23.0875 18.5141 23.1285 18.5064 23.1668 18.4909C23.2051 18.4754 23.2399 18.4525 23.2693 18.4234C23.2987 18.3944 23.3219 18.3598 23.3378 18.3217C23.3537 18.2836 23.362 18.2427 23.362 18.2014V17.9698C23.362 17.8861 23.3287 17.8058 23.2695 17.7465C23.2103 17.6873 23.1299 17.6541 23.0462 17.6541H18.4853Z" fill="black"/>
<path d="M16.7873 11.8092C16.2056 11.8099 15.6369 11.6381 15.1529 11.3154C14.669 10.9928 14.2916 10.5339 14.0686 9.99673C13.8455 9.45957 13.7868 8.86833 13.8998 8.29779C14.0129 7.72726 14.2926 7.20308 14.7036 6.79156C15.1146 6.38004 15.6385 6.09967 16.2089 5.98595C16.7793 5.87222 17.3706 5.93025 17.9081 6.15267C18.4455 6.37509 18.9048 6.7519 19.2281 7.23546C19.5513 7.71901 19.7237 8.28758 19.7237 8.86921C19.7228 9.64806 19.4132 10.3948 18.8628 10.9459C18.3124 11.4969 17.5661 11.8074 16.7873 11.8092ZM16.7873 6.28355C16.2749 6.28285 15.7738 6.4342 15.3474 6.71843C14.9211 7.00267 14.5887 7.407 14.3923 7.88025C14.1959 8.35351 14.1444 8.87441 14.2441 9.37698C14.3439 9.87956 14.5906 10.3412 14.9529 10.7035C15.3152 11.0659 15.7769 11.3125 16.2795 11.4123C16.7821 11.5121 17.303 11.4605 17.7762 11.2641C18.2495 11.0677 18.6538 10.7353 18.938 10.309C19.2223 9.88267 19.3736 9.3816 19.3729 8.86921C19.371 8.18402 19.0981 7.52741 18.6136 7.04291C18.1291 6.5584 17.4725 6.2854 16.7873 6.28355Z" fill="black"/>
<path d="M9.79202 12.3845L11.8409 14.072L13.0127 23.2569H8.96405L8.95703 17.4085L9.79202 12.3845Z" fill="#E6DAFC"/>
<path d="M13.0131 23.4288H8.96448C8.91796 23.4288 8.87335 23.4103 8.84045 23.3774C8.80756 23.3445 8.78906 23.2999 8.78906 23.2534V17.4084L9.62752 12.3529C9.633 12.3228 9.64629 12.2947 9.66598 12.2713C9.68567 12.2479 9.71111 12.2301 9.73982 12.2196C9.76815 12.2073 9.79945 12.2034 9.82992 12.2084C9.86039 12.2134 9.88875 12.227 9.91172 12.2476L11.9606 13.9352C11.9946 13.9637 12.0171 14.0036 12.0238 14.0474L13.1956 23.2323C13.1986 23.257 13.1962 23.2822 13.1887 23.3059C13.1813 23.3297 13.1688 23.3516 13.1522 23.3702C13.1356 23.3888 13.1153 23.4036 13.0925 23.4137C13.0698 23.4238 13.0451 23.429 13.0202 23.4288H13.0131ZM9.15395 23.0779H12.8307L11.6729 14.1632L9.91875 12.7107L9.13288 17.4365L9.15395 23.0779Z" fill="black"/>
<path d="M7.63401 17.5839C9.50187 17.5839 11.0161 16.2676 11.0161 14.6439C11.0161 13.0201 9.50187 11.7039 7.63401 11.7039C5.76615 11.7039 4.25195 13.0201 4.25195 14.6439C4.25195 16.2676 5.76615 17.5839 7.63401 17.5839Z" fill="#CCBEE3"/>
<path d="M7.63459 17.7593C5.67342 17.7593 4.07715 16.356 4.07715 14.6439C4.07715 12.9318 5.67342 11.532 7.63459 11.532C9.59576 11.532 11.192 12.9353 11.192 14.6439C11.192 16.3525 9.59576 17.7593 7.63459 17.7593ZM7.63459 11.8828C5.88041 11.8828 4.42798 13.1213 4.42798 14.6439C4.42798 16.1665 5.86637 17.4085 7.63459 17.4085C9.4028 17.4085 10.8412 16.1665 10.8412 14.6439C10.8412 13.1213 9.4028 11.8828 7.63459 11.8828Z" fill="black"/>
<path d="M13.2894 23.2568H8.74605C8.47479 23.2568 8.25488 23.4767 8.25488 23.748V23.976C8.25488 24.2473 8.47479 24.4672 8.74605 24.4672H13.2894C13.5606 24.4672 13.7805 24.2473 13.7805 23.976V23.748C13.7805 23.4767 13.5606 23.2568 13.2894 23.2568Z" fill="#E6DAFC"/>
<path d="M13.2894 24.6391H8.72856C8.5527 24.6391 8.38404 24.5692 8.25969 24.4449C8.13534 24.3205 8.06543 24.1519 8.06543 23.976V23.7445C8.06543 23.5683 8.13518 23.3993 8.25943 23.2743C8.38369 23.1494 8.55238 23.0788 8.72856 23.0779H13.2894C13.4662 23.0779 13.6358 23.1481 13.7608 23.2731C13.8858 23.3981 13.956 23.5677 13.956 23.7445V23.976C13.9551 24.1522 13.8844 24.3208 13.7595 24.4451C13.6346 24.5694 13.4656 24.6391 13.2894 24.6391ZM8.72856 23.4287C8.68726 23.4287 8.64633 23.4369 8.60822 23.4528C8.5701 23.4687 8.5355 23.492 8.50646 23.5214C8.47742 23.5508 8.45453 23.5856 8.43905 23.6239C8.42357 23.6622 8.4158 23.7032 8.41627 23.7445V23.976C8.41627 24.0588 8.44919 24.1383 8.50774 24.1968C8.5663 24.2554 8.64575 24.2883 8.72856 24.2883H13.2894C13.3307 24.2887 13.3717 24.281 13.4099 24.2655C13.4482 24.25 13.4831 24.2271 13.5125 24.1981C13.5418 24.169 13.5652 24.1344 13.5811 24.0963C13.597 24.0582 13.6052 24.0173 13.6051 23.976V23.7445C13.6051 23.6607 13.5719 23.5804 13.5126 23.5212C13.4534 23.462 13.3732 23.4287 13.2894 23.4287H8.72856Z" fill="black"/>
<path d="M7.03142 17.5839C6.44979 17.5846 5.88101 17.4127 5.39707 17.0901C4.91312 16.7675 4.53575 16.3085 4.31269 15.7714C4.08963 15.2342 4.03091 14.643 4.14396 14.0725C4.257 13.5019 4.5367 12.9777 4.94773 12.5662C5.35876 12.1547 5.88268 11.8743 6.45309 11.7606C7.02349 11.6469 7.61477 11.7049 8.15219 11.9273C8.68961 12.1497 9.14899 12.5266 9.4722 13.0101C9.7954 13.4937 9.96787 14.0622 9.96787 14.6439C9.96695 15.4227 9.65745 16.1694 9.10706 16.7205C8.55666 17.2716 7.81026 17.582 7.03142 17.5839ZM7.03142 12.0582C6.51903 12.0575 6.01791 12.2089 5.59158 12.4931C5.16526 12.7773 4.83287 13.1817 4.63646 13.6549C4.44006 14.1282 4.38849 14.649 4.48828 15.1516C4.58807 15.6542 4.83475 16.1159 5.19706 16.4782C5.55938 16.8405 6.02109 17.0872 6.52366 17.187C7.02624 17.2868 7.54712 17.2352 8.02037 17.0388C8.49362 16.8424 8.89794 16.51 9.18217 16.0836C9.46641 15.6573 9.61773 15.1563 9.61703 14.6439C9.61518 13.9587 9.34222 13.3021 8.85772 12.8176C8.37321 12.3331 7.71661 12.0601 7.03142 12.0582Z" fill="black"/>
<path d="M15.0013 23.8287C14.5728 23.8284 14.1449 23.798 13.7208 23.7375C13.6745 23.7306 13.6327 23.7057 13.6045 23.6683C13.5762 23.6309 13.5638 23.584 13.5698 23.5375C13.5733 23.5147 13.5812 23.4928 13.5931 23.473C13.6051 23.4533 13.6207 23.4361 13.6393 23.4224C13.6579 23.4087 13.6789 23.3988 13.7013 23.3933C13.7237 23.3878 13.747 23.3867 13.7698 23.3902C14.1778 23.4477 14.5893 23.477 15.0013 23.4779C16.1139 23.4806 17.216 23.2628 18.244 22.8371C19.2719 22.4113 20.2052 21.7861 20.9901 20.9975C21.0235 20.9651 21.0681 20.947 21.1146 20.947C21.1611 20.947 21.2058 20.9651 21.2392 20.9975C21.2556 21.0138 21.2686 21.0332 21.2775 21.0546C21.2864 21.076 21.2911 21.0989 21.2911 21.122C21.2911 21.1452 21.2864 21.1681 21.2775 21.1895C21.2686 21.2109 21.2556 21.2303 21.2392 21.2466C20.4215 22.0677 19.4493 22.7187 18.3786 23.1619C17.3079 23.6051 16.1601 23.8317 15.0013 23.8287Z" fill="black"/>
<path d="M20.2744 20.7099L21.9374 20.1731L21.5725 21.8817L20.2744 20.7099Z" fill="black"/>
<path d="M8.53931 9.41989C8.50545 9.42019 8.47221 9.41067 8.44364 9.3925C8.41506 9.37433 8.39238 9.34828 8.37829 9.31749C8.36419 9.2867 8.35924 9.25249 8.36415 9.21899C8.36907 9.18549 8.3836 9.15413 8.40595 9.12869C9.23509 8.19904 10.2513 7.45501 11.3879 6.94534C12.5245 6.43567 13.756 6.17185 15.0017 6.17114C15.1876 6.17114 15.3701 6.17114 15.5525 6.17114C15.5756 6.17248 15.5981 6.17837 15.6189 6.18844C15.6397 6.19852 15.6582 6.2126 15.6736 6.22988C15.6889 6.24715 15.7006 6.26728 15.7082 6.28911C15.7157 6.31094 15.7188 6.33405 15.7174 6.3571C15.713 6.40268 15.6912 6.44482 15.6566 6.47485C15.622 6.50487 15.5772 6.52048 15.5315 6.51847C15.356 6.51847 15.1806 6.51847 15.0017 6.51847C13.8087 6.52135 12.6298 6.7756 11.5417 7.26464C10.4536 7.75368 9.48078 8.46654 8.68664 9.35674C8.66886 9.37822 8.64623 9.39514 8.6206 9.40612C8.59497 9.4171 8.56713 9.42183 8.53931 9.41989Z" fill="black"/>
<path d="M9.4019 9.6095L7.77051 10.2445L8.03714 8.51489L9.4019 9.6095Z" fill="black"/>
<path d="M15.0025 20.8432C14.6591 20.8439 14.3164 20.8146 13.9781 20.7555C13.9326 20.747 13.8923 20.7208 13.866 20.6827C13.8397 20.6445 13.8295 20.5976 13.8377 20.552C13.8415 20.5292 13.8499 20.5075 13.8622 20.488C13.8746 20.4686 13.8908 20.4518 13.9098 20.4387C13.9288 20.4256 13.9501 20.4164 13.9727 20.4118C13.9953 20.4072 14.0186 20.4071 14.0412 20.4117C14.3589 20.4649 14.6804 20.4919 15.0025 20.4924C15.8126 20.4938 16.613 20.3155 17.3458 19.9703C18.0787 19.6251 18.7259 19.1216 19.2407 18.4961C19.2542 18.4756 19.2719 18.4583 19.2926 18.445C19.3132 18.4318 19.3364 18.4231 19.3607 18.4195C19.3849 18.4158 19.4096 18.4172 19.4333 18.4237C19.4569 18.4302 19.4791 18.4416 19.498 18.4571C19.517 18.4727 19.5325 18.492 19.5435 18.5139C19.5546 18.5358 19.5609 18.5598 19.5621 18.5843C19.5633 18.6088 19.5594 18.6333 19.5506 18.6562C19.5417 18.679 19.5282 18.6998 19.5108 18.7171C18.9634 19.3829 18.275 19.9188 17.4955 20.2865C16.7159 20.6541 15.8644 20.8443 15.0025 20.8432Z" fill="black"/>
<path d="M9.91783 12.6616C9.89238 12.6669 9.86611 12.6669 9.84066 12.6616C9.79938 12.6405 9.76792 12.6042 9.75286 12.5603C9.73781 12.5165 9.74035 12.4685 9.75997 12.4265C10.4162 11.0923 11.5587 10.0603 12.9525 9.54264C12.9745 9.5314 12.9987 9.52495 13.0234 9.52367C13.048 9.5224 13.0726 9.52634 13.0957 9.53526C13.1187 9.54417 13.1396 9.55784 13.157 9.57538C13.1744 9.59293 13.1879 9.61396 13.1966 9.63708C13.2053 9.66019 13.209 9.68487 13.2075 9.70952C13.206 9.73417 13.1993 9.75823 13.1878 9.78012C13.1764 9.802 13.1604 9.82124 13.1411 9.83654C13.1217 9.85185 13.0993 9.86287 13.0754 9.86892C11.7663 10.3574 10.6933 11.3276 10.0757 12.5809C10.0589 12.6072 10.0354 12.6285 10.0077 12.6427C9.97993 12.6568 9.94894 12.6634 9.91783 12.6616Z" fill="black"/>
</g>
<defs>
<clipPath id="clip0_934:1030">
<rect width="30" height="30" fill="white"/>
</clipPath>
</defs>
</svg>
