<svg width="30" height="30" viewBox="0 0 30 30" fill="none" xmlns="http://www.w3.org/2000/svg">
<g clip-path="url(#clip0)">
<path d="M15.002 29.408C22.9581 29.408 29.4079 22.9582 29.4079 15.0021C29.4079 7.04592 22.9581 0.596191 15.002 0.596191C7.04583 0.596191 0.5961 7.04592 0.5961 15.0021C0.5961 22.9582 7.04583 29.408 15.002 29.408Z" fill="#8E83C7"/>
<path d="M15.002 30.0001C12.0347 30.0009 9.13385 29.1217 6.66626 27.4737C4.19867 25.8257 2.27521 23.483 1.13914 20.7418C0.00306466 18.0007 -0.294592 14.9841 0.283814 12.0738C0.86222 9.16341 2.29071 6.48995 4.38861 4.39148C6.48652 2.29302 9.15961 0.863826 12.0698 0.284649C14.98 -0.294528 17.9966 0.00233388 20.7381 1.13768C23.4796 2.27303 25.8228 4.19587 27.4714 6.66302C29.1201 9.13017 30 12.0308 30 14.9981C29.9958 18.9749 28.4144 22.7876 25.6028 25.6C22.7911 28.4124 18.9788 29.9948 15.002 30.0001ZM15.002 1.19228C12.2703 1.1915 9.59982 2.00086 7.3282 3.51799C5.05659 5.03513 3.28594 7.19188 2.24022 9.71545C1.19449 12.239 0.92068 15.016 1.45341 17.6952C1.98613 20.3744 3.30147 22.8355 5.23304 24.767C7.16461 26.6986 9.62565 28.014 12.3049 28.5467C14.9841 29.0794 17.7611 28.8056 20.2846 27.7599C22.8082 26.7141 24.965 24.9435 26.4821 22.6719C27.9992 20.4003 28.8086 17.7297 28.8078 14.9981C28.8036 11.3379 27.3477 7.82873 24.7595 5.24055C22.1714 2.65237 18.6622 1.19649 15.002 1.19228Z" fill="black"/>
<path d="M12.7765 9.52981C13.8018 11.1472 16.2737 14.3821 16.2737 14.3821C16.2737 14.3821 13.7422 17.9587 12.6176 19.7987C10.9286 19.7431 8.94557 19.7987 7.2566 19.755C6.25515 17.8395 5.15832 15.9717 4.15686 14.0562C5.04704 12.5858 5.87762 11.0161 6.76383 9.54173C8.69918 9.55366 10.8412 9.51789 12.7765 9.52981Z" fill="#E6DAFC"/>
<path d="M12.697 19.9498H12.6096C11.7711 19.9219 10.8372 19.9259 9.93904 19.9299C9.0409 19.9339 8.09906 19.9299 7.25259 19.906H7.16516L7.12542 19.8305C6.6247 18.8728 6.09217 17.9151 5.57555 16.9851C5.05892 16.0552 4.5264 15.0935 4.02567 14.1357L3.98593 14.0602L4.02965 13.9887C4.47076 13.2535 4.90791 12.4825 5.33313 11.7354C5.75835 10.9883 6.19152 10.2094 6.63661 9.47419L6.68033 9.39868H6.76776C7.73345 9.39868 8.75478 9.39868 9.77611 9.39868C10.7974 9.39868 11.8108 9.39868 12.7765 9.39868H12.856L12.8997 9.46625C13.9091 11.0559 16.3651 14.2748 16.3889 14.3106L16.4565 14.398L16.3929 14.4855C16.369 14.5212 13.8535 18.0621 12.7447 19.8901L12.697 19.9498ZM10.7656 19.6239C11.3697 19.6239 11.9579 19.6239 12.5341 19.6437C13.5713 17.9548 15.6934 14.9425 16.0869 14.3861C15.6895 13.8655 13.6389 11.1512 12.693 9.68085C11.7512 9.68085 10.7656 9.68085 9.77611 9.68085C8.78657 9.68085 7.78909 9.68085 6.85121 9.68085C6.42202 10.3922 6.00077 11.1393 5.59145 11.8586C5.18212 12.5779 4.75689 13.333 4.3277 14.0523C4.81651 14.9822 5.33313 15.9161 5.83783 16.8341C6.34254 17.7521 6.85916 18.6781 7.34797 19.6159C8.16662 19.6398 9.06475 19.6358 9.93507 19.6358L10.7656 19.6239Z" fill="black"/>
<path d="M21.1378 4.86426L24.2535 9.68873C23.1408 11.5565 21.9803 13.2654 20.8716 15.1332C19.1826 15.0934 17.3903 15.1729 15.7053 15.1332C14.688 13.2256 13.5753 11.3697 12.5539 9.46221C13.4322 7.98387 14.2508 6.40617 15.1251 4.92783C17.0605 4.91988 19.2025 4.86823 21.1378 4.86426Z" fill="#E6DAFC"/>
<path d="M16.7863 15.2921C16.4207 15.2921 16.059 15.2921 15.7014 15.2921H15.6139L15.5742 15.2166C15.0655 14.2628 14.5251 13.305 13.9846 12.3831C13.4441 11.4611 12.9195 10.4994 12.395 9.54561L12.3552 9.4701L12.3989 9.39856C12.8361 8.66336 13.2653 7.88446 13.6826 7.13336C14.0998 6.38227 14.529 5.60336 14.9701 4.86419L15.0139 4.78868H15.0973C16.067 4.78868 17.0843 4.78868 18.1096 4.75688C19.1349 4.72509 20.1404 4.72907 21.1061 4.7251H21.1895L24.4005 9.70059L24.3528 9.78007C23.7965 10.714 23.2163 11.624 22.6599 12.5023C22.1035 13.3806 21.5233 14.2906 20.9709 15.2205L20.9272 15.296H20.8398C19.9973 15.2762 19.1151 15.296 18.2606 15.296C17.7917 15.2881 17.287 15.2921 16.7863 15.2921ZM15.7967 14.9861C16.6114 14.9861 17.4619 14.9861 18.2845 14.9861C19.1071 14.9861 19.9655 14.9662 20.7881 14.9861C21.3286 14.076 21.8929 13.1938 22.4334 12.3354C22.9739 11.477 23.5342 10.6027 24.0747 9.69661L21.0544 5.01917C20.1165 5.01917 19.127 5.01918 18.1414 5.04699C17.1559 5.07481 16.1544 5.07481 15.2126 5.07878C14.7873 5.79411 14.374 6.54521 13.9727 7.27246C13.5713 7.99971 13.15 8.7508 12.7248 9.4701C13.2216 10.396 13.7501 11.326 14.2588 12.2281C14.7675 13.1302 15.296 14.0561 15.7967 14.9861Z" fill="black"/>
<path d="M20.955 15.1967C21.9803 16.8141 23.2282 18.4316 24.2535 20.049C23.1249 21.9049 21.9525 23.6058 20.8279 25.4616C19.1389 25.406 17.3466 25.4616 15.6616 25.4179C14.6602 23.5024 13.5633 21.6386 12.5619 19.7231C13.4481 18.2488 15.6656 15.2086 15.6656 15.2086C15.6656 15.2086 19.0197 15.1848 20.955 15.1967Z" fill="#E6DAFC"/>
<path d="M20.8955 25.6127H20.8081C19.9696 25.5849 19.0874 25.5889 18.2329 25.5889C17.3785 25.5889 16.4923 25.5888 15.6458 25.569H15.5584L15.5187 25.4895C15.0179 24.5357 14.4854 23.578 13.9688 22.6481C13.4522 21.7181 12.9196 20.7564 12.4149 19.7947L12.3792 19.7232L12.4229 19.6516C13.3051 18.1892 15.5107 15.153 15.5346 15.1252L15.5783 15.0616H15.6538C15.6895 15.0616 19.0277 15.0378 20.9432 15.0616H21.0227L21.0664 15.1332C21.5791 15.928 22.1553 16.7585 22.7156 17.5534C23.276 18.3482 23.8522 19.1708 24.3688 19.9855L24.4165 20.061L24.3688 20.1404C23.8045 21.0704 23.2203 21.9765 22.656 22.8507C22.0917 23.725 21.5036 24.6271 20.9432 25.5571L20.8955 25.6127ZM19.0198 25.2908C19.5921 25.2908 20.1723 25.2908 20.7326 25.3107C21.285 24.4046 21.8533 23.5263 22.4057 22.6719C22.9581 21.8175 23.5184 20.9472 24.0668 20.049C23.5701 19.2542 23.0097 18.4594 22.4772 17.7083C21.9447 16.9572 21.3724 16.1187 20.8677 15.3438C19.1072 15.3438 16.238 15.3438 15.7412 15.3438C15.4273 15.773 13.5595 18.3601 12.7289 19.7152C13.2177 20.6491 13.7343 21.583 14.239 22.4971C14.7437 23.4111 15.2604 24.337 15.7492 25.2789C16.5638 25.3027 17.4143 25.3027 18.2409 25.2987L19.0198 25.2908Z" fill="black"/>
<path d="M17.597 8.89775L17.6169 8.94146C17.6256 8.95616 17.6379 8.96845 17.6526 8.97722C17.6648 8.9889 17.6799 8.99713 17.6964 9.00107C17.7147 9.00505 17.7337 9.00505 17.752 9.00107H17.7997L17.8275 8.97722C17.8431 8.96206 17.8542 8.94277 17.8593 8.92159V8.88583C17.8633 8.86349 17.8633 8.84061 17.8593 8.81827L17.8394 8.77852C17.8317 8.76302 17.8191 8.75047 17.8037 8.74276C17.7914 8.73108 17.7764 8.72285 17.7599 8.71891C17.7432 8.71316 17.725 8.71316 17.7083 8.71891C17.6915 8.71316 17.6734 8.71316 17.6566 8.71891L17.6288 8.73879C17.6123 8.75489 17.6012 8.77572 17.597 8.7984V8.83416C17.591 8.85494 17.591 8.87698 17.597 8.89775Z" fill="black"/>
<path d="M18.9641 8.94551H18.9839C19.0009 8.94956 19.0186 8.94956 19.0356 8.94551C19.0516 8.93863 19.0663 8.92923 19.0793 8.91769C19.091 8.90548 19.0992 8.8904 19.1032 8.87398C19.1092 8.85729 19.1092 8.839 19.1032 8.82231V8.78655C19.098 8.76537 19.087 8.74607 19.0714 8.73091L19.0436 8.70706C19.0214 8.70116 18.9981 8.70116 18.976 8.70706H18.9561C18.9391 8.70301 18.9214 8.70301 18.9045 8.70706C18.8871 8.71089 18.8716 8.72074 18.8607 8.73488C18.8493 8.74645 18.8399 8.75989 18.8329 8.77463C18.8272 8.79137 18.8272 8.80955 18.8329 8.82629V8.86206C18.8371 8.88474 18.8482 8.90557 18.8647 8.92166L18.8925 8.94153C18.9136 8.95229 18.9365 8.95903 18.9601 8.96141L18.9641 8.94551Z" fill="black"/>
<path d="M18.2765 10.7298C18.0744 10.7309 17.8747 10.6861 17.6924 10.5987C17.5036 10.506 17.342 10.3663 17.2229 10.1929C17.1039 10.0196 17.0315 9.81856 17.0128 9.60914C17.0112 9.58951 17.0135 9.56975 17.0197 9.55104C17.0258 9.53233 17.0357 9.51504 17.0487 9.50021C17.0617 9.48538 17.0775 9.47332 17.0952 9.46473C17.1129 9.45613 17.1322 9.45118 17.1519 9.45019C17.1913 9.44799 17.23 9.46132 17.2597 9.48732C17.2894 9.51332 17.3078 9.54992 17.3109 9.58928C17.3261 9.74601 17.3812 9.89623 17.4709 10.0256C17.5607 10.155 17.682 10.2593 17.8235 10.3285C17.9696 10.3972 18.129 10.4328 18.2905 10.4328C18.4519 10.4328 18.6113 10.3972 18.7574 10.3285C19.0568 10.1818 19.2917 9.92999 19.4171 9.62108C19.4343 9.5872 19.4637 9.56105 19.4994 9.54789C19.535 9.53472 19.5744 9.5355 19.6095 9.55005C19.6446 9.5646 19.6729 9.59185 19.6889 9.62638C19.7048 9.66091 19.707 9.70017 19.6953 9.73632C19.5421 10.1097 19.2601 10.4157 18.9005 10.5987C18.705 10.6889 18.4917 10.7337 18.2765 10.7298Z" fill="black"/>
<path d="M8.77072 13.5555L8.79456 13.5952C8.8029 13.6101 8.81364 13.6235 8.82636 13.6349C8.83953 13.6474 8.85613 13.6557 8.87404 13.6588H8.92571C8.94119 13.6639 8.95792 13.6639 8.9734 13.6588L9.00122 13.6389C9.01774 13.6228 9.02884 13.602 9.033 13.5793V13.5475C9.03872 13.5254 9.03872 13.5021 9.033 13.48L9.01314 13.4362C9.00436 13.4215 8.99207 13.4092 8.97737 13.4005C8.96516 13.3888 8.95008 13.3806 8.93365 13.3766H8.88199C8.86525 13.3709 8.84707 13.3709 8.83033 13.3766L8.80649 13.3965C8.78972 13.4114 8.77735 13.4307 8.77072 13.4521V13.4879C8.76482 13.51 8.76482 13.5333 8.77072 13.5555Z" fill="black"/>
<path d="M10.1377 13.5991C10.1547 13.6032 10.1724 13.6032 10.1894 13.5991C10.2068 13.5953 10.2223 13.5854 10.2331 13.5713C10.2446 13.5597 10.254 13.5463 10.2609 13.5316C10.2667 13.5148 10.2667 13.4967 10.2609 13.4799V13.4441C10.2568 13.4215 10.2457 13.4006 10.2291 13.3845L10.2013 13.3647C10.1792 13.3588 10.1559 13.3588 10.1338 13.3647C10.1171 13.3586 10.0988 13.3586 10.0821 13.3647C10.0661 13.3715 10.0514 13.3809 10.0384 13.3925C10.0267 13.4047 10.0185 13.4198 10.0145 13.4362C10.0105 13.4532 10.0105 13.4709 10.0145 13.4879V13.5236C10.0197 13.5448 10.0307 13.5641 10.0463 13.5793L10.0742 13.6031C10.0963 13.609 10.1196 13.609 10.1417 13.6031L10.1377 13.5991Z" fill="black"/>
<path d="M9.45034 15.3876C9.2479 15.3873 9.04817 15.3411 8.86615 15.2524C8.67726 15.161 8.51533 15.0222 8.39621 14.8494C8.27709 14.6767 8.20486 14.4759 8.1866 14.2669C8.18497 14.2472 8.18731 14.2275 8.19347 14.2088C8.19964 14.1901 8.2095 14.1728 8.22248 14.1579C8.23545 14.1431 8.25127 14.1311 8.269 14.1225C8.28673 14.1139 8.30601 14.1089 8.32568 14.1079C8.36447 14.1057 8.40264 14.1185 8.43225 14.1436C8.46186 14.1688 8.48062 14.2044 8.48465 14.243C8.49995 14.4002 8.55504 14.551 8.64474 14.681C8.73443 14.811 8.85576 14.9161 8.9973 14.9862C9.14367 15.0539 9.30299 15.0889 9.46425 15.0889C9.6255 15.0889 9.78483 15.0539 9.9312 14.9862C10.231 14.8388 10.4669 14.5874 10.5949 14.2788C10.6018 14.2603 10.6125 14.2434 10.6262 14.2292C10.64 14.2151 10.6565 14.2039 10.6748 14.1964C10.6931 14.1889 10.7128 14.1854 10.7325 14.1859C10.7523 14.1864 10.7717 14.1909 10.7896 14.1993C10.8077 14.2067 10.8242 14.2176 10.8381 14.2315C10.852 14.2453 10.8629 14.2618 10.8703 14.28C10.8777 14.2981 10.8814 14.3175 10.8812 14.3371C10.881 14.3567 10.8769 14.3761 10.8691 14.3941C10.7159 14.7674 10.4339 15.0734 10.0743 15.2564C9.87822 15.3448 9.66535 15.3895 9.45034 15.3876Z" fill="black"/>
<path d="M17.597 19.5999L17.6169 19.6436C17.6169 19.6436 17.6368 19.6714 17.6527 19.6794C17.6649 19.6911 17.6799 19.6993 17.6964 19.7032H17.752C17.7675 19.7084 17.7842 19.7084 17.7997 19.7032L17.8275 19.6834C17.8432 19.6682 17.8542 19.6489 17.8593 19.6277V19.592C17.8633 19.5696 17.8633 19.5467 17.8593 19.5244L17.8394 19.4846C17.8309 19.4687 17.8186 19.455 17.8037 19.4449C17.7915 19.4332 17.7764 19.425 17.76 19.4211H17.7162C17.6995 19.4153 17.6813 19.4153 17.6646 19.4211L17.6368 19.4409C17.6202 19.457 17.6091 19.4779 17.605 19.5005V19.5323C17.5991 19.5545 17.5991 19.5778 17.605 19.5999H17.597Z" fill="black"/>
<path d="M18.9642 19.6358H18.9841C19.0007 19.6418 19.019 19.6418 19.0357 19.6358C19.0523 19.6323 19.0676 19.624 19.0796 19.612C19.0915 19.6 19.0998 19.5848 19.1033 19.5682C19.1094 19.5515 19.1094 19.5332 19.1033 19.5166V19.4808C19.0975 19.4587 19.0866 19.4383 19.0715 19.4212H19.0437C19.0215 19.4153 18.9982 19.4153 18.9761 19.4212H18.9562C18.9393 19.4171 18.9216 19.4171 18.9046 19.4212C18.8882 19.4251 18.8731 19.4333 18.8609 19.445C18.8493 19.458 18.8399 19.4728 18.833 19.4887C18.827 19.5054 18.827 19.5237 18.833 19.5404V19.5762C18.8389 19.5982 18.8498 19.6186 18.8648 19.6358L18.8927 19.6557C18.9148 19.6616 18.9381 19.6616 18.9602 19.6557L18.9642 19.6358Z" fill="black"/>
<path d="M18.2765 21.4242C18.0739 21.4257 17.8737 21.3794 17.6924 21.289C17.5035 21.1976 17.3415 21.0588 17.2224 20.886C17.1033 20.7133 17.0311 20.5125 17.0128 20.3035C17.0112 20.2838 17.0135 20.2641 17.0197 20.2454C17.0258 20.2267 17.0357 20.2094 17.0487 20.1945C17.0617 20.1797 17.0775 20.1677 17.0952 20.1591C17.1129 20.1505 17.1322 20.1455 17.1519 20.1445C17.1913 20.1423 17.23 20.1557 17.2597 20.1817C17.2894 20.2077 17.3078 20.2443 17.3109 20.2836C17.3261 20.4403 17.3812 20.5906 17.4709 20.72C17.5607 20.8494 17.682 20.9536 17.8235 21.0228C17.9699 21.0904 18.1292 21.1255 18.2905 21.1255C18.4517 21.1255 18.611 21.0904 18.7574 21.0228C19.0568 20.8762 19.2917 20.6243 19.4171 20.3154C19.4343 20.2815 19.4637 20.2554 19.4994 20.2422C19.535 20.2291 19.5744 20.2298 19.6095 20.2444C19.6446 20.2589 19.6729 20.2862 19.6889 20.3207C19.7048 20.3552 19.707 20.3945 19.6953 20.4307C19.5421 20.804 19.2601 21.11 18.9005 21.293C18.7044 21.3814 18.4916 21.4261 18.2765 21.4242Z" fill="black"/>
</g>
<defs>
<clipPath id="clip0">
<rect width="30" height="30" fill="white"/>
</clipPath>
</defs>
</svg>
