<svg width="26" height="26" viewBox="0 0 26 26" fill="none" xmlns="http://www.w3.org/2000/svg">
<path fill-rule="evenodd" clip-rule="evenodd" d="M15.7577 12.0028H19.3559C19.9014 12.0028 20.3301 11.5517 20.3301 11.0078C20.3301 10.4506 19.9014 10.0128 19.3559 10.0128H15.7577C15.2121 10.0128 14.7834 10.4506 14.7834 11.0078C14.7834 11.5517 15.2121 12.0028 15.7577 12.0028ZM23.6295 5.10574C24.4219 5.10574 24.9415 5.38434 25.4611 5.9946C25.9807 6.60487 26.0716 7.48046 25.9547 8.27514L24.7207 16.978C24.4869 18.651 23.084 19.8834 21.4343 19.8834H7.2623C5.53465 19.8834 4.10576 18.5316 3.96288 16.7804L2.76781 2.31842L0.806336 1.97349C0.286741 1.88063 -0.0769752 1.36323 0.0139539 0.832563C0.104883 0.289959 0.611488 -0.0695666 1.14407 0.0113598L4.24216 0.487631C4.68381 0.568558 5.00856 0.938696 5.04753 1.38976L5.29434 4.36148C5.33331 4.78734 5.67104 5.10574 6.08672 5.10574H23.6295ZM7.05417 21.9802C5.96302 21.9802 5.07971 22.8823 5.07971 23.9967C5.07971 25.0978 5.96302 25.9999 7.05417 25.9999C8.13233 25.9999 9.01565 25.0978 9.01565 23.9967C9.01565 22.8823 8.13233 21.9802 7.05417 21.9802ZM21.6677 21.9802C20.5766 21.9802 19.6933 22.8823 19.6933 23.9967C19.6933 25.0978 20.5766 25.9999 21.6677 25.9999C22.7459 25.9999 23.6292 25.0978 23.6292 23.9967C23.6292 22.8823 22.7459 21.9802 21.6677 21.9802Z" fill="#82C4F2"/>
</svg>
