<svg width="30" height="30" viewBox="0 0 30 30" fill="none" xmlns="http://www.w3.org/2000/svg">
<g clip-path="url(#clip0)">
<path d="M15.002 29.408C22.9581 29.408 29.4079 22.9582 29.4079 15.0021C29.4079 7.04592 22.9581 0.596191 15.002 0.596191C7.04584 0.596191 0.596107 7.04592 0.596107 15.0021C0.596107 22.9582 7.04584 29.408 15.002 29.408Z" fill="#8E83C7"/>
<path d="M15.002 30.0001C12.0345 30.0009 9.1335 29.1216 6.66583 27.4734C4.19816 25.8253 2.2747 23.4824 1.13874 20.7409C0.00278657 17.9995 -0.294639 14.9828 0.284089 12.0723C0.862817 9.16184 2.2917 6.48839 4.39001 4.39008C6.48831 2.29178 9.16178 0.862896 12.0722 0.284168C14.9827 -0.294561 17.9994 0.00285604 20.7409 1.13881C23.4823 2.27477 25.8252 4.19823 27.4734 6.6659C29.1215 9.13357 30.0008 12.0346 30 15.0021C29.9958 18.9785 28.4143 22.7908 25.6025 25.6026C22.7908 28.4144 18.9784 29.9959 15.002 30.0001ZM15.002 1.19228C12.2705 1.1915 9.60013 2.00076 7.3286 3.51772C5.05707 5.03468 3.28642 7.1912 2.24058 9.71454C1.19474 12.2379 0.920698 15.0147 1.4531 17.6938C1.98551 20.3729 3.30045 22.8339 5.23162 24.7656C7.16279 26.6974 9.62345 28.013 12.3024 28.5462C14.9813 29.0794 17.7582 28.8061 20.2819 27.761C22.8055 26.7159 24.9625 24.9459 26.4801 22.6748C27.9978 20.4037 28.8078 17.7335 28.8078 15.0021C28.8078 11.3387 27.3539 7.8251 24.7654 5.23285C22.1768 2.64061 18.6653 1.18165 15.002 1.17639V1.19228Z" fill="black"/>
<path d="M8.37325 23.2402C8.37325 23.7409 8.37325 24.1026 8.3971 24.6033C13.1737 24.9349 17.9724 24.731 22.7036 23.9953C22.6321 23.4389 22.5407 22.8825 22.4692 22.3262" fill="#CCBEE3"/>
<path d="M12.8561 24.9052C11.3698 24.9052 9.87553 24.8535 8.38526 24.7542C8.34799 24.7512 8.31313 24.7346 8.28744 24.7074C8.26174 24.6802 8.24704 24.6445 8.24617 24.6071L8.21835 23.244C8.21834 23.2047 8.2337 23.1669 8.26117 23.1386C8.28864 23.1104 8.32604 23.0941 8.36539 23.093C8.38532 23.0913 8.4054 23.0938 8.42425 23.1006C8.44309 23.1073 8.46027 23.118 8.4746 23.1319C8.48894 23.1459 8.5001 23.1628 8.50731 23.1814C8.51452 23.2001 8.51763 23.2201 8.51641 23.2401L8.54025 24.4641C13.216 24.7797 17.9123 24.5811 22.5448 23.8719C22.513 23.6375 22.4812 23.407 22.4454 23.1765C22.4096 22.946 22.3659 22.6201 22.3302 22.3419C22.3256 22.3031 22.3363 22.2639 22.36 22.2328C22.3837 22.2017 22.4186 22.1809 22.4573 22.175C22.477 22.1723 22.497 22.1735 22.5161 22.1786C22.5353 22.1838 22.5532 22.1927 22.5687 22.205C22.5843 22.2172 22.5973 22.2325 22.6068 22.2499C22.6164 22.2673 22.6223 22.2864 22.6242 22.3062C22.66 22.5804 22.6997 22.8586 22.7395 23.1328C22.7792 23.407 22.8229 23.6971 22.8587 23.9753C22.8644 24.0137 22.8546 24.0529 22.8316 24.0842C22.8085 24.1154 22.7739 24.1363 22.7355 24.1422C19.4671 24.652 16.164 24.9071 12.8561 24.9052Z" fill="black"/>
<path d="M7.86459 7.74542C7.86459 7.28443 7.89241 6.98639 7.90036 6.52142C12.2107 5.43099 16.6662 5.02862 21.1021 5.32921C21.1577 5.72662 21.1021 6.17568 21.1498 6.56513" fill="#CCBEE3"/>
<path d="M7.86466 7.89648C7.8253 7.89544 7.7879 7.87907 7.76044 7.85086C7.73297 7.82265 7.71761 7.78483 7.71762 7.74546C7.71762 7.51099 7.71762 7.32024 7.71762 7.12551C7.71762 6.93078 7.71762 6.75196 7.71762 6.52146C7.71819 6.48879 7.72934 6.45717 7.74941 6.43138C7.76947 6.40558 7.79736 6.38699 7.82889 6.37839C12.1531 5.28215 16.6239 4.87974 21.0744 5.18618C21.1085 5.18847 21.1409 5.20229 21.1662 5.2254C21.1914 5.24851 21.2081 5.27952 21.2134 5.31335C21.2394 5.52557 21.2474 5.7396 21.2373 5.95317C21.2308 6.15086 21.2387 6.34878 21.2611 6.54531C21.2668 6.58481 21.2566 6.62497 21.2328 6.65699C21.209 6.68901 21.1734 6.71029 21.134 6.71619C21.1146 6.71898 21.0949 6.71789 21.076 6.71298C21.0571 6.70808 21.0394 6.69945 21.0238 6.68761C21.0083 6.67577 20.9953 6.66095 20.9855 6.64403C20.9758 6.6271 20.9695 6.6084 20.9671 6.58901C20.9418 6.37674 20.9325 6.16287 20.9392 5.9492C20.9474 5.79167 20.9474 5.63382 20.9392 5.47629C16.599 5.18467 12.2398 5.57352 8.01965 6.62876C8.01965 6.81156 8.01965 6.96655 8.01965 7.12551C8.01965 7.28447 8.01965 7.52292 8.01965 7.73752C8.02075 7.75835 8.01753 7.77918 8.01019 7.7987C8.00284 7.81822 7.99153 7.836 7.97697 7.85094C7.96241 7.86587 7.94492 7.87763 7.92559 7.88546C7.90626 7.8933 7.88551 7.89705 7.86466 7.89648Z" fill="black"/>
<path d="M23.0415 22.2864C18.1494 22.652 13.1978 22.8706 8.30573 23.2322C8.24214 23.0309 8.18253 22.8282 8.12689 22.6242C6.7747 17.8369 6.58396 12.7961 7.57053 7.92025C12.0652 7.16915 16.5638 6.48165 21.118 6.46973C21.118 6.4896 21.118 6.50947 21.1379 6.53331C21.8126 8.92455 22.3042 11.3637 22.6083 13.8296C22.9576 16.6343 23.1024 19.4607 23.0415 22.2864Z" fill="#E6DAFC"/>
<path d="M8.30576 23.3793C8.27423 23.3786 8.24365 23.3684 8.21808 23.35C8.19252 23.3315 8.1732 23.3057 8.16269 23.2759C8.09911 23.0693 8.0395 22.8785 7.98386 22.6639C6.62499 17.8519 6.43426 12.7851 7.4275 7.88451C7.43374 7.85525 7.44832 7.82842 7.46948 7.80726C7.49063 7.78611 7.51746 7.77152 7.54672 7.76528C12.089 7.00624 16.54 6.32669 21.1181 6.31079C21.1496 6.31142 21.1802 6.32163 21.2057 6.34009C21.2313 6.35855 21.2506 6.38438 21.2611 6.41411C21.2593 6.42862 21.2593 6.44331 21.2611 6.45783C21.9404 8.86479 22.4359 11.3198 22.7434 13.8018C23.0931 16.6172 23.2392 19.454 23.1806 22.2904C23.1789 22.3275 23.1639 22.3628 23.1383 22.3898C23.1128 22.4167 23.0784 22.4337 23.0415 22.4374C20.5657 22.6202 18.0302 22.7712 15.5822 22.9143C13.1342 23.0574 10.718 23.2004 8.30576 23.3793ZM7.69773 8.04347C6.73879 12.8664 6.93488 17.8478 8.26999 22.5805C8.31768 22.7474 8.36139 22.9103 8.41306 23.0733C10.7975 22.8984 13.2256 22.7554 15.5663 22.6163C17.907 22.4772 20.4584 22.3301 22.8865 22.1513C22.9407 19.3746 22.7959 16.5976 22.4533 13.8416C22.1516 11.3974 21.6654 8.97962 20.9988 6.60884C16.5241 6.63666 12.1526 7.30032 7.69773 8.04347Z" fill="black"/>
<path d="M22.6083 13.8217C18.0938 16.7744 12.6732 19.6675 8.12688 22.6242C7.45794 20.2687 7.07107 17.8422 6.97441 15.3954C10.7696 12.3474 16.9095 8.83033 21.1379 6.52539C21.8126 8.91663 22.3042 11.3558 22.6083 13.8217Z" fill="#CCBEE3"/>
<path d="M8.12696 22.7712H8.0753C8.0534 22.7628 8.03374 22.7495 8.01788 22.7323C8.00201 22.715 7.99038 22.6943 7.9839 22.6718C7.31278 20.3059 6.92459 17.8687 6.82745 15.4113C6.82509 15.3876 6.82899 15.3638 6.83876 15.3422C6.84853 15.3206 6.86381 15.3019 6.88309 15.2881C9.81195 12.9354 14.5808 9.94695 21.0664 6.40211C21.0862 6.39231 21.1079 6.38721 21.13 6.38721C21.1521 6.38721 21.1738 6.39231 21.1936 6.40211C21.214 6.41099 21.2324 6.42408 21.2474 6.44051C21.2625 6.45694 21.2739 6.47636 21.281 6.4975C21.9561 8.89694 22.449 11.344 22.7554 13.8177C22.7593 13.8451 22.7555 13.8731 22.7442 13.8984C22.733 13.9237 22.7148 13.9453 22.6918 13.9607C20.4067 15.455 17.8475 16.9572 15.3716 18.4117C12.8958 19.8661 10.4478 21.3048 8.21837 22.7632C8.1896 22.7758 8.15747 22.7786 8.12696 22.7712ZM7.12551 15.4828C7.22637 17.8254 7.59165 20.149 8.21439 22.4095C10.42 20.9789 12.86 19.5482 15.2206 18.1613C17.6646 16.7227 20.1921 15.2404 22.4494 13.766C22.1547 11.3924 21.6845 9.04396 21.0426 6.73991C14.704 10.2172 10.0226 13.15 7.12551 15.4828Z" fill="black"/>
<path d="M9.47804 24.0269C9.43972 24.0269 9.40291 24.012 9.37544 23.9852C9.34798 23.9585 9.33203 23.9221 9.331 23.8838L9.29523 23.1526C9.29409 23.1139 9.3079 23.0762 9.33379 23.0473C9.35968 23.0185 9.39568 23.0007 9.43432 22.9976C9.47412 22.9965 9.51284 23.0107 9.54243 23.0373C9.57203 23.064 9.59024 23.101 9.59329 23.1407L9.62905 23.8719C9.63014 23.9113 9.61579 23.9496 9.58906 23.9785C9.56233 24.0075 9.52534 24.0248 9.48599 24.0269H9.47804Z" fill="black"/>
<path d="M10.3841 24.0468C10.3454 24.0457 10.3086 24.0299 10.2812 24.0026C10.2539 23.9752 10.2381 23.9384 10.2371 23.8997L10.2132 23.1526C10.2121 23.1132 10.2265 23.075 10.2532 23.046C10.2799 23.017 10.3169 22.9997 10.3563 22.9976C10.3957 22.9965 10.4339 23.0109 10.4629 23.0376C10.4918 23.0643 10.5092 23.1013 10.5113 23.1407L10.5351 23.8918C10.5352 23.9309 10.5205 23.9686 10.494 23.9974C10.4675 24.0261 10.4311 24.0437 10.392 24.0468H10.3841Z" fill="black"/>
<path d="M11.4214 23.9316C11.4021 23.9321 11.3829 23.9288 11.3648 23.9219C11.3468 23.915 11.3303 23.9046 11.3163 23.8913C11.3022 23.8781 11.291 23.8621 11.2831 23.8445C11.2752 23.8269 11.2709 23.8078 11.2704 23.7885L11.2426 23.0772C11.2415 23.0378 11.2558 22.9995 11.2826 22.9706C11.3093 22.9416 11.3463 22.9242 11.3856 22.9222C11.425 22.9211 11.4633 22.9354 11.4923 22.9622C11.5212 22.9889 11.5386 23.0259 11.5406 23.0652L11.5684 23.7806C11.5695 23.8 11.5666 23.8195 11.5599 23.8378C11.5532 23.8561 11.5429 23.8728 11.5295 23.8869C11.5161 23.901 11.4999 23.9123 11.482 23.92C11.4641 23.9277 11.4449 23.9316 11.4254 23.9316H11.4214Z" fill="black"/>
<path d="M12.5183 24.0072C12.48 24.0072 12.4432 23.9923 12.4157 23.9656C12.3882 23.9388 12.3723 23.9025 12.3712 23.8642L12.3474 22.966C12.3463 22.9464 12.3492 22.9267 12.3559 22.9082C12.3625 22.8897 12.3728 22.8727 12.3862 22.8583C12.3995 22.8438 12.4156 22.8322 12.4335 22.8241C12.4514 22.816 12.4708 22.8115 12.4905 22.811C12.5302 22.811 12.5685 22.8262 12.5973 22.8536C12.6262 22.8809 12.6434 22.9184 12.6455 22.9581L12.6693 23.8562C12.6698 23.8759 12.6664 23.8954 12.6593 23.9137C12.6521 23.932 12.6414 23.9487 12.6277 23.9628C12.614 23.9768 12.5976 23.988 12.5795 23.9957C12.5614 24.0033 12.5419 24.0072 12.5223 24.0072H12.5183Z" fill="black"/>
<path d="M13.6189 23.876C13.5806 23.876 13.5438 23.861 13.5164 23.8343C13.4889 23.8076 13.4729 23.7712 13.4719 23.7329L13.4361 22.8904C13.4351 22.8708 13.438 22.8511 13.4446 22.8326C13.4513 22.8141 13.4616 22.7971 13.4749 22.7827C13.4883 22.7682 13.5044 22.7566 13.5223 22.7485C13.5402 22.7404 13.5596 22.7359 13.5792 22.7354C13.6186 22.7343 13.6569 22.7487 13.6858 22.7754C13.7148 22.8021 13.7321 22.8391 13.7342 22.8785L13.77 23.721C13.771 23.7406 13.7682 23.7603 13.7615 23.7788C13.7548 23.7973 13.7445 23.8143 13.7312 23.8287C13.7178 23.8432 13.7017 23.8548 13.6838 23.8629C13.6659 23.871 13.6466 23.8755 13.6269 23.876H13.6189Z" fill="black"/>
<path d="M14.5251 23.8283C14.4868 23.8283 14.45 23.8134 14.4226 23.7866C14.3951 23.7599 14.3791 23.7235 14.3781 23.6852L14.3503 22.8388C14.3492 22.8193 14.3521 22.7999 14.3588 22.7816C14.3655 22.7633 14.3759 22.7465 14.3893 22.7324C14.4027 22.7183 14.4188 22.707 14.4367 22.6993C14.4546 22.6917 14.4739 22.6877 14.4934 22.6877C14.5325 22.6876 14.5702 22.7023 14.5989 22.7288C14.6277 22.7554 14.6453 22.7918 14.6483 22.8308L14.6762 23.6733C14.6773 23.7127 14.6629 23.751 14.6362 23.7799C14.6094 23.8089 14.5725 23.8262 14.5331 23.8283H14.5251Z" fill="black"/>
<path d="M15.7094 23.7647C15.6718 23.7648 15.6355 23.7504 15.6082 23.7245C15.5808 23.6986 15.5644 23.6632 15.5624 23.6256L15.5107 22.8308C15.5096 22.791 15.5238 22.7523 15.5504 22.7227C15.5771 22.6931 15.6141 22.6749 15.6538 22.6718C15.6734 22.6708 15.6931 22.6737 15.7116 22.6803C15.7301 22.687 15.7471 22.6973 15.7615 22.7106C15.776 22.724 15.7876 22.7401 15.7957 22.758C15.8038 22.7759 15.8083 22.7953 15.8088 22.8149L15.8565 23.6097C15.8581 23.6294 15.8557 23.6491 15.8496 23.6678C15.8434 23.6865 15.8335 23.7038 15.8206 23.7187C15.8076 23.7335 15.7918 23.7456 15.774 23.7541C15.7563 23.7627 15.737 23.7677 15.7174 23.7687L15.7094 23.7647Z" fill="black"/>
<path d="M16.7585 23.7092C16.7218 23.7084 16.6866 23.6942 16.6595 23.6694C16.6324 23.6445 16.6154 23.6106 16.6115 23.574L16.532 22.7792C16.5298 22.7596 16.5316 22.7397 16.5373 22.7208C16.5429 22.7019 16.5524 22.6843 16.565 22.6691C16.5776 22.6538 16.5931 22.6413 16.6107 22.6323C16.6282 22.6232 16.6474 22.6178 16.6671 22.6163C16.706 22.6129 16.7446 22.6246 16.775 22.6491C16.8053 22.6735 16.8251 22.7088 16.8301 22.7474L16.9095 23.5422C16.9129 23.5817 16.9006 23.6209 16.8753 23.6513C16.85 23.6818 16.8138 23.7012 16.7744 23.7052L16.7585 23.7092Z" fill="black"/>
<path d="M17.911 23.5224C17.8738 23.5218 17.8381 23.5078 17.8103 23.483C17.7826 23.4582 17.7647 23.4242 17.76 23.3873L17.6845 22.6919C17.6811 22.653 17.6928 22.6144 17.7173 22.584C17.7417 22.5536 17.7769 22.5339 17.8156 22.5289C17.8549 22.5254 17.894 22.5371 17.925 22.5614C17.956 22.5858 17.9766 22.6211 17.9825 22.6601L18.058 23.3555C18.0602 23.3748 18.0586 23.3944 18.0532 23.4131C18.0477 23.4318 18.0387 23.4492 18.0265 23.4644C18.0143 23.4795 17.9992 23.4921 17.9821 23.5014C17.965 23.5107 17.9462 23.5165 17.9269 23.5185L17.911 23.5224Z" fill="black"/>
<path d="M18.9283 23.6178C18.8911 23.6171 18.8553 23.6031 18.8276 23.5783C18.7999 23.5535 18.782 23.5196 18.7772 23.4827L18.6898 22.6561C18.6876 22.6364 18.6894 22.6166 18.6951 22.5976C18.7007 22.5787 18.7102 22.5611 18.7228 22.5459C18.7354 22.5307 18.7509 22.5182 18.7685 22.5091C18.786 22.5 18.8052 22.4946 18.8249 22.4931C18.8443 22.4909 18.8638 22.4926 18.8825 22.498C18.9012 22.5034 18.9186 22.5125 18.9338 22.5247C18.949 22.5369 18.9615 22.552 18.9708 22.5691C18.9801 22.5862 18.9859 22.6049 18.9879 22.6243L19.0753 23.4509C19.0775 23.4705 19.0757 23.4904 19.07 23.5093C19.0644 23.5282 19.055 23.5458 19.0424 23.561C19.0297 23.5762 19.0142 23.5888 18.9966 23.5978C18.9791 23.6069 18.9599 23.6123 18.9402 23.6138L18.9283 23.6178Z" fill="black"/>
<path d="M20.057 23.562C20.0188 23.5644 19.9811 23.5521 19.9516 23.5278C19.9221 23.5035 19.903 23.4688 19.898 23.4309L19.747 22.6003C19.7433 22.5813 19.7435 22.5617 19.7474 22.5427C19.7513 22.5237 19.7589 22.5057 19.7698 22.4896C19.7807 22.4736 19.7946 22.4598 19.8108 22.4491C19.827 22.4385 19.8452 22.4311 19.8642 22.4275C19.8833 22.4238 19.9028 22.4239 19.9218 22.4278C19.9408 22.4318 19.9589 22.4394 19.9749 22.4503C19.991 22.4612 20.0047 22.4751 20.0154 22.4913C20.0261 22.5075 20.0334 22.5256 20.0371 22.5447L20.1921 23.3792C20.1961 23.3986 20.1962 23.4185 20.1923 23.4379C20.1884 23.4573 20.1807 23.4757 20.1696 23.492C20.1585 23.5083 20.1442 23.5222 20.1275 23.5329C20.1109 23.5435 20.0923 23.5508 20.0729 23.5541L20.057 23.562Z" fill="black"/>
<path d="M21.13 23.3514C21.094 23.3526 21.0588 23.3402 21.0315 23.3166C21.0043 23.2931 20.9869 23.2601 20.9829 23.2243L20.8876 22.5447C20.883 22.5058 20.8937 22.4667 20.9174 22.4355C20.9411 22.4044 20.976 22.3837 21.0147 22.3778C21.0541 22.3731 21.0937 22.3837 21.1255 22.4074C21.1573 22.431 21.1788 22.4659 21.1856 22.505L21.277 23.1845C21.2816 23.2234 21.2709 23.2625 21.2472 23.2937C21.2234 23.3248 21.1885 23.3455 21.1498 23.3514H21.13Z" fill="black"/>
<path d="M21.9725 23.3713C21.9361 23.3716 21.9009 23.3583 21.8738 23.334C21.8466 23.3098 21.8294 23.2764 21.8254 23.2402L21.734 22.4454C21.7306 22.4066 21.7424 22.3679 21.7668 22.3375C21.7913 22.3072 21.8265 22.2874 21.8652 22.2825C21.8848 22.2797 21.9048 22.2809 21.924 22.2861C21.9431 22.2912 21.961 22.3002 21.9766 22.3124C21.9922 22.3247 22.0052 22.34 22.0147 22.3573C22.0242 22.3747 22.0301 22.3939 22.0321 22.4136L22.1235 23.2084C22.127 23.2477 22.1154 23.2868 22.091 23.3178C22.0666 23.3489 22.0313 23.3694 21.9924 23.3753L21.9725 23.3713Z" fill="black"/>
<path d="M8.84223 7.84068C8.80352 7.84074 8.76627 7.82593 8.73816 7.7993C8.71006 7.77268 8.69326 7.73628 8.69122 7.69762L8.65545 6.85909C8.65124 6.8201 8.66268 6.78102 8.68728 6.75047C8.71187 6.71991 8.7476 6.70039 8.7866 6.69617C8.82559 6.69195 8.86467 6.7034 8.89522 6.72799C8.92578 6.75259 8.94531 6.78831 8.94953 6.82731V6.87499C8.95351 6.896 8.95351 6.91757 8.94953 6.93858L8.98132 7.6857C8.98246 7.72445 8.96866 7.76216 8.94277 7.79101C8.91687 7.81986 8.88088 7.83764 8.84223 7.84068Z" fill="black"/>
<path d="M9.93505 7.63414C9.8983 7.63338 9.86309 7.61922 9.83602 7.59435C9.80895 7.56947 9.79188 7.53558 9.78802 7.49902L9.72046 6.74793C9.71827 6.72829 9.72005 6.70842 9.72572 6.68949C9.73138 6.67057 9.74079 6.65297 9.7534 6.63776C9.76602 6.62255 9.78157 6.61004 9.79912 6.60097C9.81667 6.59191 9.83587 6.58647 9.85557 6.58499C9.8948 6.58266 9.93345 6.59532 9.9637 6.6204C9.99395 6.64549 10.0135 6.68114 10.0185 6.72012L10.0861 7.4712C10.0883 7.51104 10.0751 7.55022 10.0492 7.58057C10.0233 7.61092 9.98668 7.63011 9.94698 7.63414H9.93505Z" fill="black"/>
<path d="M10.7577 7.46336C10.7219 7.46369 10.6872 7.45095 10.6602 7.42754C10.6331 7.40413 10.6155 7.37165 10.6107 7.33619L10.5232 6.69638C10.5218 6.65881 10.5344 6.62205 10.5586 6.59329C10.5828 6.56454 10.6169 6.54584 10.6542 6.54088C10.6915 6.53591 10.7292 6.54502 10.7601 6.56643C10.791 6.58784 10.8128 6.62 10.8213 6.65664L10.9047 7.29645C10.9093 7.33533 10.8986 7.37446 10.8749 7.4056C10.8512 7.43674 10.8163 7.45745 10.7776 7.46336H10.7577Z" fill="black"/>
<path d="M11.7036 7.35187C11.6689 7.3525 11.6352 7.34088 11.6083 7.31907C11.5814 7.29726 11.5631 7.26665 11.5565 7.23265L11.4254 6.53322C11.4186 6.51278 11.4162 6.49112 11.4185 6.4697C11.4207 6.44827 11.4275 6.42757 11.4385 6.409C11.4494 6.39042 11.4641 6.3744 11.4817 6.362C11.4994 6.3496 11.5194 6.34111 11.5406 6.3371C11.5618 6.3331 11.5835 6.33367 11.6045 6.33878C11.6254 6.34389 11.645 6.35342 11.6619 6.36672C11.6789 6.38003 11.6928 6.3968 11.7027 6.41592C11.7126 6.43504 11.7183 6.45607 11.7195 6.47758L11.8506 7.17702C11.8566 7.21584 11.8476 7.2555 11.8255 7.28796C11.8034 7.32042 11.7697 7.34327 11.7314 7.35187H11.7036Z" fill="black"/>
<path d="M12.4904 7.26058C12.456 7.26044 12.4226 7.24855 12.3959 7.22686C12.3691 7.20518 12.3506 7.17502 12.3434 7.14136L12.1884 6.42603C12.1837 6.38856 12.1931 6.35067 12.215 6.31985C12.2368 6.28902 12.2694 6.26749 12.3063 6.25951C12.3432 6.25153 12.3818 6.25768 12.4144 6.27673C12.447 6.29579 12.4713 6.32636 12.4825 6.36244L12.6374 7.07778C12.6447 7.11666 12.6368 7.15684 12.6154 7.19009C12.5939 7.22334 12.5606 7.24713 12.5222 7.2566L12.4904 7.26058Z" fill="black"/>
<path d="M13.4879 7.08968C13.4533 7.0903 13.4195 7.07868 13.3926 7.05687C13.3657 7.03506 13.3474 7.00446 13.3409 6.97045L13.2097 6.33064C13.2025 6.29175 13.2104 6.25157 13.2318 6.21832C13.2532 6.18507 13.2866 6.16127 13.325 6.1518C13.3639 6.14479 13.4041 6.15336 13.4368 6.17566C13.4695 6.19795 13.4921 6.23221 13.4998 6.27103L13.631 6.91084C13.6356 6.92994 13.6363 6.94978 13.6329 6.96914C13.6295 6.9885 13.6222 7.00695 13.6114 7.02335C13.6006 7.03976 13.5865 7.05376 13.5701 7.06449C13.5536 7.07522 13.5351 7.08244 13.5157 7.0857L13.4879 7.08968Z" fill="black"/>
<path d="M14.2826 6.95849C14.2476 6.95817 14.2139 6.94571 14.187 6.92325C14.1602 6.90078 14.142 6.86968 14.1356 6.83529L14.0203 6.1756C14.0169 6.15603 14.0174 6.13598 14.0217 6.11659C14.0261 6.0972 14.0342 6.07885 14.0456 6.06261C14.0571 6.04636 14.0716 6.03253 14.0884 6.02192C14.1052 6.0113 14.124 6.00412 14.1435 6.00076C14.1629 5.99736 14.1827 5.99786 14.2018 6.00225C14.221 6.00664 14.239 6.01482 14.255 6.0263C14.2709 6.03778 14.2844 6.05234 14.2946 6.06911C14.3048 6.08588 14.3115 6.10453 14.3144 6.12395L14.4297 6.78363C14.4367 6.82258 14.4281 6.86275 14.4058 6.89545C14.3835 6.92815 14.3493 6.95078 14.3104 6.95849H14.2826Z" fill="black"/>
<path d="M15.1927 6.90301C15.1595 6.9022 15.1275 6.89048 15.1017 6.86964C15.0758 6.84881 15.0575 6.82003 15.0497 6.78776L14.8629 6.05256C14.8581 6.03377 14.8571 6.01423 14.86 5.99506C14.8628 5.97588 14.8694 5.95746 14.8794 5.94084C14.8893 5.92422 14.9025 5.90972 14.9181 5.89821C14.9337 5.88669 14.9514 5.87838 14.9702 5.87373C15.0087 5.86403 15.0494 5.86983 15.0836 5.88991C15.1178 5.90999 15.1427 5.94272 15.153 5.98103L15.3398 6.71623C15.3445 6.73502 15.3455 6.75456 15.3427 6.77374C15.3399 6.79291 15.3333 6.81134 15.3233 6.82796C15.3133 6.84458 15.3002 6.85906 15.2846 6.87058C15.269 6.88209 15.2513 6.89042 15.2325 6.89506L15.1927 6.90301Z" fill="black"/>
<path d="M16.0471 6.8273C16.0129 6.82778 15.9798 6.81602 15.9535 6.79416C15.9273 6.77229 15.9097 6.74176 15.904 6.70809L15.7689 6.00865C15.7619 5.9697 15.7705 5.92955 15.7928 5.89684C15.8151 5.86414 15.8493 5.8415 15.8881 5.83379C15.9072 5.82973 15.9269 5.8295 15.946 5.83311C15.9652 5.83673 15.9834 5.84411 15.9997 5.85483C16.016 5.86556 16.0299 5.87941 16.0408 5.89558C16.0517 5.91176 16.0592 5.92993 16.063 5.94904L16.1941 6.65244C16.1982 6.67126 16.1984 6.6907 16.1947 6.70959C16.1911 6.72848 16.1836 6.74644 16.1729 6.76239C16.1621 6.77835 16.1482 6.79197 16.1321 6.80244C16.1159 6.81291 16.0979 6.82001 16.0789 6.82332L16.0471 6.8273Z" fill="black"/>
<path d="M16.7466 6.69625C16.7105 6.69561 16.6758 6.68201 16.6488 6.65795C16.6218 6.63388 16.6043 6.60094 16.5996 6.5651L16.5161 5.94515C16.5133 5.92581 16.5144 5.90611 16.5193 5.8872C16.5242 5.86829 16.5329 5.85056 16.5447 5.83502C16.5565 5.81948 16.5714 5.80645 16.5883 5.79671C16.6052 5.78696 16.6239 5.78067 16.6433 5.77823C16.6627 5.77486 16.6826 5.77554 16.7017 5.78021C16.7209 5.78488 16.7388 5.79345 16.7545 5.80539C16.7702 5.81733 16.7832 5.83237 16.7928 5.84958C16.8024 5.86679 16.8083 5.8858 16.8102 5.90541L16.8976 6.52535C16.9022 6.56528 16.8911 6.60543 16.8666 6.63731C16.8421 6.66919 16.8062 6.69032 16.7665 6.69625H16.7466Z" fill="black"/>
<path d="M17.462 6.68035C17.427 6.68002 17.3932 6.66756 17.3664 6.64509C17.3395 6.62262 17.3214 6.59154 17.3149 6.55715L17.1957 5.89746C17.1887 5.8585 17.1973 5.81836 17.2196 5.78565C17.2419 5.75295 17.2761 5.73031 17.3149 5.7226C17.3539 5.71559 17.394 5.72416 17.4267 5.74646C17.4594 5.76875 17.4821 5.80299 17.4898 5.84182L17.609 6.50549C17.6124 6.52454 17.6121 6.54409 17.6079 6.563C17.6038 6.58191 17.596 6.59982 17.5849 6.61569C17.5738 6.63157 17.5597 6.64509 17.5434 6.65551C17.5271 6.66592 17.5088 6.67301 17.4898 6.67637L17.462 6.68035Z" fill="black"/>
<path d="M18.2091 6.64066C18.1723 6.63989 18.1371 6.62574 18.11 6.60087C18.0829 6.57599 18.0659 6.5421 18.062 6.50554L17.9984 5.88559C17.9936 5.86462 17.9933 5.84285 17.9976 5.82175C18.0019 5.80066 18.0106 5.78071 18.0232 5.76326C18.0358 5.74581 18.052 5.73126 18.0707 5.72058C18.0894 5.7099 18.1101 5.70334 18.1316 5.70134C18.153 5.69934 18.1746 5.70194 18.195 5.70898C18.2153 5.71601 18.2339 5.72732 18.2495 5.74213C18.2651 5.75695 18.2774 5.77493 18.2855 5.79488C18.2936 5.81482 18.2974 5.83626 18.2965 5.85777L18.3561 6.47772C18.3595 6.51656 18.3477 6.55521 18.3233 6.58557C18.2989 6.61594 18.2636 6.63568 18.2249 6.64066H18.2091Z" fill="black"/>
<path d="M18.9164 6.52932C18.8781 6.52933 18.8413 6.5144 18.8138 6.48767C18.7864 6.46095 18.7704 6.42455 18.7694 6.38625L18.7336 5.80604C18.7301 5.78443 18.7313 5.76232 18.7371 5.74122C18.743 5.72012 18.7534 5.70054 18.7675 5.68386C18.7817 5.66717 18.7993 5.65377 18.8192 5.64457C18.8391 5.63538 18.8607 5.63062 18.8826 5.63062C18.9045 5.63062 18.9262 5.63538 18.946 5.64457C18.9659 5.65377 18.9835 5.66717 18.9977 5.68386C19.0119 5.70054 19.0223 5.72012 19.0281 5.74122C19.034 5.76232 19.0352 5.78443 19.0317 5.80604L19.0674 6.38625C19.0686 6.42605 19.0543 6.46477 19.0277 6.49437C19.0011 6.52396 18.9641 6.54217 18.9244 6.54522L18.9164 6.52932Z" fill="black"/>
<path d="M19.9655 6.50946C19.93 6.50897 19.8957 6.49594 19.8688 6.47267C19.8419 6.44941 19.8241 6.4174 19.8185 6.38229L19.735 5.81797C19.7292 5.77897 19.7392 5.73927 19.7626 5.70759C19.7861 5.67592 19.8212 5.65487 19.8602 5.64908C19.8992 5.64328 19.9389 5.65322 19.9706 5.67669C20.0023 5.70017 20.0233 5.73526 20.0291 5.77426L20.1126 6.33857C20.1183 6.37748 20.1087 6.41712 20.0857 6.44904C20.0627 6.48095 20.0281 6.50264 19.9894 6.50946H19.9655Z" fill="black"/>
<path d="M9.36674 16.8261C9.53763 17.0287 9.71646 16.8817 10.1099 16.7784C10.2913 16.6994 10.4944 16.6856 10.6849 16.7392C10.8753 16.7927 11.0414 16.9105 11.1551 17.0724C11.2519 17.2846 11.2647 17.5255 11.1909 17.7467C11.1172 17.968 10.9624 18.153 10.7577 18.2647C10.5957 18.3657 10.4041 18.4082 10.2146 18.3851C10.0251 18.362 9.8493 18.2746 9.71646 18.1375C9.68669 18.0777 9.68124 18.0087 9.70124 17.945C9.72125 17.8813 9.76515 17.8278 9.82375 17.7957C9.86229 17.7752 9.90528 17.7645 9.94894 17.7645C9.9926 17.7645 10.0356 17.7752 10.0741 17.7957C10.1386 17.8334 10.212 17.8533 10.2867 17.8533C10.3615 17.8533 10.4348 17.8334 10.4993 17.7957C10.5948 17.7398 10.67 17.6549 10.7139 17.5533C10.7333 17.513 10.7434 17.4689 10.7434 17.4241C10.7434 17.3794 10.7333 17.3353 10.7139 17.295C10.5947 17.0804 9.99464 17.3546 9.85555 17.3864C9.68146 17.4474 9.49121 17.4436 9.31969 17.3757C9.14816 17.3078 9.00685 17.1804 8.92165 17.0168C8.80249 16.7772 8.7772 16.5016 8.85072 16.2443C8.92424 15.987 9.09128 15.7664 9.31905 15.6259C9.51721 15.5206 9.74909 15.4982 9.96371 15.5638C10.1783 15.6294 10.3581 15.7775 10.4636 15.9756C10.5788 16.1862 10.5192 16.3333 10.404 16.3969C10.3731 16.4151 10.3388 16.4266 10.3031 16.4306C10.2675 16.4347 10.2315 16.4311 10.1973 16.4202C10.1632 16.4094 10.1317 16.3914 10.105 16.3675C10.0783 16.3436 10.0569 16.3143 10.0423 16.2816C9.93105 16.0154 9.73235 15.9836 9.56942 16.071C9.50444 16.1052 9.44724 16.1524 9.4014 16.2098C9.35555 16.2671 9.32207 16.3333 9.30303 16.4042C9.284 16.4751 9.27983 16.5492 9.2908 16.6218C9.30176 16.6944 9.32762 16.7639 9.36674 16.8261Z" fill="black"/>
<path d="M10.9724 16.0869C10.8015 15.7769 10.6544 15.4511 10.4955 15.1371C10.4648 15.076 10.4583 15.0056 10.4775 14.9399C10.4967 14.8743 10.54 14.8184 10.5988 14.7834C10.6587 14.7531 10.728 14.747 10.7923 14.7662C10.8566 14.7854 10.9111 14.8285 10.9446 14.8867C11.1035 15.2007 11.2426 15.5266 11.4135 15.8326C11.485 15.9597 11.5605 16.079 11.64 16.1942C11.8626 16.4724 12.3553 16.8936 12.7329 16.687C13.0269 16.4366 12.9435 16.1227 12.8123 15.7769C12.6931 15.4987 12.4428 15.0099 12.2918 14.7317C12.2401 14.6364 12.1924 14.5728 12.1765 14.537C12.13 14.4947 12.0991 14.4379 12.089 14.3759C12.0789 14.3138 12.0901 14.2501 12.1209 14.1953C12.1468 14.1568 12.1807 14.1242 12.2202 14.0999C12.2607 14.0765 12.3066 14.0642 12.3533 14.0642C12.4001 14.0642 12.446 14.0765 12.4865 14.0999C12.5848 14.2332 12.6724 14.3741 12.7488 14.5211C12.9276 14.839 13.1183 15.2245 13.1462 15.2762C13.3622 15.6343 13.4583 16.0519 13.4204 16.4684C13.3948 16.6115 13.3381 16.7472 13.2543 16.866C13.1706 16.9848 13.0617 17.0838 12.9355 17.1559C12.3514 17.4778 11.5724 16.9811 11.2108 16.4684C11.1194 16.3373 11.0439 16.2141 10.9724 16.0869Z" fill="black"/>
<path d="M13.4998 15.1331C13.1779 14.5489 13.1302 13.5435 13.7859 13.146C13.8486 13.1154 13.9137 13.0902 13.9806 13.0705C14.4337 12.9473 14.6642 13.0467 14.7397 13.1858C14.7715 13.2456 14.7789 13.3155 14.7604 13.3806C14.7419 13.4458 14.6989 13.5013 14.6403 13.5355C14.6083 13.5516 14.5729 13.56 14.537 13.56C14.5011 13.56 14.4657 13.5516 14.4337 13.5355C14.376 13.5238 14.3165 13.5238 14.2588 13.5355C14.1773 13.5466 14.0982 13.5708 14.0244 13.607C13.8574 13.7024 13.7462 13.9011 13.7819 14.3422C13.8131 14.5349 13.8748 14.7214 13.9647 14.8946C14.0025 14.9908 14.0598 15.0782 14.133 15.1511C14.2063 15.224 14.2938 15.2809 14.3902 15.3183C14.4866 15.3556 14.5896 15.3726 14.6929 15.3681C14.7961 15.3635 14.8973 15.3377 14.99 15.292C15.0893 15.2329 15.1746 15.1529 15.2398 15.0575C15.305 14.9621 15.3486 14.8536 15.3676 14.7396C15.3872 14.6722 15.3872 14.6005 15.3676 14.533C15.2205 14.2627 14.4615 15.1251 14.2429 14.68C14.2271 14.6512 14.2172 14.6194 14.2138 14.5867C14.2104 14.5539 14.2136 14.5208 14.2233 14.4893C14.2329 14.4578 14.2487 14.4286 14.2699 14.4033C14.291 14.3781 14.317 14.3573 14.3462 14.3422C14.4626 14.2977 14.5755 14.2445 14.684 14.1833C15.0814 13.9687 15.5345 13.8177 15.8047 14.3065C16.075 14.7953 15.7093 15.4987 15.2285 15.757C15.0744 15.8317 14.9069 15.8749 14.7359 15.8839C14.5648 15.8929 14.3937 15.8675 14.2326 15.8094C14.0715 15.7513 13.9237 15.6615 13.7978 15.5453C13.672 15.4292 13.5706 15.289 13.4998 15.1331Z" fill="black"/>
<path d="M16.6671 14.1635C16.6895 14.3269 16.7214 14.4887 16.7625 14.6484C16.7834 14.6984 16.7879 14.7537 16.7756 14.8065C16.7633 14.8593 16.7346 14.9069 16.6937 14.9425C16.6528 14.9781 16.6018 15 16.5478 15.0049C16.4938 15.0099 16.4396 14.9978 16.3929 14.9703C16.2578 14.8908 16.2538 14.7437 16.1744 14.3026C15.8684 12.6057 15.7173 12.1288 16.1227 11.8387C16.7267 11.5963 17.2314 12.2163 18.5786 13.3568C18.6085 13.3729 18.6347 13.3949 18.6558 13.4214C18.6769 13.448 18.6923 13.4785 18.7012 13.5112C18.7102 13.5439 18.7123 13.5781 18.7077 13.6117C18.703 13.6452 18.6915 13.6775 18.674 13.7065C18.6505 13.7446 18.6177 13.7761 18.5786 13.7979C18.5405 13.8195 18.4973 13.8309 18.4535 13.8309C18.4096 13.8309 18.3665 13.8195 18.3283 13.7979C18.1418 13.6578 17.9639 13.5065 17.7958 13.3449C17.6328 13.4959 16.7188 14.1238 16.6671 14.1635ZM17.4063 13.0071C17.1877 12.8243 16.6115 12.2957 16.3889 12.2838C16.3941 12.7327 16.4515 13.1795 16.5598 13.6151C16.8569 13.434 17.1398 13.2307 17.4063 13.0071Z" fill="black"/>
<path d="M17.8633 11.2226C17.8254 11.2006 17.7939 11.169 17.772 11.131C17.7501 11.093 17.7385 11.0498 17.7385 11.006C17.7385 10.9621 17.7501 10.919 17.772 10.881C17.7939 10.843 17.8254 10.8114 17.8633 10.7894C18.066 10.6781 18.2607 10.5748 18.4793 10.4794C19.0953 10.2211 19.7589 10.3364 19.8941 10.8371C19.918 11.043 19.8947 11.2518 19.8258 11.4473C19.7569 11.6429 19.6444 11.8202 19.4966 11.9657C19.9222 12.0045 20.3398 12.1049 20.7365 12.2638C20.7651 12.279 20.7902 12.3 20.8104 12.3253C20.8306 12.3506 20.8455 12.3798 20.854 12.411C20.8626 12.4423 20.8647 12.4749 20.8602 12.507C20.8557 12.5391 20.8447 12.5699 20.8279 12.5976C20.8056 12.6366 20.7725 12.6683 20.7326 12.689C20.6952 12.7085 20.6536 12.7187 20.6114 12.7187C20.5692 12.7187 20.5276 12.7085 20.4902 12.689C20.3599 12.6446 20.2272 12.6074 20.0928 12.5777C19.8001 12.4895 19.4963 12.444 19.1906 12.4426L19.0675 12.4227C19.3814 12.9354 19.4649 13.0308 19.5086 13.146C19.5407 13.2037 19.5491 13.2716 19.532 13.3354C19.515 13.3992 19.4738 13.4538 19.4172 13.4878C19.3879 13.5062 19.3553 13.5184 19.3211 13.5238C19.287 13.5292 19.2522 13.5275 19.2187 13.519C19.1852 13.5104 19.1538 13.4951 19.1265 13.474C19.0991 13.453 19.0763 13.4265 19.0595 13.3964C19.0237 13.3089 18.4475 12.4307 18.1018 11.8068C17.9929 11.6253 17.9125 11.4283 17.8633 11.2226ZM19.3655 11.2424C19.4132 11.1192 19.445 11.0159 19.4052 10.9404C19.3655 10.8649 19.2503 10.8291 19.0078 10.849C18.774 10.8874 18.5499 10.9711 18.3482 11.0954C18.399 11.249 18.4684 11.3958 18.5548 11.5325C18.6184 11.6478 18.7098 11.7948 18.8211 11.9975C18.8648 11.8902 18.9045 11.8902 19.1509 11.6001C19.2316 11.4867 19.3034 11.3671 19.3655 11.2424Z" fill="black"/>
<path d="M4.95959 25.5611H4.89601C4.73874 25.544 4.59455 25.4656 4.49483 25.3428C4.3951 25.22 4.3479 25.0628 4.36349 24.9053C4.76089 21.3287 7.24069 18.3919 10.8928 17.1997C11.7633 16.9397 12.6502 16.7379 13.5475 16.5956C15.3 16.2777 16.9532 15.9757 18.0739 14.8431C18.8687 14.0483 19.2661 12.9435 19.6993 11.7791C19.89 11.2585 20.0967 10.722 20.3232 10.1895C21.301 7.94796 23.0833 6.15428 25.3186 5.16234C25.4615 5.10295 25.6219 5.10147 25.7658 5.15819C25.9098 5.21491 26.0261 5.32539 26.0901 5.46628C26.1541 5.60718 26.1608 5.76743 26.1088 5.91317C26.0567 6.05891 25.9501 6.17872 25.8114 6.24725C23.8337 7.13024 22.2605 8.72473 21.4041 10.7141C21.1895 11.187 21.0067 11.6798 20.816 12.2004C20.3669 13.4363 19.898 14.7119 18.9204 15.6975C17.5334 17.0964 15.618 17.4421 13.7541 17.7799C12.9089 17.9121 12.0737 18.102 11.2545 18.3482C8.05536 19.3894 5.86964 21.9566 5.54377 25.0444C5.52469 25.1864 5.45515 25.3167 5.34789 25.4115C5.24062 25.5064 5.10278 25.5595 4.95959 25.5611Z" fill="black"/>
</g>
<defs>
<clipPath id="clip0">
<rect width="30" height="30" fill="white"/>
</clipPath>
</defs>
</svg>
