<svg width="22" height="22" viewBox="0 0 22 22" fill="none" xmlns="http://www.w3.org/2000/svg">
<path fill-rule="evenodd" clip-rule="evenodd" d="M21.8923 10.869C21.8923 13.6599 20.7837 16.3365 18.8102 18.31C16.8367 20.2834 14.1602 21.3921 11.3693 21.3921C8.57837 21.3921 5.90179 20.2834 3.92833 18.31C1.95487 16.3365 0.846191 13.6599 0.846191 10.869C0.846191 8.07813 1.95487 5.40155 3.92833 3.42809C5.90179 1.45463 8.57837 0.345947 11.3693 0.345947C14.1602 0.345947 16.8367 1.45463 18.8102 3.42809C20.7837 5.40155 21.8923 8.07813 21.8923 10.869ZM14 6.92287C14 7.62059 13.7229 8.28974 13.2295 8.7831C12.7361 9.27647 12.067 9.55364 11.3693 9.55364C10.6715 9.55364 10.0024 9.27647 9.50903 8.7831C9.01567 8.28974 8.7385 7.62059 8.7385 6.92287C8.7385 6.22515 9.01567 5.556 9.50903 5.06264C10.0024 4.56927 10.6715 4.2921 11.3693 4.2921C12.067 4.2921 12.7361 4.56927 13.2295 5.06264C13.7229 5.556 14 6.22515 14 6.92287ZM11.3693 12.1844C10.1099 12.1842 8.87698 12.5455 7.81696 13.2254C6.75694 13.9053 5.91443 14.8753 5.38953 16.0201C6.12967 16.8811 7.04727 17.5719 8.07942 18.0451C9.11156 18.5182 10.2338 18.7626 11.3693 18.7613C12.5047 18.7626 13.627 18.5182 14.6591 18.0451C15.6913 17.5719 16.6089 16.8811 17.349 16.0201C16.8241 14.8753 15.9816 13.9053 14.9216 13.2254C13.8616 12.5455 12.6286 12.1842 11.3693 12.1844Z" fill="#82C4F2"/>
</svg>
