<svg width="30" height="30" viewBox="0 0 30 30" fill="none" xmlns="http://www.w3.org/2000/svg">
<g clip-path="url(#clip0_931:799)">
<path d="M15.0019 29.4774C22.9965 29.4774 29.4774 22.9965 29.4774 15.0019C29.4774 7.00727 22.9965 0.526367 15.0019 0.526367C7.00727 0.526367 0.526367 7.00727 0.526367 15.0019C0.526367 22.9965 7.00727 29.4774 15.0019 29.4774Z" fill="#8E83C7"/>
<path d="M14.9983 30.0001C12.0305 30.0001 9.12932 29.1198 6.66191 27.4706C4.19451 25.8214 2.27177 23.4774 1.13684 20.7352C0.00191111 17.993 -0.294137 14.9757 0.286132 12.0652C0.866401 9.15465 2.29685 6.48162 4.39664 4.38428C6.49642 2.28695 9.17119 0.859572 12.0824 0.282709C14.9936 -0.294155 18.0105 0.00543009 20.7514 1.14357C23.4923 2.28171 25.834 4.20725 27.4803 6.67658C29.1266 9.14592 30.0035 12.0481 30.0001 15.0159C29.9917 18.9904 28.4079 22.7995 25.5958 25.6083C22.7838 28.4171 18.9728 29.9964 14.9983 30.0001ZM14.9983 1.0526C12.24 1.05261 9.54364 1.87036 7.25001 3.4025C4.95637 4.93465 3.16846 7.11239 2.11226 9.66047C1.05606 12.2085 0.77893 15.0125 1.31603 17.7181C1.85313 20.4236 3.18031 22.9091 5.12974 24.8605C7.07918 26.8119 9.56339 28.1415 12.2684 28.6813C14.9733 29.2212 17.7776 28.9469 20.3267 27.8933C22.8758 26.8397 25.0554 25.0539 26.5899 22.7618C28.1243 20.4697 28.9448 17.7742 28.9475 15.0159C28.9475 11.315 27.4783 7.76553 24.8627 5.14731C22.2471 2.52909 18.6992 1.05632 14.9983 1.0526Z" fill="black"/>
<path d="M15.1176 4.88013L3.61719 18.3171C6.59634 21.3174 10.6173 23.054 14.8439 23.1657C21.6186 23.2815 25.9023 19.0504 26.618 18.3171C22.7869 13.8381 18.9534 9.35914 15.1176 4.88013Z" fill="#CCBEE3"/>
<path d="M15.1141 23.3447H14.8405C10.5633 23.2418 6.4936 21.4806 3.49088 18.433C3.46154 18.4001 3.44531 18.3577 3.44531 18.3137C3.44531 18.2697 3.46154 18.2272 3.49088 18.1944L14.9913 4.75736C15.0084 4.73909 15.029 4.72452 15.0519 4.71456C15.0749 4.7046 15.0997 4.69946 15.1247 4.69946C15.1497 4.69946 15.1744 4.7046 15.1973 4.71456C15.2202 4.72452 15.2409 4.73909 15.2579 4.75736L26.7584 18.1944C26.7877 18.2272 26.8039 18.2697 26.8039 18.3137C26.8039 18.3577 26.7877 18.4001 26.7584 18.433C25.6146 19.6012 21.4467 23.3447 15.1141 23.3447ZM3.86279 18.3067C5.08721 19.5205 9.00257 22.8921 14.858 22.9903C20.9941 23.0956 25.1164 19.5732 26.39 18.3067L15.1282 5.1503L3.86279 18.3067Z" fill="black"/>
<path d="M11.4723 13.8404C11.4477 14.0369 11.2092 14.3737 11.0302 14.3842C10.8513 14.3948 10.6092 14.0755 10.5952 13.8404C10.6615 13.4638 10.8061 13.1052 11.0197 12.7879C11.0248 12.7784 11.0325 12.7704 11.0417 12.7648C11.051 12.7593 11.0616 12.7563 11.0724 12.7563C11.0832 12.7563 11.0938 12.7593 11.1031 12.7648C11.1123 12.7704 11.1199 12.7784 11.125 12.7879C11.331 13.1023 11.4508 13.4652 11.4723 13.8404Z" fill="black"/>
<path d="M13.7003 15.5456C13.9115 15.5456 14.0827 15.3744 14.0827 15.1632C14.0827 14.952 13.9115 14.7808 13.7003 14.7808C13.4891 14.7808 13.3179 14.952 13.3179 15.1632C13.3179 15.3744 13.4891 15.5456 13.7003 15.5456Z" fill="black"/>
<path d="M16.3873 15.6543C16.5985 15.6543 16.7697 15.4909 16.7697 15.2894C16.7697 15.0879 16.5985 14.9246 16.3873 14.9246C16.1761 14.9246 16.0049 15.0879 16.0049 15.2894C16.0049 15.4909 16.1761 15.6543 16.3873 15.6543Z" fill="black"/>
<path d="M14.9664 18.6924C14.4451 18.6932 13.9431 18.495 13.5631 18.1381C13.5466 18.1218 13.5336 18.1024 13.5247 18.081C13.5158 18.0596 13.5112 18.0367 13.5112 18.0135C13.5112 17.9904 13.5158 17.9675 13.5247 17.9461C13.5336 17.9247 13.5466 17.9053 13.5631 17.889C13.5791 17.8727 13.5982 17.8597 13.6192 17.8508C13.6403 17.842 13.663 17.8374 13.6859 17.8374C13.7087 17.8374 13.7314 17.842 13.7525 17.8508C13.7736 17.8597 13.7927 17.8727 13.8087 17.889C14.1203 18.1823 14.5315 18.3465 14.9594 18.3486C15.3836 18.3435 15.7904 18.1795 16.0996 17.889C16.1164 17.8731 16.1362 17.8607 16.1578 17.8524C16.1795 17.8442 16.2025 17.8403 16.2257 17.8409C16.2488 17.8416 16.2715 17.8468 16.2927 17.8562C16.3138 17.8657 16.3329 17.8792 16.3488 17.896C16.3646 17.9128 16.3771 17.9326 16.3853 17.9542C16.3936 17.9759 16.3975 17.9989 16.3968 18.022C16.3962 18.0452 16.3909 18.0679 16.3815 18.0891C16.372 18.1102 16.3585 18.1292 16.3417 18.1451C15.9664 18.4939 15.4752 18.6914 14.9629 18.6994L14.9664 18.6924Z" fill="black"/>
<path d="M4.63135 17.1209C6.38507 19.0889 8.65566 20.5256 11.185 21.2678C18.8087 23.422 25.2185 17.7419 25.7377 17.2788L25.0746 16.5491C24.4185 17.1911 20.5698 20.8573 14.6126 20.6574C11.0501 20.504 7.66957 19.0411 5.11906 16.5491L4.63135 17.1209Z" fill="#E6DAFC"/>
<path d="M14.7384 21.9447C13.5248 21.946 12.3168 21.7783 11.1494 21.4466C8.58845 20.6897 6.29041 19.2314 4.5151 17.2365C4.48625 17.2049 4.47021 17.1636 4.47021 17.1208C4.47021 17.0779 4.48625 17.0366 4.5151 17.005L5.00272 16.4331C5.01825 16.4144 5.03751 16.3991 5.05925 16.3883C5.081 16.3774 5.10478 16.3712 5.12906 16.37C5.15326 16.3684 5.17742 16.3723 5.1999 16.3815C5.22237 16.3906 5.24253 16.4046 5.25883 16.4226C7.7785 18.8835 11.1179 20.3277 14.6367 20.4783C20.215 20.6677 23.9514 17.419 24.9688 16.4191C25.003 16.3871 25.0483 16.3695 25.0951 16.37C25.1428 16.3721 25.1878 16.3922 25.2214 16.4261L25.8845 17.1558C25.9008 17.1718 25.9138 17.191 25.9227 17.212C25.9316 17.2331 25.9361 17.2558 25.9361 17.2786C25.9361 17.3015 25.9316 17.3241 25.9227 17.3452C25.9138 17.3663 25.9008 17.3854 25.8845 17.4014C25.2635 17.9522 20.7026 21.9447 14.7384 21.9447ZM4.86242 17.1208C6.58039 19.0075 8.78275 20.3872 11.2301 21.1098C18.3591 23.1236 24.3548 18.2715 25.488 17.2751L25.0635 16.812C23.8601 17.9557 20.1062 21.022 14.6086 20.8431C11.0667 20.6955 7.69961 19.2639 5.136 16.8155L4.86242 17.1208Z" fill="black"/>
<path d="M9.02701 14.051C8.93228 14.051 8.82357 14.3422 8.72534 14.6194C8.56044 15.0895 8.47618 15.321 8.5709 15.5631C8.63055 15.707 8.77441 15.914 8.94281 15.914C9.11121 15.914 9.2305 15.7526 9.29365 15.6193C9.50415 15.2193 9.24455 14.7211 9.1393 14.3212C9.10422 14.1528 9.07963 14.058 9.02701 14.051Z" fill="black"/>
<path d="M15.0157 12.209C14.9104 12.209 14.8192 12.4616 14.7455 12.6686C14.5911 13.1036 14.4648 13.4545 14.6473 13.7211C14.6862 13.779 14.7383 13.827 14.7993 13.8612C14.8602 13.8953 14.9283 13.9146 14.9981 13.9176C15.121 13.8944 15.2317 13.8285 15.3106 13.7315C15.3896 13.6346 15.4318 13.5128 15.4296 13.3878C15.4077 13.1113 15.3315 12.8418 15.2051 12.5949C15.1104 12.2932 15.0893 12.209 15.0157 12.209Z" fill="black"/>
<path d="M12.0899 9.94621C11.9917 9.94621 11.9321 10.1567 11.8689 10.3883C11.7461 10.8268 11.6128 11.3005 11.8689 11.5601C11.9073 11.603 11.9543 11.6374 12.0069 11.661C12.0595 11.6845 12.1165 11.6968 12.1741 11.6969C12.4232 11.6653 12.5249 11.2759 12.546 11.2443C12.5906 10.9429 12.5326 10.6352 12.3811 10.3707C12.2829 10.1532 12.1916 9.9392 12.0899 9.94621Z" fill="black"/>
<path d="M16.0614 9.09009C15.9632 9.09009 15.8649 9.33568 15.7877 9.53917C15.6228 9.9707 15.4931 10.3145 15.6544 10.5706C15.6874 10.6313 15.7353 10.6825 15.7936 10.7193C15.852 10.7562 15.9188 10.7775 15.9877 10.7811C16.2438 10.7811 16.3912 10.5075 16.4192 10.2689C16.4096 9.99311 16.3477 9.72167 16.2368 9.469C16.1421 9.18131 16.1175 9.0971 16.0614 9.09009Z" fill="black"/>
<path d="M18.6679 11.8582C18.5346 11.8582 18.4574 12.209 18.3837 12.5177C18.2679 13.0229 18.2013 13.3106 18.3837 13.5352C18.4407 13.6133 18.5177 13.6748 18.6066 13.713C18.6954 13.7513 18.793 13.765 18.889 13.7527C19.0051 13.7091 19.1063 13.633 19.1804 13.5334C19.2544 13.4339 19.2982 13.3151 19.3064 13.1913C19.3064 13.1036 19.3065 13.0019 18.9802 12.3213C18.7697 11.9178 18.724 11.8582 18.6679 11.8582Z" fill="black"/>
<path d="M21.1731 14.8438C21.0748 14.8438 21.0117 15.0928 20.9064 15.4858C20.8627 15.66 20.831 15.837 20.8117 16.0155C20.7757 16.1805 20.798 16.3528 20.8748 16.5032C20.9175 16.5794 20.9804 16.6423 21.0565 16.6851C21.1327 16.7278 21.2191 16.7486 21.3064 16.7453C21.7414 16.6716 21.7344 16.005 21.6222 15.6928C21.5738 15.566 21.5187 15.4419 21.4572 15.3209C21.2327 14.8543 21.1976 14.8438 21.1731 14.8438Z" fill="black"/>
</g>
<defs>
<clipPath id="clip0_931:799">
<rect width="30" height="30" fill="white"/>
</clipPath>
</defs>
</svg>
