<svg width="30" height="30" viewBox="0 0 30 30" fill="none" xmlns="http://www.w3.org/2000/svg">
<g clip-path="url(#clip0)">
<path d="M15.002 29.408C22.9581 29.408 29.4079 22.9582 29.4079 15.0021C29.4079 7.04592 22.9581 0.596191 15.002 0.596191C7.04584 0.596191 0.596107 7.04592 0.596107 15.0021C0.596107 22.9582 7.04584 29.408 15.002 29.408Z" fill="#8E83C7"/>
<path d="M14.9861 30.0001C12.0192 29.9977 9.11956 29.1157 6.65389 27.4654C4.18823 25.8152 2.26726 23.4709 1.13386 20.729C0.000452925 17.9871 -0.29448 14.9706 0.286365 12.0611C0.86721 9.15158 2.29775 6.47962 4.39708 4.38306C6.49642 2.28651 9.17028 0.859512 12.0806 0.282521C14.9909 -0.294471 18.0069 0.00445103 20.7473 1.14148C23.4877 2.27852 25.8295 4.2026 27.4764 6.67045C29.1234 9.1383 30.0016 12.0391 30 15.006C29.9948 18.9845 28.4106 22.7983 25.5955 25.6096C22.7805 28.421 18.9646 30.0001 14.9861 30.0001ZM14.9861 1.19228C12.2555 1.19463 9.58683 2.00647 7.31748 3.52517C5.04813 5.04386 3.27996 7.20123 2.23644 9.72462C1.19292 12.248 0.920905 15.0241 1.45478 17.7021C1.98866 20.38 3.30446 22.8395 5.23586 24.7698C7.16727 26.7001 9.62759 28.0145 12.3058 28.5469C14.9841 29.0792 17.76 28.8056 20.2828 27.7606C22.8056 26.7157 24.962 24.9462 26.4793 22.676C27.9967 20.4058 28.807 17.7367 28.8078 15.006C28.8057 11.3417 27.3486 7.82811 24.7567 5.23776C22.1649 2.6474 18.6505 1.19227 14.9861 1.19228Z" fill="black"/>
<path d="M12.2043 22.6718C12.1055 23.0992 11.9262 23.5039 11.6758 23.8641C11.5475 24.0443 11.3708 24.1843 11.1661 24.2681C10.9614 24.3518 10.7371 24.3757 10.5193 24.337C10.3251 24.2716 10.1504 24.1583 10.0115 24.0075C9.8726 23.8568 9.7739 23.6735 9.72452 23.4746C9.63664 23.0832 9.59133 22.6835 9.5894 22.2824C9.48607 20.5894 8.7946 19.0038 8.13093 17.442C7.46727 15.8802 6.8354 14.2628 6.84733 12.5659C6.85925 10.8689 7.68187 9.07665 9.23175 8.39312C10.2332 7.95597 11.3777 8.03149 12.4547 8.21429C13.5316 8.3971 14.6007 8.67528 15.6935 8.6117C16.7864 8.54811 17.9269 8.17058 18.98 8.5044C19.463 8.68504 19.894 8.98185 20.235 9.36861C20.576 9.75536 20.8165 10.2201 20.9353 10.7219C21.1614 11.7301 21.1175 12.7802 20.8081 13.766C20.5339 14.7556 20.1206 15.7014 19.7908 16.675C19.212 18.3853 18.9023 20.175 18.8728 21.9803C18.8872 22.3248 18.8551 22.6697 18.7774 23.0057C18.7392 23.1746 18.6647 23.3333 18.559 23.4706C18.4533 23.6078 18.319 23.7204 18.1654 23.8005C17.6011 24.0469 16.9732 23.6336 16.5758 23.1527C15.7213 22.0678 15.5067 20.657 14.9861 19.4131C14.7835 18.9362 14.5331 18.1494 13.8655 18.3242C13.1978 18.4991 13.1501 19.3654 12.9991 19.89L12.2043 22.6718Z" fill="#E6DAFC"/>
<path d="M10.7219 24.5436C10.6361 24.5448 10.5505 24.5341 10.4676 24.5118C10.2513 24.437 10.0571 24.3095 9.90238 24.1409C9.74767 23.9724 9.63736 23.7679 9.58136 23.5461C9.4998 23.2252 9.4571 22.8956 9.45419 22.5645V22.3102C9.35484 20.7205 8.70706 19.1826 8.08314 17.7003L8.00763 17.5214C7.31615 15.8802 6.70017 14.2707 6.71209 12.5817C6.71209 10.9921 7.50691 9.00508 9.18395 8.27783C10.2808 7.79697 11.5246 7.92414 12.4903 8.08707C12.7367 8.12681 12.9871 8.1745 13.2335 8.22219C14.0414 8.40848 14.8682 8.5005 15.6974 8.4964C16.0476 8.47456 16.3964 8.43477 16.7426 8.37718C17.4985 8.20481 18.2836 8.20481 19.0396 8.37718C19.5463 8.5648 19.9988 8.8749 20.3566 9.27985C20.7144 9.6848 20.9664 10.172 21.0902 10.698C21.3231 11.7306 21.2737 12.8068 20.9471 13.8137C20.7762 14.4376 20.5497 15.0536 20.3192 15.6457C20.1841 16.0073 20.049 16.365 19.9218 16.7306C19.3457 18.4262 19.0386 20.2016 19.0117 21.9922V22.0836C19.0212 22.4096 18.9892 22.7354 18.9164 23.0533C18.8726 23.2431 18.7871 23.4207 18.6661 23.5733C18.5452 23.7259 18.3917 23.8496 18.2169 23.9355C17.5533 24.2256 16.8538 23.7448 16.4564 23.2441C15.9124 22.4818 15.5087 21.6286 15.2642 20.7245C15.1291 20.3271 14.986 19.8741 14.8152 19.4727L14.7595 19.3376C14.529 18.7733 14.3144 18.352 13.8733 18.4673C13.4322 18.5825 13.305 19.1309 13.1898 19.6118C13.1619 19.727 13.1381 19.8343 13.1103 19.9297L12.3155 22.7115C12.2141 23.1619 12.0265 23.5883 11.7631 23.9673C11.6413 24.1327 11.4851 24.2697 11.3054 24.3692C11.1257 24.4686 10.9267 24.5281 10.7219 24.5436ZM10.9643 8.25001C10.3909 8.23778 9.8212 8.34469 9.29124 8.56396C7.72547 9.25147 7.01016 11.0875 6.99824 12.5976C6.99824 14.227 7.59035 15.8086 8.26991 17.4141L8.34541 17.5969C8.98126 19.0991 9.63698 20.653 9.74031 22.3022V22.5645C9.74163 22.8714 9.78034 23.177 9.85557 23.4745C9.89708 23.6473 9.98037 23.8073 10.0982 23.9403C10.216 24.0734 10.3646 24.1754 10.5311 24.2376C10.7211 24.2668 10.9155 24.2426 11.0924 24.1674C11.2693 24.0923 11.4217 23.9693 11.5326 23.8123C11.7691 23.4623 11.9389 23.0716 12.0333 22.6599L12.8281 19.878C12.852 19.7866 12.8758 19.6833 12.9036 19.576C13.0308 19.0395 13.1858 18.3838 13.8018 18.2089C14.537 18.0182 14.839 18.7613 15.0417 19.2541L15.0933 19.3853C15.2722 19.8025 15.4152 20.2397 15.5543 20.6649C15.7804 21.5345 16.1599 22.3568 16.675 23.093C17.0287 23.5421 17.6049 23.8878 18.0818 23.6971C18.2152 23.6277 18.3318 23.5297 18.4231 23.4102C18.5144 23.2907 18.5784 23.1526 18.6104 23.0056C18.6776 22.7125 18.707 22.412 18.6978 22.1115V22.0161C18.7248 20.1959 19.0359 18.3912 19.6198 16.667C19.7469 16.2974 19.882 15.9358 20.0172 15.5742C20.2397 14.986 20.4662 14.3819 20.6371 13.766C20.9438 12.8069 20.9877 11.7832 20.7643 10.8013C20.6545 10.3227 20.4275 9.8788 20.1035 9.50973C19.7795 9.14067 19.3688 8.85799 18.9084 8.68715C18.1973 8.52166 17.4577 8.52166 16.7465 8.68715C16.3928 8.73484 16.0312 8.79047 15.6696 8.80637C14.8178 8.81168 13.9684 8.71834 13.1381 8.5282C12.8917 8.48051 12.6453 8.43281 12.3989 8.39307C11.9264 8.29529 11.4465 8.23681 10.9643 8.21822V8.25001Z" fill="black"/>
<path d="M11.8546 11.2027L11.9142 11.314C11.9334 11.3569 11.9653 11.393 12.0056 11.4173C12.041 11.4511 12.085 11.4744 12.1328 11.4849C12.181 11.4968 12.2315 11.4968 12.2798 11.4849C12.3274 11.48 12.3735 11.4651 12.4149 11.4411L12.4904 11.3815C12.5351 11.3365 12.5667 11.2802 12.5818 11.2186V11.1232C12.5825 11.0573 12.5646 10.9926 12.5302 10.9364L12.4745 10.8252C12.4526 10.7828 12.4196 10.7471 12.3791 10.7218C12.3428 10.6894 12.2992 10.6662 12.252 10.6543C12.1561 10.6356 12.0568 10.6496 11.9698 10.694L11.8943 10.7497C11.8504 10.7953 11.8189 10.8514 11.8029 10.9126V11.008C11.8045 11.0735 11.8222 11.1377 11.8546 11.1948V11.2027Z" fill="black"/>
<path d="M15.6458 11.3261H15.7054C15.7535 11.3255 15.8009 11.3147 15.8445 11.2943C15.8903 11.2803 15.9315 11.2542 15.9637 11.2188C15.9975 11.1852 16.0233 11.1445 16.0393 11.0996C16.0619 11.0554 16.0728 11.0061 16.071 10.9565V10.8612C16.0528 10.8 16.0201 10.7441 15.9757 10.6982L15.9001 10.6386C15.8444 10.6071 15.7814 10.5907 15.7174 10.5909H15.6577C15.6092 10.5876 15.5609 10.5986 15.5187 10.6227C15.4738 10.6387 15.4331 10.6645 15.3994 10.6982C15.3657 10.7319 15.3399 10.7726 15.3239 10.8174C15.2998 10.8596 15.2888 10.908 15.2921 10.9565V11.0559C15.3104 11.1171 15.3431 11.173 15.3875 11.2188L15.463 11.2744C15.5185 11.3071 15.5814 11.3249 15.6458 11.3261Z" fill="black"/>
<path d="M13.7382 16.1385C13.1989 16.1396 12.6663 16.0186 12.1804 15.7848C11.679 15.5403 11.2494 15.1703 10.9333 14.7107C10.6172 14.2511 10.4253 13.7176 10.3762 13.1619C10.3735 13.1272 10.3777 13.0922 10.3887 13.0591C10.3997 13.026 10.4172 12.9954 10.4401 12.9691C10.4631 12.9428 10.491 12.9214 10.5223 12.9061C10.5537 12.8907 10.5877 12.8818 10.6226 12.8798C10.6575 12.8765 10.6926 12.8804 10.726 12.8912C10.7593 12.9019 10.7901 12.9194 10.8165 12.9424C10.8429 12.9654 10.8643 12.9936 10.8795 13.0252C10.8947 13.0568 10.9032 13.0912 10.9047 13.1262C10.9464 13.5893 11.1074 14.0338 11.3721 14.4162C11.6368 14.7985 11.9961 15.1058 12.4149 15.3079C12.8408 15.5101 13.3064 15.615 13.778 15.615C14.2495 15.615 14.7151 15.5101 15.141 15.3079C16.0055 14.8834 16.6842 14.1567 17.0486 13.2653C17.0803 13.208 17.1319 13.1644 17.1937 13.1428C17.2555 13.1213 17.3231 13.1232 17.3835 13.1482C17.444 13.1733 17.4931 13.2198 17.5215 13.2787C17.5498 13.3377 17.5555 13.4051 17.5374 13.4679C17.1217 14.4818 16.3481 15.3077 15.3636 15.7888C14.8534 16.0212 14.2989 16.1405 13.7382 16.1385Z" fill="black"/>
<path d="M22.803 11.7592C22.944 11.6109 23.0296 11.4187 23.0454 11.2147C23.0006 10.9318 22.8978 10.6612 22.7434 10.4199C22.4789 9.78573 22.1556 9.1777 21.7777 8.60379C22.199 8.24215 22.9262 7.57452 23.109 7.01418C23.2918 6.45384 22.8666 5.98887 22.199 6.04848C21.6256 6.08917 21.0581 6.19042 20.506 6.35051C19.9616 5.32123 19.4767 4.41515 18.5707 4.8364C18.0262 5.13843 18.2686 5.56365 18.0262 7.01418C16.7545 7.32018 15.0616 7.49901 15.304 8.52828C15.3679 8.69287 15.4717 8.83898 15.606 8.9535C15.7252 9.07272 15.9081 9.07272 16.0909 9.13233C16.6353 9.37475 16.997 9.61716 17.4818 9.85958C17.4222 10.102 17.3586 10.404 17.299 10.6544C16.9969 11.1988 16.8141 11.6837 17.3586 12.0453C17.4472 12.1309 17.5561 12.1925 17.6752 12.2241C17.7942 12.2558 17.9194 12.2566 18.0388 12.2263C18.1582 12.1961 18.2679 12.1358 18.3575 12.0513C18.4471 11.9667 18.5136 11.8607 18.5508 11.7433L19.4569 10.8372C20.7484 11.4571 22.0797 12.4228 22.803 11.7592Z" fill="#CCBEE3"/>
<path d="M17.8752 12.4269C17.7599 12.4273 17.6456 12.4046 17.5392 12.3603C17.4327 12.3159 17.3362 12.2508 17.2553 12.1686C16.6154 11.7474 16.8578 11.1473 17.1599 10.6148C17.1877 10.4995 17.2155 10.3723 17.2433 10.2452C17.2712 10.118 17.2871 10.0544 17.3069 9.96302C17.1519 9.88354 17.0089 9.80406 16.8658 9.72458C16.5943 9.56632 16.3144 9.42304 16.0273 9.29539L15.8882 9.25962C15.7408 9.24107 15.6024 9.17877 15.4908 9.08079C15.3409 8.9502 15.225 8.7852 15.153 8.59993C15.1218 8.48897 15.1138 8.37276 15.1295 8.25857C15.1453 8.14438 15.1844 8.03466 15.2444 7.93626C15.5742 7.41566 16.5121 7.21299 17.4182 7.01826L17.8871 6.91891C17.9547 6.47779 17.9785 6.12411 17.9984 5.86579C18.0381 5.28956 18.062 4.97163 18.4872 4.73319C19.5006 4.26028 20.053 5.21802 20.5736 6.19563C21.0717 6.06114 21.5812 5.97334 22.0956 5.93336H22.1751C22.3483 5.90741 22.5252 5.92589 22.6892 5.98706C22.8533 6.04823 22.9991 6.15008 23.113 6.28306C23.1988 6.39441 23.2554 6.52548 23.2776 6.6643C23.2999 6.80312 23.287 6.9453 23.2402 7.07787C22.9464 7.6911 22.5088 8.2242 21.9645 8.63172C22.2935 9.13592 22.5781 9.6678 22.8149 10.2213L22.9302 10.4638C23.0696 10.6867 23.1579 10.9378 23.1885 11.199C23.1734 11.4421 23.0719 11.6718 22.9024 11.8467C22.2466 12.4468 21.2372 11.9143 20.1722 11.3539C19.9496 11.2347 19.7271 11.1155 19.5046 11.0082L18.7098 11.803C18.6659 11.9385 18.5887 12.0608 18.4852 12.1587C18.3817 12.2567 18.2554 12.327 18.1176 12.3633C18.0407 12.3972 17.9589 12.4187 17.8752 12.4269ZM19.0038 4.90407C18.8755 4.9079 18.7495 4.93907 18.6342 4.99548C18.364 5.14649 18.3441 5.30545 18.3044 5.88566C18.2805 6.18769 18.2567 6.56125 18.1733 7.07787V7.17325L18.0739 7.1971L17.5056 7.32427C16.7108 7.49515 15.7849 7.69386 15.5186 8.11908C15.4798 8.18123 15.4544 8.25083 15.4442 8.32338C15.4339 8.39594 15.439 8.46984 15.459 8.54032C15.518 8.67685 15.6078 8.79788 15.7213 8.89401C15.7935 8.94772 15.8784 8.98193 15.9677 8.99336C16.0282 9.00552 16.0879 9.02145 16.1465 9.04104C16.4922 9.19206 16.7625 9.34307 17.0208 9.48614C17.1956 9.58151 17.3665 9.67689 17.5613 9.77227L17.6646 9.82791L17.6368 9.94316C17.6089 10.0624 17.5772 10.1975 17.5493 10.3406C17.5215 10.4836 17.4858 10.6148 17.454 10.738V10.7737C17.136 11.35 17.0566 11.6917 17.454 11.9659C17.5271 12.0453 17.6206 12.1032 17.7242 12.1333C17.8279 12.1634 17.9378 12.1647 18.0421 12.1368C18.1382 12.113 18.226 12.0634 18.296 11.9934C18.3661 11.9233 18.4157 11.8355 18.4395 11.7394V11.6997L19.4489 10.6863L19.5443 10.734C19.8026 10.8572 20.0649 10.9923 20.3192 11.1314C21.2889 11.644 22.2029 12.1289 22.7037 11.6719C22.8133 11.5505 22.8815 11.3974 22.8984 11.2347C22.8651 11.0231 22.7894 10.8203 22.6758 10.6386L22.5526 10.3803C22.3063 9.7975 22.0042 9.23988 21.6505 8.71518L21.579 8.60391L21.6784 8.52045C22.5884 7.72564 22.8706 7.27261 22.966 7.0143C22.9996 6.92552 23.0099 6.8296 22.996 6.7357C22.9821 6.64179 22.9444 6.55301 22.8865 6.4778C22.8032 6.38526 22.6982 6.31498 22.5809 6.27334C22.4636 6.2317 22.3378 6.22001 22.2149 6.23935H22.1354C21.5966 6.27892 21.0637 6.37618 20.5458 6.52946L20.4265 6.56919L20.3669 6.45792C19.8861 5.52402 19.5284 4.90407 19.0038 4.90407Z" fill="black"/>
</g>
<defs>
<clipPath id="clip0">
<rect width="30" height="30" fill="white"/>
</clipPath>
</defs>
</svg>
