<svg width="30" height="30" viewBox="0 0 30 30" fill="none" xmlns="http://www.w3.org/2000/svg">
<g clip-path="url(#clip0_934:1053)">
<path d="M15.0019 29.4774C22.9965 29.4774 29.4774 22.9965 29.4774 15.0019C29.4774 7.00727 22.9965 0.526367 15.0019 0.526367C7.00727 0.526367 0.526367 7.00727 0.526367 15.0019C0.526367 22.9965 7.00727 29.4774 15.0019 29.4774Z" fill="#8E83C7"/>
<path d="M15.0018 29.9859C12.0347 29.9859 9.13432 29.1061 6.66729 27.4577C4.20026 25.8093 2.27741 23.4663 1.14196 20.7251C0.00651559 17.9839 -0.29059 14.9675 0.288256 12.0575C0.867102 9.14743 2.29593 6.47436 4.39396 4.37633C6.492 2.27829 9.16504 0.849529 12.0751 0.270683C14.9852 -0.308163 18.0015 -0.0110784 20.7427 1.12437C23.4839 2.25982 25.8269 4.18263 27.4753 6.64965C29.1237 9.11668 30.0035 12.0171 30.0035 14.9842C29.9989 18.9615 28.4168 22.7745 25.6045 25.5869C22.7921 28.3993 18.9791 29.9813 15.0018 29.9859ZM15.0018 1.03844C12.2427 1.03844 9.54563 1.85664 7.25162 3.38956C4.9576 4.92248 3.16973 7.10125 2.11404 9.65035C1.05836 12.1994 0.782288 15.0044 1.32081 17.7104C1.85933 20.4163 3.18822 22.9018 5.1394 24.8525C7.09059 26.8032 9.57643 28.1315 12.2826 28.6693C14.9887 29.2072 17.7935 28.9304 20.3424 27.8741C22.8912 26.8178 25.0696 25.0293 26.6019 22.7349C28.1343 20.4405 28.9517 17.7432 28.951 14.9842C28.9427 11.2888 27.4698 7.7474 24.8551 5.13601C22.2404 2.52461 18.6972 1.05619 15.0018 1.05248V1.03844Z" fill="black"/>
<path d="M19.8254 16.0227L19.7588 16.1385L19.8254 16.0227Z" fill="#CCBEE3"/>
<path d="M19.9101 16.2263L19.6084 16.0508L19.6751 15.9351L19.9768 16.114L19.9101 16.2263Z" fill="#CCBEE3"/>
<path d="M22.7595 18.2366C22.7006 18.1177 22.6153 18.0138 22.5101 17.9329C22.4049 17.852 22.2826 17.7963 22.1526 17.77C22.114 17.77 22.0719 17.77 22.0333 17.7489C21.9385 17.7489 21.8297 17.7173 21.8052 17.6752C21.7952 17.6278 21.7952 17.5788 21.8052 17.5314C21.8129 16.7142 21.7294 15.8987 21.5561 15.1001C21.2935 14.2944 20.9242 13.5274 20.458 12.8197C21.0441 11.9237 21.3348 10.8667 21.2895 9.79698C21.2442 8.7273 20.8651 7.69868 20.2054 6.85545C20.2054 6.85545 20.1808 6.82738 20.1808 6.8344C20.1872 6.81381 20.1954 6.79385 20.2054 6.77477C20.4114 6.38052 20.5105 5.93912 20.4926 5.49465C20.4748 5.05018 20.3406 4.61817 20.1037 4.24172C19.9763 4.028 19.8024 3.84573 19.595 3.70844C19.1792 3.4741 18.6887 3.40999 18.2267 3.52953C17.6892 3.6398 17.1905 3.89034 16.7813 4.25574C16.6735 4.28799 16.5577 4.28052 16.4549 4.23469L16.3848 4.16803L16.3041 4.08384C16.1171 3.95335 15.8935 3.88577 15.6655 3.89088C14.6621 3.83124 13.5289 3.76108 12.508 4.20313C12.3536 4.26628 12.2099 4.34346 12.0625 4.42065L11.5117 4.71185L11.3152 4.82061C10.8812 4.42507 10.3092 4.2159 9.72239 4.23821C9.43444 4.25843 9.15092 4.31987 8.88042 4.42065C8.65475 4.49149 8.44751 4.61129 8.27348 4.77148C8.0911 4.97378 7.95461 5.21315 7.87348 5.47316C7.7055 5.81518 7.61562 6.19026 7.61035 6.57127C7.6589 6.9894 7.81886 7.38681 8.07348 7.72201C8.14875 7.8165 8.20152 7.92689 8.22783 8.04479C8.2285 8.1268 8.21672 8.20843 8.19279 8.28687C8.06053 8.78704 7.97132 9.29761 7.92616 9.813C7.84735 11.1054 8.23858 12.3826 9.02774 13.4091C9.08553 13.4654 9.12578 13.5373 9.14355 13.6161C9.13702 13.6799 9.11539 13.7412 9.08042 13.795C8.88081 14.22 8.74255 14.6713 8.66988 15.1352C8.12401 17.3443 8.32896 19.6722 9.25233 21.752C9.28868 21.8171 9.31246 21.8885 9.32248 21.9625C9.32158 22.0386 9.30973 22.1142 9.28736 22.187C9.20917 22.5415 9.17966 22.9051 9.19965 23.2676C9.20337 23.5579 9.28327 23.8422 9.43126 24.092C9.58384 24.2877 9.78085 24.4442 10.006 24.5485C10.2311 24.6529 10.4779 24.702 10.7258 24.692C11.2292 24.6966 11.7256 24.5751 12.1699 24.3385C12.6142 24.102 12.9922 23.7579 13.2694 23.3377C13.3115 23.2746 13.35 23.2114 13.3886 23.1448C13.5781 22.829 13.7395 22.5343 14.0447 22.4817C14.1756 22.47 14.3075 22.4819 14.4342 22.5168H14.5078L14.792 22.5729C15.1495 22.6762 15.5248 22.7037 15.8936 22.6536C15.9852 22.6363 16.0792 22.6363 16.1708 22.6536H16.2726C16.347 22.6643 16.4226 22.6643 16.4971 22.6536C16.5273 22.8786 16.6294 23.0878 16.7883 23.25C17.0711 23.598 17.3872 23.9176 17.732 24.2043C18.0924 24.503 18.5218 24.7068 18.981 24.7972C19.1065 24.8155 19.233 24.8249 19.3598 24.8253C19.5775 24.8244 19.7943 24.7973 20.0054 24.7446C20.2046 24.6997 20.3923 24.6137 20.5563 24.492C20.7894 24.2918 20.9477 24.0185 21.0053 23.7166C21.0479 23.5003 21.0737 23.2809 21.0825 23.0606L21.1035 22.7378C21.1485 22.4111 21.139 22.0791 21.0755 21.7555C21.0384 21.6033 20.978 21.4577 20.8966 21.3239C20.8836 21.3067 20.873 21.2878 20.8649 21.2678C20.8824 21.2352 20.9049 21.2056 20.9316 21.1801C21.0861 21.0001 21.2126 20.7978 21.307 20.5802C21.5483 20.254 21.705 19.8731 21.7631 19.4715V19.4189C21.7865 19.431 21.8112 19.4404 21.8368 19.447C21.9127 19.4607 21.9911 19.4509 22.0614 19.4189C22.3 19.3474 22.5115 19.2055 22.6683 19.0119C22.7501 18.902 22.8015 18.7725 22.8175 18.6364C22.8335 18.5004 22.8135 18.3625 22.7595 18.2366Z" fill="#CCBEE3"/>
<path d="M18.2677 17.005C18.245 16.9591 18.2134 16.9181 18.1749 16.8844C18.1364 16.8507 18.0916 16.8249 18.0431 16.8085C18.0026 16.7957 17.96 16.7913 17.9178 16.7955C17.8756 16.7997 17.8346 16.8125 17.7975 16.8331C17.7316 16.8745 17.6792 16.9342 17.6467 17.005L17.6291 17.0366C17.5784 17.0974 17.5095 17.1404 17.4326 17.1594C17.2495 17.219 17.0519 17.2171 16.8701 17.1537C16.6882 17.0903 16.5322 16.9691 16.4258 16.8085C16.3356 16.6439 16.3075 16.4524 16.3468 16.2688C16.3861 16.0852 16.4901 15.9219 16.6398 15.8087L16.6889 15.7771C16.7594 15.7368 16.8233 15.6859 16.8784 15.6262C16.9347 15.5525 16.9774 15.4693 17.0046 15.3806C17.017 15.336 17.036 15.2934 17.0608 15.2543C17.124 15.1596 17.1555 15.1701 17.1836 15.1807C17.2819 15.2248 17.3881 15.2487 17.4959 15.2508C17.5513 15.2425 17.602 15.2145 17.6386 15.1721C17.6753 15.1296 17.6956 15.0754 17.6958 15.0193V14.8474H17.6362C17.6175 14.8131 17.5965 14.7803 17.573 14.7491L17.5485 14.7106C17.5325 14.6871 17.5184 14.6625 17.5063 14.6369C17.4603 14.5511 17.3985 14.4749 17.324 14.4123L17.0678 14.2053C16.8833 14.0429 16.6794 13.9038 16.4608 13.7914C16.3332 13.7336 16.2005 13.6878 16.0644 13.6545C15.4006 13.4898 14.703 13.5227 14.0576 13.7492C13.7723 13.8335 13.5079 13.9767 13.2813 14.1695C13.0547 14.3622 12.871 14.6003 12.742 14.8684L12.6578 15.0824L12.8858 15.107C12.9201 15.1125 12.9519 15.1287 12.9764 15.1532C13.001 15.1778 13.0172 15.2095 13.0227 15.2438V15.2789C13.02 15.3312 13.027 15.3836 13.0437 15.4333C13.0931 15.5445 13.1784 15.6359 13.2858 15.6929C13.4296 15.7932 13.5374 15.9369 13.5936 16.1029C13.6498 16.2689 13.6513 16.4486 13.598 16.6156C13.5378 16.775 13.4217 16.907 13.2713 16.9871C13.1208 17.0671 12.9464 17.0897 12.7806 17.0506C12.6613 17.019 12.3526 16.9278 12.2333 17.1804C12.21 17.257 12.21 17.3389 12.2333 17.4155C12.3631 18.2424 12.7775 18.9982 13.4051 19.5521C13.9406 20.0094 14.6199 20.264 15.3241 20.2713C15.4664 20.2719 15.6085 20.2602 15.7487 20.2362C16.4346 20.1177 17.0562 19.7597 17.5029 19.2258C17.9393 18.7016 18.2211 18.0663 18.3168 17.3909C18.3402 17.2603 18.3231 17.1256 18.2677 17.005Z" fill="#E6DAFC"/>
<path d="M19.3241 4.99255C19.2849 4.86879 19.2105 4.75909 19.1101 4.67679C19.0465 4.62211 18.9686 4.58681 18.8856 4.57506C18.8439 4.5672 18.801 4.56912 18.7602 4.58069C18.7194 4.59226 18.6818 4.61315 18.6505 4.64172C18.6213 4.67121 18.5975 4.70565 18.5803 4.74345C18.5445 4.82325 18.5296 4.91084 18.537 4.99799C18.5444 5.08514 18.5738 5.16898 18.6225 5.24163C18.6703 5.30229 18.7257 5.35654 18.7874 5.40303C18.866 5.47523 18.9655 5.52068 19.0716 5.53283C19.1101 5.53626 19.1488 5.53626 19.1873 5.53283C19.2265 5.52405 19.2643 5.50988 19.2996 5.49073C19.3388 5.45796 19.3685 5.41534 19.3858 5.36724C19.4031 5.31915 19.4072 5.26732 19.3978 5.21709C19.3818 5.13972 19.3571 5.0644 19.3241 4.99255Z" fill="#E6DAFC"/>
<path d="M9.63105 5.508C9.61385 5.48026 9.58945 5.45776 9.56038 5.44292C9.53132 5.42808 9.49871 5.42146 9.46616 5.4238C9.33511 5.43124 9.21088 5.48466 9.11533 5.57466C9.01933 5.66955 8.93991 5.77983 8.88029 5.90093C8.82595 5.99265 8.79465 6.0962 8.78907 6.20267C8.78861 6.25543 8.80325 6.30723 8.83121 6.35198C8.85918 6.39673 8.8993 6.43255 8.94693 6.45526C8.98416 6.46063 9.02199 6.46063 9.05922 6.45526C9.16692 6.44954 9.27193 6.41979 9.36663 6.36819C9.46134 6.31659 9.54335 6.24445 9.60655 6.15706C9.69119 6.04846 9.73907 5.91576 9.74334 5.77815C9.72931 5.65886 9.66964 5.51852 9.63105 5.508Z" fill="#E6DAFC"/>
<path d="M19.1737 24.9901C19.0615 24.9901 18.9527 24.9901 18.844 24.9901C18.7154 24.9895 18.5872 24.9754 18.4616 24.948C18.3059 24.9046 18.1571 24.8397 18.0195 24.755C17.2858 24.3243 16.6989 23.6824 16.3355 22.9131C16.2303 22.9131 16.1145 22.9377 16.0093 22.9447C15.3163 22.984 14.6212 22.9297 13.9428 22.7833C13.7012 23.2086 13.4154 23.6072 13.0903 23.9726C12.7247 24.3877 12.2472 24.6886 11.715 24.8392C11.408 24.9087 11.0922 24.9324 10.7782 24.9094C10.3274 24.9289 9.88193 24.8062 9.50474 24.5585C9.19627 24.2947 8.99319 23.9285 8.93283 23.5271C8.87782 23.1564 8.8719 22.7801 8.91527 22.4079C8.91847 22.2238 8.95535 22.0419 9.02405 21.8711C8.6921 21.2975 8.47966 20.6626 8.39955 20.0047C8.19762 18.9107 8.12701 17.7965 8.1891 16.6858C8.2484 15.6201 8.5041 14.5746 8.94337 13.6019C8.23946 12.7528 7.82199 11.7029 7.75056 10.6023C7.62295 9.74817 7.7549 8.87543 8.1294 8.09729C7.87857 7.85603 7.6853 7.56143 7.56383 7.23529C7.44237 6.90916 7.39583 6.55985 7.42773 6.2133C7.46855 5.85375 7.59172 5.50845 7.78765 5.20422C7.98357 4.89999 8.24704 4.64502 8.5575 4.45912C8.86771 4.27884 9.2128 4.16681 9.56975 4.13051C9.9267 4.09421 10.2872 4.13449 10.6274 4.24862C10.8909 4.33545 11.1368 4.46851 11.3537 4.64156C11.814 4.28996 12.3496 4.0498 12.9184 3.93989C13.9165 3.70458 14.9509 3.66644 15.9636 3.82762C16.2428 3.85407 16.5096 3.95595 16.7354 4.12233C17.2358 3.62324 17.9062 3.33132 18.6124 3.30487C19.0469 3.2751 19.4779 3.39932 19.8298 3.65571C19.9903 3.79044 20.1277 3.95041 20.2368 4.12933C20.5107 4.52735 20.6773 4.98936 20.7203 5.47062C20.7633 5.95188 20.6814 6.43608 20.4824 6.87638C20.7415 7.17385 20.9415 7.51796 21.0718 7.89031C21.3822 8.72293 21.5229 9.6092 21.4858 10.497C21.4929 11.3482 21.2328 12.1802 20.742 12.8757C21.3098 13.6501 21.7035 14.5381 21.8962 15.4789C22.0873 16.4406 22.1429 17.4243 22.0612 18.4013C21.998 19.2995 21.8401 20.4432 21.1945 21.3729C21.4272 22.2177 21.4053 23.1123 21.1314 23.9446C21.0869 24.1395 21.0013 24.3226 20.8803 24.4817C20.7593 24.6409 20.6057 24.7723 20.4297 24.8672C20.2633 24.9346 20.0864 24.9726 19.907 24.9795C19.6544 24.9795 19.4123 24.9901 19.1737 24.9901ZM16.532 22.4781L16.5951 22.6289C16.9206 23.3912 17.4828 24.0284 18.1985 24.4463C18.3929 24.577 18.6239 24.6422 18.858 24.6322C19.1937 24.6462 19.5301 24.6392 19.8649 24.6111C20.003 24.6067 20.1393 24.5795 20.2684 24.5305C20.3979 24.4552 20.5105 24.354 20.5992 24.2333C20.688 24.1126 20.7509 23.9749 20.7841 23.8288C21.046 23.0331 21.0595 22.1765 20.8227 21.3729L20.7981 21.2887L20.8472 21.2221C21.4822 20.352 21.6331 19.2363 21.6963 18.3628C21.7768 17.4186 21.7237 16.4678 21.5384 15.5385C21.3481 14.6035 20.9473 13.7241 20.3666 12.9669L20.2789 12.8546L20.3701 12.7459C20.8712 12.0939 21.1359 11.2911 21.1209 10.4689C21.1563 9.63224 21.0227 8.79698 20.728 8.01309C20.6054 7.64321 20.4002 7.30609 20.1281 7.02724L20.0298 6.92902L20.1 6.80972C20.5841 6.02034 20.3631 4.98889 19.9281 4.3188C19.8344 4.16776 19.7158 4.03371 19.5772 3.92235C19.2926 3.71399 18.9432 3.6133 18.5914 3.63817C18.2577 3.65319 17.9305 3.73515 17.6291 3.8792C17.3278 4.02325 17.0584 4.22642 16.8372 4.47666L16.6899 4.63805L16.5635 4.46263C16.3824 4.27787 16.1379 4.16878 15.8794 4.1574C14.9123 3.9999 13.9236 4.03687 12.971 4.26616C12.4072 4.37069 11.8816 4.62383 11.4484 4.99942L11.3256 5.11518L11.2062 4.99942C11 4.80837 10.7546 4.66468 10.4871 4.57841C10.195 4.47939 9.88515 4.44412 9.57832 4.47499C9.27148 4.50585 8.97481 4.60214 8.70833 4.75734C8.44506 4.91446 8.2214 5.13002 8.05471 5.38734C7.88803 5.64467 7.78279 5.93687 7.74705 6.24137C7.72088 6.5572 7.77098 6.87469 7.89309 7.16713C8.01519 7.45958 8.20573 7.71842 8.44872 7.92187L8.5575 8.0166L8.48375 8.1429C8.09217 8.88281 7.95183 9.72998 8.08384 10.5567C8.14595 11.6221 8.5606 12.6366 9.2626 13.4405L9.34688 13.5282L9.2942 13.637C8.84118 14.5984 8.57907 15.6385 8.52238 16.6998C8.46101 17.7824 8.53054 18.8685 8.7294 19.9345C8.7999 20.5781 9.01318 21.1978 9.35382 21.7483L9.42054 21.843L9.35733 21.9413C9.28454 22.091 9.24738 22.2555 9.24864 22.4219C9.20462 22.7643 9.20462 23.111 9.24864 23.4534C9.2944 23.7705 9.45253 24.0606 9.6942 24.2708C10.0075 24.4729 10.374 24.5768 10.7467 24.569C11.0278 24.5862 11.3098 24.565 11.5852 24.5059C12.0508 24.3705 12.4683 24.1052 12.7885 23.7411C13.1225 23.3609 13.4142 22.9457 13.6586 22.5026L13.7253 22.3939L13.848 22.4219C14.5376 22.582 15.2464 22.6422 15.9531 22.6009C16.0833 22.5983 16.2129 22.5807 16.339 22.5482L16.532 22.4781Z" fill="black"/>
<path d="M9.10798 6.79228C8.94806 6.79248 8.79397 6.73233 8.67646 6.62386C8.60695 6.55977 8.55309 6.48058 8.51903 6.39238C8.48496 6.30418 8.47158 6.20934 8.47997 6.11517C8.49897 5.95506 8.55944 5.80268 8.65539 5.67311C8.7351 5.53218 8.84694 5.41199 8.98173 5.32227C9.07477 5.26029 9.17483 5.20964 9.27989 5.17142C9.34234 5.14387 9.40991 5.12964 9.47817 5.12964C9.54643 5.12964 9.61392 5.14387 9.67637 5.17142C9.77759 5.22119 9.85732 5.30593 9.90087 5.40998C9.95282 5.54576 9.97415 5.69134 9.96323 5.8363C9.95231 5.98126 9.90944 6.12202 9.83775 6.24849C9.78515 6.38728 9.69899 6.51086 9.58695 6.60821C9.47491 6.70555 9.34046 6.77361 9.19569 6.8063C9.166 6.80515 9.13655 6.80044 9.10798 6.79228ZM9.50096 5.46259C9.46827 5.46563 9.43627 5.47393 9.40622 5.48716C9.32426 5.51794 9.24555 5.55672 9.17119 5.60294C9.08159 5.67316 9.00648 5.76014 8.95012 5.85904C8.88675 5.94241 8.84457 6.03993 8.82729 6.14322C8.8248 6.18476 8.83142 6.22636 8.84657 6.26512C8.86171 6.30389 8.88501 6.3389 8.915 6.36776C8.94578 6.3962 8.98265 6.4173 9.02275 6.42945C9.06286 6.4416 9.10522 6.4445 9.14661 6.43793C9.33957 6.40986 9.47291 6.1748 9.51852 6.08709C9.56447 6.00577 9.59367 5.9161 9.60451 5.82332C9.61536 5.73055 9.60761 5.63654 9.58164 5.54681C9.5641 5.50471 9.543 5.48366 9.52897 5.48015C9.51493 5.47665 9.5185 5.46259 9.50096 5.46259Z" fill="black"/>
<path d="M19.1701 5.80975C18.9792 5.79872 18.7969 5.72608 18.6508 5.60275C18.4516 5.46308 18.3115 5.25421 18.2579 5.01686C18.2259 4.88066 18.2402 4.73765 18.2987 4.61054C18.3572 4.48342 18.4564 4.37947 18.5807 4.31518C18.6772 4.27516 18.7816 4.25721 18.886 4.26268C18.9904 4.26814 19.0922 4.29686 19.1841 4.34675C19.3483 4.43653 19.4808 4.57504 19.563 4.74319C19.633 4.85021 19.6829 4.9691 19.7103 5.09403C19.7443 5.20851 19.7443 5.33038 19.7103 5.44487C19.6704 5.55496 19.5966 5.64957 19.4995 5.71512C19.4025 5.78067 19.2872 5.81381 19.1701 5.80975ZM18.8193 4.62041C18.7842 4.6195 18.7494 4.62671 18.7175 4.64146C18.6657 4.67313 18.6252 4.7204 18.6019 4.77649C18.5786 4.83258 18.5736 4.89462 18.5877 4.95371C18.627 5.10472 18.7191 5.23666 18.8473 5.32559C18.9364 5.40127 19.0467 5.4478 19.1631 5.45891C19.2032 5.46102 19.2431 5.45196 19.2784 5.43277C19.3137 5.41357 19.343 5.38498 19.363 5.35015C19.377 5.29608 19.377 5.23933 19.363 5.18525C19.3421 5.098 19.3066 5.01495 19.2578 4.93966C19.1385 4.75021 19.0964 4.71161 19.0157 4.67302C18.9565 4.64023 18.8903 4.6222 18.8227 4.62041H18.8193Z" fill="black"/>
<path d="M12.8057 17.3103C12.5506 17.3115 12.3006 17.2384 12.0865 17.0998C11.4704 17.1155 10.8585 16.9957 10.2937 16.749C10.2725 16.7399 10.2533 16.7266 10.2373 16.7099C10.2213 16.6932 10.2088 16.6734 10.2006 16.6518C10.1925 16.6302 10.1887 16.6072 10.1896 16.5841C10.1905 16.561 10.1961 16.5383 10.206 16.5174C10.2252 16.4751 10.2603 16.4422 10.3037 16.4257C10.3471 16.4093 10.3952 16.4107 10.4376 16.4297C10.9713 16.6667 11.552 16.7794 12.1356 16.7595H12.1952L12.2443 16.7946C12.3887 16.8962 12.558 16.9567 12.7341 16.9697C12.9102 16.9827 13.0865 16.9476 13.2442 16.8682C13.2911 16.8467 13.332 16.8143 13.3636 16.7735C13.3834 16.7406 13.3987 16.7052 13.4091 16.6683C13.4709 16.5177 13.5054 16.3573 13.5109 16.1946C13.4963 16.0692 13.4448 15.951 13.363 15.8548C13.2812 15.7586 13.1727 15.6889 13.0513 15.6544L12.8373 15.5947L12.946 15.4017C12.9534 15.3877 12.9573 15.372 12.9573 15.3561C12.9573 15.3402 12.9534 15.3246 12.946 15.3105C12.9295 15.2906 12.9093 15.2742 12.8864 15.2622C12.8635 15.2501 12.8385 15.2427 12.8127 15.2404C12.7468 15.2312 12.6797 15.2445 12.6224 15.2783C12.5651 15.3121 12.5209 15.3642 12.497 15.4263L12.3882 15.6859L12.2023 15.4754C11.8608 15.0986 11.3999 14.8508 10.8972 14.7738C10.8611 14.7918 10.8199 14.7971 10.7804 14.7888C10.7409 14.7805 10.7054 14.7592 10.6796 14.7281C10.6567 14.6993 10.6426 14.6644 10.6388 14.6277C10.6351 14.591 10.642 14.554 10.6586 14.5211C10.6804 14.4841 10.7127 14.4543 10.7514 14.4355C10.7901 14.4168 10.8335 14.41 10.8761 14.4159C11.4146 14.4845 11.9172 14.7229 12.3111 15.0965C12.3816 15.022 12.4693 14.9658 12.5665 14.9327C12.6637 14.8997 12.7674 14.8909 12.8688 14.9071C13.009 14.9305 13.1347 15.0072 13.2197 15.1211C13.2771 15.1994 13.3079 15.2941 13.3074 15.3912C13.4617 15.4647 13.5943 15.5771 13.6921 15.7174C13.7899 15.8576 13.8496 16.0209 13.8652 16.1911C13.8633 16.3991 13.8228 16.6049 13.7459 16.7981C13.7247 16.8624 13.6952 16.9237 13.6582 16.9805C13.5952 17.0701 13.5108 17.1425 13.4126 17.191C13.2229 17.2791 13.0147 17.32 12.8057 17.3103Z" fill="black"/>
<path d="M17.1487 17.4191C17.0143 17.4199 16.8813 17.3912 16.7592 17.3349C16.6422 17.2754 16.5366 17.1958 16.447 17.0998C16.3276 16.9746 16.2378 16.8242 16.1843 16.6596C16.1309 16.495 16.1152 16.3205 16.1383 16.1491C16.1681 15.9974 16.2332 15.8548 16.3282 15.733C16.4233 15.6111 16.5457 15.5133 16.6856 15.4474C16.6734 15.3475 16.6866 15.2461 16.7241 15.1527C16.7571 15.0672 16.8135 14.9927 16.8866 14.9375C16.9598 14.8823 17.0469 14.8487 17.1382 14.8405C17.1889 14.8364 17.24 14.8427 17.2882 14.859C17.3365 14.8752 17.3809 14.9012 17.4188 14.9352C17.8605 14.3878 18.4821 14.0148 19.173 13.8827C19.2185 13.8745 19.2656 13.8846 19.3037 13.9109C19.3418 13.9372 19.3679 13.9775 19.3765 14.023C19.381 14.0456 19.381 14.0689 19.3764 14.0915C19.3718 14.1141 19.3626 14.1355 19.3495 14.1545C19.3364 14.1735 19.3196 14.1896 19.3002 14.202C19.2807 14.2144 19.2589 14.2227 19.2362 14.2265C18.8966 14.2906 18.5731 14.4217 18.2846 14.612C17.9961 14.8023 17.7483 15.0481 17.5557 15.3351L17.3276 15.686L17.2364 15.2895C17.232 15.2679 17.2214 15.248 17.2058 15.2324C17.1902 15.2168 17.1703 15.2062 17.1487 15.2018C17.1246 15.2062 17.1021 15.217 17.0836 15.233C17.0651 15.2491 17.0512 15.2698 17.0434 15.293C17.0172 15.3656 17.0172 15.445 17.0434 15.5176L17.0995 15.693L16.9206 15.7421C16.8073 15.7731 16.7052 15.8358 16.6263 15.9228C16.5474 16.0098 16.4949 16.1175 16.4751 16.2333C16.4614 16.3519 16.4739 16.472 16.5115 16.5853C16.549 16.6986 16.6108 16.8024 16.6926 16.8893C16.7519 16.9535 16.8219 17.007 16.8995 17.0472C17.0502 17.1088 17.219 17.1088 17.3697 17.0472C17.532 16.9799 17.6718 16.868 17.7731 16.7244L17.8258 16.6508H17.9135C18.2778 16.6472 18.6362 16.5592 18.9607 16.3936C19.2852 16.228 19.5669 15.9894 19.7835 15.6965C19.7971 15.6778 19.8142 15.6619 19.8339 15.6499C19.8536 15.6378 19.8755 15.6298 19.8983 15.6262C19.9211 15.6226 19.9444 15.6236 19.9668 15.629C19.9892 15.6344 20.0104 15.6442 20.0291 15.6579C20.0481 15.6708 20.0641 15.6875 20.0764 15.7069C20.0887 15.7262 20.097 15.7479 20.1006 15.7706C20.1042 15.7933 20.1032 15.8165 20.0975 15.8387C20.0918 15.8609 20.0816 15.8818 20.0676 15.9C19.8281 16.2259 19.5183 16.4939 19.1612 16.684C18.8041 16.8741 18.4089 16.9814 18.0047 16.9981C17.8704 17.165 17.6952 17.2943 17.496 17.3735C17.3839 17.4091 17.2663 17.4246 17.1487 17.4191Z" fill="black"/>
<path d="M15.2862 20.3066C14.5196 20.3 13.782 20.013 13.2127 19.4996C12.5269 18.8569 12.1065 17.9809 12.0339 17.0438C12.0318 17.0208 12.0343 16.9975 12.0412 16.9755C12.0481 16.9534 12.0593 16.9329 12.0741 16.9151C12.0889 16.8974 12.1071 16.8827 12.1276 16.872C12.1481 16.8613 12.1705 16.8547 12.1936 16.8526C12.2166 16.8505 12.2398 16.853 12.2618 16.8599C12.2839 16.8668 12.3045 16.878 12.3222 16.8928C12.34 16.9076 12.3546 16.9258 12.3653 16.9463C12.376 16.9668 12.3827 16.9892 12.3848 17.0122C12.4489 17.8562 12.8239 18.6463 13.4373 19.2295C13.7432 19.51 14.1096 19.7164 14.5081 19.8326C14.9066 19.9488 15.3265 19.9717 15.7353 19.8996C16.1457 19.8151 16.5304 19.6348 16.8579 19.3733C17.224 19.0799 17.5167 18.7051 17.7128 18.2788C17.9089 17.8526 18.003 17.3865 17.9876 16.9175C17.9862 16.8946 17.9894 16.8717 17.9969 16.8501C18.0045 16.8285 18.0163 16.8086 18.0316 16.7916C18.047 16.7746 18.0656 16.7608 18.0864 16.7511C18.1071 16.7414 18.1296 16.7359 18.1525 16.735C18.1757 16.7326 18.1993 16.735 18.2215 16.7422C18.2438 16.7493 18.2643 16.761 18.2818 16.7765C18.2993 16.7921 18.3133 16.811 18.3231 16.8323C18.3329 16.8535 18.3381 16.8766 18.3384 16.9C18.3582 17.4269 18.2543 17.9511 18.035 18.4305C17.8156 18.91 17.487 19.3314 17.0754 19.661C16.7046 19.9572 16.2697 20.1627 15.8054 20.261C15.634 20.2913 15.4603 20.3066 15.2862 20.3066Z" fill="black"/>
<path d="M12.7249 15.156C12.6928 15.1567 12.6611 15.1481 12.6337 15.1314C12.5944 15.1074 12.5662 15.069 12.555 15.0243C12.5439 14.9797 12.5507 14.9325 12.574 14.8928C12.8369 14.441 13.2119 14.0646 13.6629 13.8003C14.1139 13.536 14.6255 13.3927 15.1482 13.3842C15.6709 13.3757 16.1869 13.5024 16.6462 13.752C17.1055 14.0015 17.4926 14.3655 17.7699 14.8086C17.7949 14.8477 17.8035 14.8952 17.7936 14.9406C17.7837 14.9859 17.7563 15.0256 17.7173 15.0507C17.6978 15.0634 17.6761 15.0721 17.6532 15.0762C17.6303 15.0802 17.6069 15.0796 17.5843 15.0744C17.5616 15.0691 17.5403 15.0594 17.5216 15.0456C17.5028 15.0319 17.4871 15.0146 17.4752 14.9946C17.2296 14.6025 16.887 14.2805 16.4804 14.0597C16.0739 13.8389 15.6173 13.7268 15.1547 13.7342C14.6921 13.7416 14.2393 13.8683 13.8401 14.102C13.4408 14.3357 13.1086 14.6685 12.8757 15.0683C12.8604 15.0948 12.8385 15.1168 12.812 15.1322C12.7855 15.1476 12.7555 15.1558 12.7249 15.156Z" fill="black"/>
<path d="M13.6686 11.146C13.5116 11.1489 13.3558 11.1191 13.2109 11.0588C13.066 10.9984 12.9351 10.9086 12.8266 10.7952C12.8098 10.7794 12.7965 10.7604 12.7873 10.7393C12.7782 10.7182 12.7734 10.6954 12.7734 10.6724C12.7734 10.6494 12.7782 10.6266 12.7873 10.6055C12.7965 10.5844 12.8098 10.5653 12.8266 10.5496C12.8426 10.5333 12.8617 10.5203 12.8828 10.5114C12.9039 10.5026 12.9265 10.498 12.9494 10.498C12.9722 10.498 12.9949 10.5026 13.016 10.5114C13.0371 10.5203 13.0562 10.5333 13.0722 10.5496C13.1618 10.6341 13.269 10.6977 13.386 10.7359C13.5031 10.7741 13.6271 10.786 13.7493 10.7706C13.8734 10.7667 13.9948 10.7327 14.1029 10.6716C14.2111 10.6105 14.3028 10.5241 14.3703 10.4198C14.4312 10.2685 14.4576 10.1055 14.4474 9.94265C14.4474 9.76723 14.4474 9.59181 14.4474 9.40937C14.4465 9.38633 14.4501 9.36335 14.4581 9.34171C14.466 9.32006 14.4782 9.30019 14.4939 9.28325C14.5095 9.2663 14.5283 9.25261 14.5493 9.24295C14.5702 9.23329 14.5928 9.22786 14.6158 9.22695C14.6389 9.22601 14.6619 9.22962 14.6836 9.23757C14.7052 9.24553 14.7251 9.25767 14.742 9.27331C14.759 9.28895 14.7727 9.30779 14.7823 9.32873C14.792 9.34967 14.7974 9.37231 14.7983 9.39535C14.7983 9.57778 14.7983 9.74619 14.7983 9.94616C14.8096 10.164 14.77 10.3814 14.6826 10.5812C14.5895 10.7408 14.4578 10.8745 14.2997 10.9701C14.1416 11.0658 13.962 11.1202 13.7774 11.1285L13.6686 11.146Z" fill="black"/>
<path d="M15.4684 11.1109C15.304 11.1107 15.1415 11.076 14.9913 11.0092C14.8349 10.9472 14.6998 10.8414 14.6021 10.7045C14.5043 10.5676 14.4482 10.4054 14.4404 10.2374C14.4422 10.1917 14.4614 10.1485 14.494 10.1165C14.5267 10.0846 14.5702 10.0663 14.6158 10.0654C14.6389 10.0663 14.6615 10.0718 14.6825 10.0814C14.7034 10.0911 14.7223 10.1048 14.7379 10.1217C14.7535 10.1387 14.7657 10.1585 14.7736 10.1802C14.7816 10.2018 14.7853 10.2248 14.7843 10.2479C14.795 10.3468 14.8337 10.4406 14.8958 10.5183C14.958 10.5959 15.041 10.6543 15.1352 10.6864C15.311 10.7646 15.5085 10.7794 15.6941 10.7282C15.8796 10.677 16.0417 10.5631 16.1526 10.4058C16.1651 10.3855 16.1816 10.3681 16.2011 10.3544C16.2206 10.3408 16.2427 10.3313 16.266 10.3265C16.2894 10.3217 16.3134 10.3216 16.3367 10.3264C16.36 10.3312 16.3822 10.3406 16.4017 10.3542C16.4213 10.3678 16.4379 10.3852 16.4505 10.4054C16.4631 10.4256 16.4714 10.4482 16.475 10.4717C16.4786 10.4952 16.4773 10.5192 16.4714 10.5423C16.4654 10.5653 16.4548 10.5869 16.4403 10.6057C16.2822 10.8295 16.0516 10.9919 15.7877 11.0653C15.6842 11.0965 15.5766 11.1119 15.4684 11.1109Z" fill="black"/>
<path d="M14.6544 9.5954H14.5526C14.3972 9.57546 14.2484 9.52026 14.1176 9.43401C14.0423 9.37941 13.9828 9.30584 13.9453 9.22079C13.9077 9.13575 13.8933 9.04226 13.9036 8.94985L13.9281 8.79199H14.0895C14.4468 8.82046 14.8058 8.82046 15.1631 8.79199H15.3105L15.3631 8.99195V9.01651C15.36 9.11486 15.3339 9.21113 15.287 9.29763C15.2401 9.38412 15.1736 9.45846 15.0929 9.51471C14.957 9.58156 14.8052 9.60948 14.6544 9.5954ZM14.3491 9.16388C14.4271 9.20368 14.5114 9.22977 14.5983 9.24105C14.697 9.25061 14.7966 9.23741 14.8894 9.20247C14.9106 9.18777 14.9296 9.17003 14.9456 9.14983C14.7561 9.16386 14.5561 9.16739 14.3491 9.16388Z" fill="black"/>
<path d="M14.335 9.14624C14.5602 9.19705 14.7939 9.19705 15.0191 9.14624H14.335Z" fill="black"/>
<path d="M14.7005 9.36376C14.5634 9.36335 14.4268 9.34688 14.2936 9.31466C14.2485 9.30383 14.2096 9.27562 14.1853 9.23618C14.161 9.19674 14.1532 9.14927 14.1638 9.10415C14.1687 9.0816 14.1781 9.0603 14.1915 9.04147C14.2048 9.02265 14.2218 9.00669 14.2415 8.99458C14.2611 8.98246 14.283 8.97443 14.3058 8.97096C14.3286 8.96748 14.3519 8.96863 14.3742 8.97434C14.5754 9.01824 14.7836 9.01824 14.9847 8.97434C15.0073 8.96973 15.0306 8.96962 15.0532 8.974C15.0758 8.97838 15.0973 8.98718 15.1165 8.99989C15.1357 9.01259 15.1523 9.02895 15.1652 9.04805C15.1781 9.06714 15.1871 9.08859 15.1917 9.11117C15.1968 9.13378 15.1973 9.15719 15.1931 9.17999C15.1889 9.20279 15.1802 9.22451 15.1674 9.24385C15.1546 9.26318 15.1381 9.27973 15.1187 9.2925C15.0994 9.30527 15.0776 9.31401 15.0548 9.31817C14.9386 9.34569 14.8199 9.36096 14.7005 9.36376Z" fill="black"/>
<path d="M16.2053 9.12177C16.3041 9.12177 16.3842 9.04166 16.3842 8.94284C16.3842 8.84402 16.3041 8.76392 16.2053 8.76392C16.1065 8.76392 16.0264 8.84402 16.0264 8.94284C16.0264 9.04166 16.1065 9.12177 16.2053 9.12177Z" fill="black"/>
<path d="M16.2082 9.28663C16.1388 9.28663 16.0711 9.26606 16.0134 9.22751C15.9557 9.18896 15.9107 9.13416 15.8841 9.07006C15.8576 9.00595 15.8506 8.93541 15.8642 8.86736C15.8777 8.7993 15.9111 8.73679 15.9602 8.68772C16.0092 8.63866 16.0717 8.60524 16.1398 8.5917C16.2079 8.57817 16.2784 8.58511 16.3425 8.61166C16.4066 8.63822 16.4614 8.6832 16.5 8.74089C16.5385 8.79859 16.5591 8.86641 16.5591 8.93579C16.5591 9.02884 16.5222 9.11807 16.4564 9.18387C16.3906 9.24966 16.3013 9.28663 16.2082 9.28663Z" fill="black"/>
<path d="M12.9114 9.38843C12.842 9.38843 12.7741 9.36786 12.7164 9.32931C12.6587 9.29076 12.6138 9.23596 12.5872 9.17186C12.5607 9.10775 12.5538 9.03721 12.5673 8.96916C12.5808 8.9011 12.6142 8.83859 12.6633 8.78952C12.7124 8.74046 12.7749 8.70704 12.8429 8.69351C12.911 8.67997 12.9815 8.68693 13.0456 8.71348C13.1097 8.74004 13.1645 8.785 13.2031 8.84269C13.2416 8.90039 13.2622 8.96821 13.2622 9.0376C13.2622 9.13064 13.2252 9.2199 13.1594 9.28569C13.0936 9.35149 13.0044 9.38843 12.9114 9.38843Z" fill="black"/>
<path d="M21.931 19.6819H21.7837C21.7383 19.6749 21.6974 19.6505 21.6699 19.6137C21.6423 19.577 21.6303 19.5309 21.6363 19.4854C21.6389 19.4624 21.6461 19.4402 21.6574 19.4201C21.6688 19.3999 21.6842 19.3823 21.7025 19.3682C21.7208 19.3541 21.7418 19.3439 21.7642 19.3381C21.7866 19.3323 21.8099 19.3311 21.8328 19.3346C21.9261 19.3442 22.0204 19.3354 22.1103 19.3087C22.2002 19.2819 22.2839 19.2377 22.3567 19.1786C22.4295 19.1194 22.49 19.0465 22.5346 18.964C22.5793 18.8815 22.6073 18.7911 22.6169 18.6978C22.6266 18.6045 22.6178 18.5102 22.5911 18.4203C22.5643 18.3304 22.5201 18.2467 22.461 18.1738C22.4018 18.101 22.3289 18.0406 22.2464 17.9959C22.1639 17.9513 22.0734 17.9233 21.9801 17.9137C21.9339 17.9101 21.8909 17.8887 21.8602 17.854C21.8294 17.8193 21.8133 17.774 21.8152 17.7277C21.8166 17.7047 21.8224 17.6821 21.8325 17.6613C21.8426 17.6406 21.8567 17.622 21.874 17.6067C21.8913 17.5913 21.9114 17.5796 21.9332 17.5721C21.9551 17.5645 21.9781 17.5614 22.0012 17.5628C22.2836 17.5721 22.5508 17.6932 22.7439 17.8995C22.937 18.1058 23.0402 18.3803 23.0309 18.6627C23.0216 18.9451 22.9005 19.2122 22.6942 19.4053C22.4879 19.5985 22.2134 19.7017 21.931 19.6924V19.6819Z" fill="black"/>
</g>
<defs>
<clipPath id="clip0_934:1053">
<rect width="30" height="30" fill="white"/>
</clipPath>
</defs>
</svg>
