<svg width="30" height="30" viewBox="0 0 30 30" fill="none" xmlns="http://www.w3.org/2000/svg">
<g clip-path="url(#clip0_934:876)">
<path d="M15.0019 29.4774C22.9965 29.4774 29.4774 22.9965 29.4774 15.0019C29.4774 7.00727 22.9965 0.526367 15.0019 0.526367C7.00727 0.526367 0.526367 7.00727 0.526367 15.0019C0.526367 22.9965 7.00727 29.4774 15.0019 29.4774Z" fill="#8E83C7"/>
<path d="M15.0013 30.0035C12.0341 30.0042 9.13337 29.125 6.66588 27.477C4.1984 25.829 2.275 23.4863 1.13902 20.7451C0.00303075 18.004 -0.294511 14.9875 0.283939 12.0772C0.862388 9.16694 2.2909 6.49355 4.38879 4.39517C6.48668 2.29678 9.15969 0.867645 12.0698 0.288514C14.98 -0.290616 17.9965 0.00627779 20.738 1.14162C23.4794 2.27697 25.8225 4.19976 27.4711 6.66686C29.1197 9.13397 29.9996 12.0346 29.9996 15.0018C29.9949 18.9785 28.4134 22.791 25.6018 25.6032C22.7902 28.4155 18.978 29.9979 15.0013 30.0035ZM15.0013 1.05252C12.2423 1.05183 9.54504 1.86935 7.25064 3.40169C4.95624 4.93403 3.16776 7.11235 2.11144 9.66118C1.05512 12.21 0.778394 15.0148 1.31623 17.721C1.85407 20.4271 3.18225 22.913 5.13295 24.8641C7.08364 26.8153 9.56917 28.1442 12.2752 28.6827C14.9811 29.2212 17.786 28.9452 20.3351 27.8895C22.8842 26.8338 25.063 25.0459 26.596 22.7519C28.1289 20.4579 28.9471 17.7608 28.9471 15.0018C28.9387 11.307 27.4663 7.76612 24.8524 5.15483C22.2385 2.54353 18.6961 1.07469 15.0013 1.07006V1.05252Z" fill="black"/>
<path d="M13.3667 12.2055L11.3319 13.258C11.2985 13.2744 11.2612 13.2811 11.2242 13.2774C11.1872 13.2737 11.152 13.2598 11.1225 13.2372C11.093 13.2146 11.0704 13.1842 11.0572 13.1495C11.044 13.1148 11.0406 13.077 11.0477 13.0405L11.4512 10.8232C11.4567 10.7903 11.4541 10.7565 11.4437 10.7247C11.4333 10.6929 11.4154 10.6642 11.3915 10.6408L9.78471 9.05855C9.75641 9.03224 9.73617 8.99841 9.72638 8.96103C9.7166 8.92365 9.71761 8.88428 9.72938 8.84748C9.74116 8.81067 9.76318 8.77799 9.79285 8.75323C9.82252 8.72848 9.8586 8.7127 9.89692 8.70771L12.1529 8.40248C12.1845 8.39802 12.2146 8.38617 12.2408 8.36788C12.267 8.3496 12.2886 8.32537 12.3037 8.29722L13.3316 6.27291C13.3488 6.24144 13.3742 6.21518 13.4051 6.19689C13.436 6.1786 13.4712 6.16895 13.507 6.16895C13.5429 6.16895 13.5782 6.1786 13.6091 6.19689C13.6399 6.21518 13.6652 6.24144 13.6825 6.27291L14.6753 8.31478C14.6896 8.34395 14.7108 8.36916 14.7371 8.38814C14.7634 8.40712 14.794 8.41928 14.8262 8.42353L17.0751 8.77437C17.1128 8.78044 17.1481 8.79702 17.1769 8.82221C17.2056 8.8474 17.2267 8.88017 17.2377 8.91679C17.2487 8.95341 17.2491 8.99237 17.239 9.02923C17.2288 9.06609 17.2084 9.09936 17.1803 9.12521L15.5454 10.6794C15.5209 10.7024 15.5023 10.731 15.4913 10.7628C15.4803 10.7946 15.4772 10.8286 15.4823 10.8618L15.8331 13.0861C15.8398 13.1228 15.8361 13.1607 15.8224 13.1954C15.8087 13.2301 15.7856 13.2602 15.7557 13.2825C15.7258 13.3048 15.6902 13.3182 15.6531 13.3213C15.6159 13.3245 15.5786 13.3171 15.5454 13.3001L13.5281 12.2266C13.5043 12.2117 13.4776 12.2022 13.4497 12.1986C13.4219 12.1949 13.3936 12.1973 13.3667 12.2055Z" fill="#E6DAFC"/>
<path d="M15.6577 13.4791C15.5978 13.48 15.5386 13.4655 15.4858 13.437L13.465 12.3635L13.3667 12.2056L13.4474 12.3635L11.4126 13.416C11.3497 13.4469 11.2794 13.4598 11.2097 13.4532C11.1399 13.4467 11.0733 13.4209 11.0173 13.3787C10.9613 13.3365 10.9181 13.2796 10.8925 13.2143C10.8669 13.1491 10.8599 13.078 10.8723 13.009L11.2758 10.7917L9.65839 9.18137C9.61081 9.12921 9.57846 9.06498 9.56485 8.9957C9.55124 8.92642 9.5569 8.85473 9.58121 8.78844C9.60071 8.72048 9.64032 8.66 9.69479 8.61493C9.74926 8.56985 9.81608 8.5423 9.88648 8.53585L12.1423 8.2306L13.1948 6.19224C13.2261 6.13076 13.2737 6.07918 13.3326 6.04325C13.3914 6.00732 13.4592 5.98845 13.5281 5.98877C13.5978 5.9891 13.666 6.00901 13.725 6.04623C13.7839 6.08344 13.8312 6.13647 13.8614 6.19927L14.8543 8.24114L17.1242 8.59197C17.1938 8.60261 17.2589 8.6326 17.3123 8.6785C17.3656 8.72441 17.405 8.78438 17.4259 8.85159C17.4469 8.91954 17.4484 8.99198 17.4304 9.06077C17.4124 9.12957 17.3757 9.19197 17.3242 9.24101L15.6857 10.7952L16.0366 13.0476C16.0451 13.1146 16.0353 13.1826 16.0081 13.2444C15.9809 13.3062 15.9374 13.3595 15.8822 13.3984C15.8191 13.4507 15.7397 13.4793 15.6577 13.4791ZM9.90747 8.91825L11.5143 10.5005C11.5604 10.5452 11.5946 10.6007 11.6136 10.662C11.6326 10.7233 11.6359 10.7885 11.6231 10.8514L11.2196 13.0686L11.3319 13.2546L11.2512 13.1002L13.2896 12.0477C13.3429 12.0169 13.4034 12.0007 13.465 12.0007C13.5266 12.0007 13.5871 12.0169 13.6404 12.0477L15.6612 13.1248L15.6928 13.0932L15.3419 10.8689C15.3286 10.8057 15.3319 10.7401 15.3516 10.6786C15.3713 10.6171 15.4066 10.5618 15.4542 10.5181L17.0926 8.96386V8.91474L14.8402 8.5639C14.7808 8.55308 14.7246 8.52881 14.676 8.49294C14.6273 8.45706 14.5875 8.41053 14.5596 8.35692L13.5668 6.31505L13.3667 6.23434L13.5246 6.31505L12.4932 8.33587C12.4661 8.39048 12.426 8.43758 12.3764 8.47306C12.3269 8.50855 12.2694 8.5313 12.209 8.53934L9.95312 8.84456L9.81976 9.01998L9.90747 8.91825Z" fill="black"/>
<path d="M12.8019 9.87951C12.9104 9.87951 12.9984 9.79155 12.9984 9.68304C12.9984 9.57453 12.9104 9.48657 12.8019 9.48657C12.6934 9.48657 12.6055 9.57453 12.6055 9.68304C12.6055 9.79155 12.6934 9.87951 12.8019 9.87951Z" fill="black"/>
<path d="M14.2297 9.7882C14.3382 9.7882 14.4261 9.70024 14.4261 9.59173C14.4261 9.48323 14.3382 9.39526 14.2297 9.39526C14.1212 9.39526 14.0332 9.48323 14.0332 9.59173C14.0332 9.70024 14.1212 9.7882 14.2297 9.7882Z" fill="black"/>
<path d="M13.5178 11.2444H13.4581C13.0953 11.2277 12.7499 11.0836 12.4828 10.8375C12.4484 10.8058 12.4279 10.7618 12.4259 10.7151C12.424 10.6684 12.4406 10.6228 12.4723 10.5884C12.5039 10.5539 12.548 10.5335 12.5947 10.5315C12.6414 10.5295 12.6869 10.5462 12.7214 10.5778C12.9268 10.7679 13.1926 10.8797 13.4722 10.8936C13.6636 10.8918 13.8522 10.8481 14.0249 10.7657C14.1976 10.6833 14.3502 10.5641 14.472 10.4165C14.5013 10.3802 14.5438 10.357 14.5902 10.3521C14.6366 10.3471 14.6831 10.3608 14.7194 10.3901C14.7557 10.4194 14.7789 10.462 14.7838 10.5084C14.7887 10.5547 14.775 10.6012 14.7457 10.6375C14.5969 10.8213 14.4102 10.9707 14.1982 11.0754C13.9862 11.1802 13.7541 11.2378 13.5178 11.2444Z" fill="black"/>
<path d="M23.3767 20.1065C23.3775 20.4749 23.2382 20.8298 22.9872 21.0994C22.7369 21.3652 22.394 21.5246 22.0294 21.5449L11.0412 22.1905L5.49808 21.1695C5.35743 21.1437 5.22713 21.0781 5.12266 20.9805C5.01818 20.8828 4.94386 20.7573 4.90861 20.6187C4.82387 20.3328 4.76168 20.0407 4.72266 19.7451C4.73894 19.6542 4.7905 19.5733 4.86604 19.5201C4.94158 19.4669 5.03505 19.4456 5.12617 19.4609L10.9605 20.6608L12.192 19.3943H22.6539C22.8438 19.3943 23.026 19.469 23.1613 19.6022C23.2965 19.7355 23.3739 19.9166 23.3767 20.1065Z" fill="#E6DAFC"/>
<path d="M11.0409 22.366H11.0093L5.46611 21.345C5.29253 21.3123 5.13181 21.2309 5.00264 21.1104C4.87346 20.9899 4.78109 20.8353 4.73634 20.6644C4.62698 20.3609 4.56312 20.0428 4.54688 19.7206C4.55781 19.6506 4.58274 19.5834 4.62011 19.5232C4.65747 19.4629 4.70654 19.4107 4.76443 19.3698C4.82146 19.33 4.88622 19.3025 4.9545 19.2892C5.02278 19.276 5.09303 19.2771 5.16084 19.2926L10.9006 20.4714L12.0654 19.2751C12.0816 19.258 12.1012 19.2444 12.1229 19.2354C12.1447 19.2263 12.168 19.2219 12.1916 19.2225H22.6536C22.89 19.2224 23.1168 19.3156 23.2849 19.4818C23.4531 19.648 23.549 19.8737 23.5517 20.1101C23.5542 20.5221 23.3982 20.9193 23.1162 21.2197C22.8341 21.52 22.4475 21.7005 22.0361 21.7239L11.0514 22.3695L11.0409 22.366ZM5.05214 19.6259C5.0208 19.6266 4.99033 19.6363 4.96444 19.654C4.94565 19.6677 4.92971 19.685 4.91767 19.7048C4.90562 19.7247 4.89764 19.7468 4.8942 19.7698C4.93888 20.041 4.99981 20.3093 5.07664 20.5732C5.1042 20.6792 5.16144 20.775 5.24161 20.8496C5.32178 20.9242 5.42156 20.9743 5.52923 20.9942L11.0514 22.0116L22.0185 21.3696C22.339 21.3499 22.6399 21.2086 22.8596 20.9745C23.0794 20.7404 23.2015 20.4312 23.2009 20.1101C23.199 19.9661 23.1405 19.8287 23.0381 19.7276C22.9356 19.6265 22.7975 19.5698 22.6536 19.5698H12.2653L11.0865 20.7837C11.0655 20.8043 11.0399 20.8195 11.0118 20.828C10.9837 20.8366 10.954 20.8382 10.9251 20.8328L5.09069 19.6329L5.05214 19.6259Z" fill="black"/>
<path d="M13.0586 18.8643H12.3815L12.2236 14.77H13.213L13.0586 18.8643Z" fill="#CCBEE3"/>
<path d="M13.0545 19.0432H12.388C12.3426 19.0433 12.299 19.0258 12.2663 18.9944C12.2336 18.963 12.2144 18.9201 12.2125 18.8748L12.0547 14.7771C12.0549 14.7304 12.0724 14.6854 12.1038 14.6508C12.1372 14.6172 12.1827 14.5983 12.2301 14.5981H13.2195C13.2669 14.5983 13.3123 14.6172 13.3457 14.6508C13.3771 14.6854 13.3947 14.7304 13.3949 14.7771L13.237 18.8748C13.2361 18.8979 13.2307 18.9205 13.221 18.9415C13.2114 18.9624 13.1976 18.9812 13.1807 18.9969C13.1637 19.0125 13.1439 19.0247 13.1223 19.0326C13.1006 19.0406 13.0776 19.0442 13.0545 19.0432ZM12.5493 18.6924H12.9002L13.0441 14.949H12.4196L12.5493 18.6924Z" fill="black"/>
<path d="M14.4545 18.8643H13.7809L13.623 14.77H14.6089L14.4545 18.8643Z" fill="#CCBEE3"/>
<path d="M14.4546 19.0433H13.7916C13.7463 19.0433 13.7027 19.0258 13.67 18.9944C13.6373 18.963 13.618 18.9202 13.6162 18.8749L13.4583 14.7771C13.4569 14.7538 13.4605 14.7304 13.4689 14.7086C13.4774 14.6867 13.4905 14.6671 13.5074 14.6508C13.5236 14.6337 13.5432 14.6202 13.565 14.6111C13.5867 14.602 13.6102 14.5976 13.6337 14.5982H14.6196C14.667 14.5983 14.7124 14.6172 14.7459 14.6508C14.7773 14.6854 14.7948 14.7304 14.795 14.7771L14.6406 18.8749C14.6397 18.8982 14.6342 18.9212 14.6243 18.9424C14.6144 18.9635 14.6004 18.9825 14.5831 18.9982C14.5658 19.0139 14.5455 19.026 14.5234 19.0337C14.5014 19.0414 14.478 19.0447 14.4546 19.0433ZM13.9495 18.6924H14.3003L14.4407 14.949H13.7916L13.9495 18.6924Z" fill="black"/>
<path d="M15.8334 18.8643H15.1598L15.002 14.77H15.9878L15.8334 18.8643Z" fill="#CCBEE3"/>
<path d="M15.8334 19.0435H15.1597C15.1144 19.0435 15.0708 19.026 15.0381 18.9946C15.0054 18.9632 14.9861 18.9204 14.9843 18.8751L14.8264 14.7773C14.8252 14.7543 14.8286 14.7312 14.8364 14.7095C14.8443 14.6879 14.8564 14.668 14.8721 14.651C14.8891 14.634 14.9093 14.6205 14.9316 14.6115C14.9539 14.6025 14.9778 14.598 15.0018 14.5984H15.9877C16.0351 14.5985 16.0806 14.6175 16.1141 14.651C16.1454 14.6857 16.1629 14.7306 16.1631 14.7773L16.0088 18.8751C16.0061 18.9201 15.9866 18.9625 15.9541 18.9937C15.9215 19.0249 15.8784 19.0427 15.8334 19.0435ZM15.3281 18.6927H15.6615L15.8053 14.9493H15.1948L15.3281 18.6927Z" fill="black"/>
<path d="M17.2289 18.8643H16.5553L16.3975 14.77H17.3833L17.2289 18.8643Z" fill="#CCBEE3"/>
<path d="M17.2289 19.0433H16.5553C16.5099 19.0433 16.4664 19.0258 16.4337 18.9944C16.401 18.963 16.3817 18.9202 16.3798 18.8749L16.222 14.7771C16.2205 14.7538 16.2242 14.7304 16.2327 14.7086C16.2412 14.6867 16.2543 14.6671 16.2712 14.6508C16.2874 14.6337 16.307 14.6202 16.3287 14.6111C16.3505 14.602 16.3738 14.5976 16.3974 14.5982H17.3833C17.4068 14.5976 17.4303 14.602 17.4521 14.6111C17.4738 14.6202 17.4934 14.6337 17.5096 14.6508C17.5258 14.6676 17.5384 14.6873 17.5468 14.709C17.5552 14.7307 17.5593 14.7539 17.5587 14.7771L17.4043 18.8749C17.4025 18.9202 17.3833 18.963 17.3506 18.9944C17.3179 19.0258 17.2743 19.0433 17.2289 19.0433ZM16.7237 18.6924H17.0746L17.2149 14.949H16.5974L16.7237 18.6924Z" fill="black"/>
<path d="M18.6401 18.8643H17.9665L17.8086 14.77H18.7944L18.6401 18.8643Z" fill="#CCBEE3"/>
<path d="M18.6401 19.0433H17.9664C17.9211 19.0433 17.8775 19.0258 17.8448 18.9944C17.8121 18.963 17.7928 18.9202 17.791 18.8749L17.6331 14.7771C17.6317 14.7538 17.6353 14.7304 17.6438 14.7086C17.6523 14.6867 17.6654 14.6671 17.6823 14.6508C17.6985 14.6337 17.7181 14.6202 17.7398 14.6111C17.7616 14.602 17.785 14.5976 17.8085 14.5982H18.7944C18.818 14.5976 18.8414 14.602 18.8631 14.6111C18.8849 14.6202 18.9046 14.6337 18.9208 14.6508C18.9369 14.6676 18.9495 14.6873 18.9579 14.709C18.9664 14.7307 18.9704 14.7539 18.9698 14.7771L18.8155 18.8749C18.8137 18.9202 18.7944 18.963 18.7617 18.9944C18.729 19.0258 18.6854 19.0433 18.6401 19.0433ZM18.1348 18.6924H18.4856L18.626 14.949H18.0015L18.1348 18.6924Z" fill="black"/>
<path d="M20.0366 18.8643H19.363L19.2051 14.77H20.1909L20.0366 18.8643Z" fill="#CCBEE3"/>
<path d="M20.0362 19.0433H19.3626C19.3172 19.0433 19.2737 19.0258 19.241 18.9944C19.2083 18.963 19.189 18.9202 19.1872 18.8749L19.0293 14.7771C19.0295 14.7304 19.0471 14.6854 19.0785 14.6508C19.0948 14.6339 19.1144 14.6205 19.1361 14.6114C19.1578 14.6024 19.1812 14.5978 19.2047 14.5982H20.1906C20.2141 14.5976 20.2376 14.602 20.2594 14.6111C20.2811 14.6202 20.3007 14.6337 20.3169 14.6508C20.3338 14.6671 20.3469 14.6867 20.3554 14.7086C20.3639 14.7304 20.3675 14.7538 20.366 14.7771L20.2117 18.8749C20.2098 18.9202 20.1906 18.963 20.1579 18.9944C20.1252 19.0258 20.0816 19.0433 20.0362 19.0433ZM19.5311 18.6924H19.8819L20.0222 14.949H19.4047L19.5311 18.6924Z" fill="black"/>
<path d="M21.4155 18.8643H20.7419L20.584 14.77H21.5698L21.4155 18.8643Z" fill="#CCBEE3"/>
<path d="M21.4151 19.0433H20.7415C20.6961 19.0433 20.6526 19.0258 20.6199 18.9944C20.5871 18.963 20.5679 18.9202 20.5661 18.8749L20.4082 14.7771C20.4084 14.7304 20.4259 14.6854 20.4573 14.6508C20.4735 14.6337 20.4931 14.6202 20.5148 14.6111C20.5366 14.602 20.5601 14.5976 20.5836 14.5982H21.5694C21.593 14.5976 21.6164 14.602 21.6382 14.6111C21.6599 14.6202 21.6795 14.6337 21.6957 14.6508C21.7126 14.6671 21.7257 14.6867 21.7342 14.7086C21.7427 14.7304 21.7463 14.7538 21.7448 14.7771L21.5905 18.8749C21.5887 18.9202 21.5694 18.963 21.5367 18.9944C21.504 19.0258 21.4604 19.0433 21.4151 19.0433ZM20.9099 18.6924H21.2607L21.401 14.949H20.78L20.9099 18.6924Z" fill="black"/>
<path d="M22.8149 18.8643H22.1378L21.9834 14.77H22.9692L22.8149 18.8643Z" fill="#CCBEE3"/>
<path d="M22.8115 19.0432H22.138C22.0926 19.0433 22.049 19.0258 22.0163 18.9944C21.9836 18.963 21.9644 18.9201 21.9625 18.8748L21.8047 14.7771C21.8049 14.7304 21.8224 14.6854 21.8538 14.6508C21.8872 14.6172 21.9327 14.5983 21.9801 14.5981H22.9694C23.0168 14.5983 23.0623 14.6172 23.0957 14.6508C23.1271 14.6854 23.1446 14.7304 23.1448 14.7771L22.987 18.8748C22.9851 18.9201 22.9659 18.963 22.9332 18.9944C22.9005 19.0258 22.8569 19.0433 22.8115 19.0432ZM22.3064 18.6924H22.6572L22.801 14.949H22.1765L22.3064 18.6924Z" fill="black"/>
<path d="M22.6855 12.5774C23.0717 12.4805 23.419 12.268 23.6811 11.9683C23.9432 11.6686 24.1075 11.296 24.152 10.9004C24.16 11.1105 24.2101 11.3169 24.2993 11.5073C24.3884 11.6978 24.5149 11.8684 24.6712 12.009C24.9556 12.2521 25.3181 12.3841 25.6922 12.3809C25.2931 12.5591 24.9548 12.8499 24.7186 13.2176C24.4824 13.5853 24.3586 14.0139 24.3625 14.4508C24.298 13.922 24.0496 13.4327 23.6608 13.0686C23.3827 12.8247 23.0471 12.6556 22.6855 12.5774Z" fill="#E6DAFC"/>
<path d="M24.3622 14.6264C24.3196 14.6268 24.2784 14.6117 24.2461 14.5839C24.2138 14.5562 24.1927 14.5176 24.1868 14.4755C24.1251 13.9861 23.8913 13.5347 23.5272 13.202C23.2764 12.9775 22.9719 12.8216 22.6431 12.7494C22.6051 12.7393 22.5715 12.7171 22.5474 12.686C22.5233 12.6549 22.5101 12.6168 22.5098 12.5775C22.5087 12.5383 22.5208 12.4999 22.5444 12.4687C22.5681 12.4374 22.6016 12.4151 22.6396 12.4056C22.989 12.3199 23.3037 12.1289 23.5409 11.8584C23.7782 11.588 23.9265 11.2511 23.9658 10.8935C23.9718 10.8498 23.9938 10.8098 24.0274 10.7814C24.0611 10.7529 24.1041 10.7378 24.1482 10.7391C24.1923 10.7408 24.2342 10.7591 24.2654 10.7903C24.2966 10.8215 24.3149 10.8634 24.3166 10.9075C24.3198 11.0833 24.3577 11.2568 24.428 11.418C24.4984 11.5792 24.5999 11.7249 24.7266 11.8468C24.8534 11.9687 25.0031 12.0644 25.1669 12.1283C25.3307 12.1923 25.5055 12.2233 25.6813 12.2196C25.7216 12.2181 25.7611 12.231 25.7927 12.2561C25.8242 12.2812 25.8457 12.3168 25.8532 12.3564C25.8617 12.3955 25.8566 12.4362 25.8388 12.472C25.8209 12.5077 25.7914 12.5362 25.7551 12.5529C25.3954 12.7177 25.0882 12.9788 24.8675 13.3072C24.6397 13.6505 24.5178 14.053 24.5166 14.465C24.5159 14.5095 24.4985 14.5521 24.468 14.5846C24.4376 14.617 24.3961 14.6369 24.3517 14.6404L24.3622 14.6264ZM23.1975 12.567C23.4027 12.663 23.5929 12.7883 23.7623 12.9388C23.9916 13.1431 24.1778 13.3912 24.3096 13.6686C24.376 13.4681 24.468 13.2771 24.5833 13.1002C24.7428 12.8611 24.9422 12.6511 25.1726 12.4792C24.943 12.4103 24.732 12.2903 24.5552 12.1284C24.3769 11.9738 24.2344 11.7823 24.1377 11.5671C23.944 11.992 23.6128 12.3393 23.1975 12.5529V12.567Z" fill="black"/>
<path d="M20.8355 11.8266C20.7303 11.8266 20.7653 11.4372 20.5337 11.125C20.3402 10.8923 20.0705 10.7357 19.7725 10.6829C20.0278 10.6124 20.2593 10.4742 20.4425 10.283C20.6415 10.0728 20.7756 9.80966 20.8285 9.52515C20.8992 9.78916 21.0342 10.0315 21.2215 10.2305C21.4089 10.4295 21.6428 10.5789 21.9021 10.6654C21.655 10.7523 21.4349 10.9023 21.2635 11.1004C20.9723 11.4407 20.9478 11.8336 20.8355 11.8266Z" fill="#E6DAFC"/>
<path d="M20.8433 12.0021C20.6644 12.0021 20.6222 11.8127 20.5906 11.6688C20.5596 11.5098 20.4977 11.3584 20.4083 11.2232C20.2436 11.0212 20.0098 10.8874 19.7522 10.8479C19.7138 10.8405 19.6791 10.8201 19.6542 10.79C19.6292 10.7599 19.6155 10.7221 19.6154 10.683C19.6138 10.6438 19.6254 10.6053 19.6483 10.5735C19.6712 10.5417 19.704 10.5185 19.7416 10.5075C19.9676 10.447 20.1726 10.3256 20.3345 10.1567C20.5144 9.97383 20.6365 9.74196 20.6854 9.49012C20.6854 9.44359 20.7038 9.39897 20.7367 9.36607C20.7696 9.33317 20.8142 9.3147 20.8608 9.3147C20.9073 9.3147 20.952 9.33317 20.9849 9.36607C21.0178 9.39897 21.0362 9.44359 21.0362 9.49012C21.1082 9.75794 21.2527 10.0007 21.4537 10.1918C21.6088 10.3392 21.7944 10.4506 21.9975 10.5181C22.0318 10.5291 22.0617 10.5506 22.0831 10.5795C22.1045 10.6085 22.1163 10.6435 22.1168 10.6795C22.117 10.716 22.1061 10.7517 22.0854 10.7818C22.0647 10.8119 22.0352 10.835 22.001 10.8479C21.7829 10.9246 21.5884 11.0563 21.4362 11.2303C21.3223 11.376 21.2334 11.5396 21.1731 11.7144C21.0713 11.8407 21.0082 12.0021 20.8433 12.0021ZM20.2398 10.6584C20.408 10.7402 20.5547 10.8604 20.6679 11.0092C20.7539 11.1309 20.8191 11.2661 20.8608 11.4092C20.9261 11.2517 21.0148 11.1051 21.1239 10.9741C21.2236 10.8511 21.3419 10.7446 21.4747 10.6584C21.3592 10.5889 21.2511 10.5078 21.152 10.4163C21.0242 10.2944 20.9144 10.1551 20.8257 10.0023C20.7524 10.1428 20.6603 10.2726 20.5521 10.3883C20.4626 10.4913 20.3599 10.5821 20.2468 10.6584H20.2398Z" fill="black"/>
</g>
<defs>
<clipPath id="clip0_934:876">
<rect width="30" height="30" fill="white"/>
</clipPath>
</defs>
</svg>
