<svg width="30" height="30" viewBox="0 0 30 30" fill="none" xmlns="http://www.w3.org/2000/svg">
<g clip-path="url(#clip0)">
<path d="M15.002 29.408C22.9581 29.408 29.4079 22.9582 29.4079 15.0021C29.4079 7.04592 22.9581 0.596191 15.002 0.596191C7.04584 0.596191 0.596107 7.04592 0.596107 15.0021C0.596107 22.9582 7.04584 29.408 15.002 29.408Z" fill="#8E83C7"/>
<path d="M14.9976 29.9996C12.0303 29.9996 9.12969 29.1196 6.66254 27.471C4.19539 25.8224 2.27255 23.4792 1.13721 20.7377C0.00185745 17.9962 -0.295 14.9796 0.284177 12.0694C0.863355 9.15919 2.29255 6.48609 4.39101 4.38819C6.48948 2.29028 9.16295 0.861793 12.0733 0.283387C14.9837 -0.295019 18.0002 0.00263741 20.7414 1.13871C23.4826 2.27479 25.8253 4.19825 27.4732 6.66583C29.1212 9.13342 30.0004 12.0343 29.9996 15.0016C29.9954 18.9787 28.4134 22.7916 25.6007 25.6035C22.7881 28.4154 18.9747 29.9964 14.9976 29.9996ZM14.9976 1.19179C12.2663 1.19179 9.59632 2.00173 7.32531 3.51917C5.05431 5.03661 3.28427 7.19339 2.23904 9.7168C1.19382 12.2402 0.920336 15.0169 1.45319 17.6957C1.98604 20.3746 3.3013 22.8352 5.23263 24.7666C7.16396 26.6979 9.62463 28.0131 12.3035 28.546C14.9823 29.0788 17.759 28.8054 20.2824 27.7601C22.8058 26.7149 24.9626 24.9449 26.48 22.6739C27.9975 20.4029 28.8074 17.7329 28.8074 15.0016C28.8032 11.3403 27.3469 7.83015 24.758 5.24123C22.169 2.65231 18.6589 1.196 14.9976 1.19179Z" fill="black"/>
<path d="M12.1407 8.56814C10.9485 8.31778 9.70465 9.00131 8.96151 9.967C8.21836 10.9327 7.85672 12.1408 7.54675 13.3251C7.23677 14.5093 6.93872 15.7095 6.27903 16.7507C5.88163 17.3587 5.3809 17.8873 4.97555 18.4873C4.52336 19.0646 4.29476 19.7857 4.33175 20.5181C4.42477 21.0515 4.69511 21.5379 5.09901 21.8985C5.50291 22.2591 6.01671 22.4729 6.55721 22.5051C8.42501 22.6005 9.81592 20.8916 10.6266 20.1962" fill="#CCBEE3"/>
<path d="M6.71608 22.64H6.55712C5.98437 22.6054 5.43988 22.3793 5.01106 21.9981C4.58224 21.6168 4.29398 21.1025 4.19257 20.5378C4.14028 19.7724 4.37078 19.0144 4.84033 18.4077C5.03109 18.1216 5.23774 17.8513 5.46028 17.589C5.70259 17.2964 5.92942 16.9913 6.13984 16.675C6.70033 15.6838 7.10258 14.6111 7.33205 13.4958L7.38372 13.2971C7.70959 12.0612 8.06725 10.865 8.82629 9.88736C9.6966 8.76271 11.0041 8.19442 12.1605 8.43684C12.199 8.44474 12.2327 8.46761 12.2543 8.5004C12.276 8.53319 12.2837 8.57323 12.2758 8.6117C12.2678 8.65017 12.245 8.68392 12.2122 8.70553C12.1794 8.72714 12.1394 8.73484 12.1009 8.72694C11.0557 8.50836 9.86351 9.03691 9.06076 10.0702C8.33748 11.0041 7.99174 12.1685 7.67382 13.3766L7.62216 13.5713C7.38575 14.72 6.96859 15.8239 6.38623 16.8419C6.17498 17.1686 5.94544 17.483 5.69873 17.7838C5.49208 18.0381 5.30132 18.3044 5.09467 18.5786C4.6668 19.1266 4.45345 19.8119 4.49459 20.506C4.58627 21.0019 4.84168 21.4528 5.21994 21.7864C5.5982 22.12 6.07745 22.317 6.58096 22.346C8.06328 22.4175 9.27933 21.269 10.0821 20.506C10.253 20.3431 10.408 20.196 10.547 20.0768C10.5607 20.0627 10.5771 20.0516 10.5952 20.0439C10.6133 20.0363 10.6327 20.0324 10.6524 20.0324C10.672 20.0324 10.6914 20.0363 10.7095 20.0439C10.7276 20.0516 10.744 20.0627 10.7577 20.0768C10.7851 20.105 10.8005 20.1428 10.8005 20.1821C10.8005 20.2214 10.7851 20.2592 10.7577 20.2874C10.6226 20.4027 10.4715 20.5457 10.3046 20.7047C9.4979 21.4876 8.26595 22.64 6.71608 22.64Z" fill="black"/>
<path d="M17.8435 8.56814C19.0357 8.31778 20.2835 9.00131 21.0227 9.967C21.7619 10.9327 22.1275 12.1408 22.4375 13.3251C22.7474 14.5093 23.0455 15.7095 23.7052 16.7507C24.1026 17.3587 24.6033 17.8873 25.0087 18.4873C25.4538 19.0674 25.6752 19.7882 25.6326 20.5181C25.5396 21.0515 25.2692 21.5379 24.8653 21.8985C24.4614 22.2591 23.9476 22.4729 23.4071 22.5051C21.5393 22.6005 20.2478 20.9552 19.4331 20.2598" fill="#CCBEE3"/>
<path d="M23.2719 22.6402C21.7459 22.6402 20.5934 21.5314 19.8225 20.7883C19.6516 20.6253 19.4966 20.4783 19.3575 20.3551C19.3435 20.3414 19.3323 20.325 19.3247 20.3069C19.317 20.2888 19.3131 20.2694 19.3131 20.2498C19.3131 20.2301 19.317 20.2107 19.3247 20.1926C19.3323 20.1745 19.3435 20.1582 19.3575 20.1445C19.3862 20.1179 19.4238 20.1032 19.4628 20.1032C19.5019 20.1032 19.5395 20.1179 19.5681 20.1445C19.7112 20.2677 19.8702 20.4226 20.045 20.5896C20.8398 21.3844 21.9565 22.4256 23.4349 22.354C23.9381 22.3256 24.4172 22.1286 24.7949 21.7949C25.1726 21.4611 25.4271 21.01 25.5173 20.514C25.5621 19.8202 25.3499 19.134 24.9212 18.5866C24.7344 18.3085 24.5238 18.0422 24.3171 17.7918C24.0663 17.4905 23.8315 17.1761 23.6137 16.85C23.035 15.8321 22.6193 14.7299 22.3818 13.5833L22.3301 13.3846C22.0122 12.1924 21.6664 11.0002 20.9432 10.0782C20.1483 9.04497 18.9561 8.51643 17.903 8.735C17.884 8.73906 17.8643 8.73928 17.8451 8.73567C17.826 8.73206 17.8077 8.72467 17.7915 8.71395C17.7752 8.70323 17.7612 8.68939 17.7504 8.67321C17.7395 8.65704 17.7319 8.63887 17.7282 8.61975C17.7235 8.60066 17.7229 8.58081 17.7262 8.56146C17.7296 8.5421 17.7369 8.52365 17.7477 8.50724C17.7585 8.49084 17.7726 8.47683 17.7891 8.46611C17.8055 8.45538 17.824 8.44816 17.8434 8.4449C18.9959 8.20248 20.3073 8.77076 21.1776 9.89542C21.9367 10.873 22.2943 12.0692 22.6202 13.3051L22.6719 13.5078C22.901 14.6233 23.3032 15.696 23.8641 16.687C24.0745 17.0034 24.3013 17.3085 24.5436 17.6011C24.7543 17.8634 24.9728 18.1336 25.1636 18.4197C25.6223 19.025 25.8455 19.7764 25.7915 20.5339C25.6892 21.1018 25.3981 21.6185 24.9652 22.0001C24.5324 22.3817 23.9833 22.6059 23.4071 22.6362L23.2719 22.6402Z" fill="black"/>
<path d="M14.5331 7.92429L13.0667 6.33468L14.239 6.83143C14.3145 6.87576 14.4025 6.89392 14.4894 6.8831C14.6722 6.83938 14.712 6.59696 14.708 6.40621L14.9663 7.24076C15.2928 6.76634 15.7291 6.3778 16.238 6.10815L15.8406 7.16923C15.8802 7.01373 15.9678 6.87467 16.0909 6.77182C16.1222 6.74798 16.1585 6.73148 16.197 6.72354C16.2355 6.71561 16.2754 6.71645 16.3135 6.72599C16.3517 6.73553 16.3872 6.75353 16.4175 6.77866C16.4477 6.80379 16.472 6.83541 16.4883 6.87117C16.4934 6.92381 16.488 6.97693 16.4723 7.02743C16.4566 7.07793 16.431 7.12478 16.3969 7.16525L15.8724 7.96006" fill="#CCBEE3"/>
<path d="M15.8564 8.13081C15.8282 8.13089 15.8005 8.1226 15.777 8.10697C15.7603 8.09649 15.7459 8.08276 15.7346 8.0666C15.7233 8.05044 15.7154 8.03218 15.7113 8.01291C15.7073 7.99363 15.7071 7.97373 15.7109 7.95439C15.7146 7.93505 15.7222 7.91667 15.7333 7.90033L16.2578 7.10552C16.2856 7.06578 16.3413 6.97835 16.3294 6.93464C16.3174 6.89092 16.3294 6.91477 16.2936 6.90682C16.2729 6.89796 16.2506 6.89339 16.228 6.89339C16.2055 6.89339 16.1832 6.89796 16.1625 6.90682C16.0692 6.99194 16.0029 7.10244 15.9717 7.22473C15.9574 7.26119 15.9296 7.29069 15.894 7.307C15.8584 7.32331 15.8179 7.32516 15.7809 7.31216C15.7626 7.30553 15.7457 7.2953 15.7313 7.28208C15.7169 7.26885 15.7054 7.25289 15.6972 7.23513C15.6891 7.21737 15.6846 7.19817 15.6839 7.17865C15.6833 7.15912 15.6865 7.13967 15.6935 7.12142L15.9359 6.46173C15.6002 6.69677 15.3095 6.99021 15.0775 7.32806C15.0621 7.35106 15.0405 7.36923 15.0152 7.38048C14.9899 7.39173 14.9619 7.3956 14.9345 7.39165C14.9068 7.38655 14.8808 7.37435 14.8592 7.35624C14.8377 7.33813 14.8211 7.31473 14.8113 7.28832L14.7 6.92272C14.649 6.97733 14.5824 7.01481 14.5093 7.03001C14.3923 7.04915 14.2723 7.02961 14.1675 6.97437L13.635 6.74786L14.6285 7.82084C14.6559 7.84903 14.6713 7.88682 14.6713 7.92616C14.6713 7.96549 14.6559 8.00327 14.6285 8.03146C14.6148 8.04552 14.5984 8.0567 14.5803 8.06433C14.5622 8.07196 14.5428 8.07589 14.5232 8.07589C14.5035 8.07589 14.4841 8.07196 14.466 8.06433C14.4479 8.0567 14.4315 8.04552 14.4178 8.03146L12.9514 6.44185C12.9305 6.41523 12.9191 6.38234 12.9191 6.34847C12.9191 6.31459 12.9305 6.28169 12.9514 6.25507C12.9702 6.22654 12.9985 6.20565 13.0313 6.19618C13.0641 6.1867 13.0992 6.18926 13.1303 6.2034L14.3026 6.70016C14.3535 6.72485 14.409 6.7384 14.4655 6.7399C14.545 6.7399 14.5689 6.55313 14.5689 6.41404C14.5674 6.37817 14.5792 6.343 14.6018 6.31519C14.6245 6.28737 14.6566 6.26882 14.6921 6.26303C14.7276 6.25753 14.764 6.26492 14.7946 6.28386C14.8252 6.3028 14.848 6.33205 14.859 6.36634L15.0298 6.91874C15.3448 6.5327 15.734 6.21377 16.1744 5.98086C16.2009 5.96519 16.2317 5.95826 16.2624 5.96106C16.2932 5.96385 16.3222 5.97623 16.3455 5.99644C16.3688 6.01666 16.3851 6.04368 16.3922 6.07369C16.3993 6.1037 16.3968 6.13518 16.385 6.16367L16.226 6.58889C16.2922 6.58417 16.3586 6.59365 16.4208 6.61671C16.4721 6.63443 16.5184 6.66428 16.5558 6.70371C16.5931 6.74315 16.6204 6.791 16.6354 6.84323C16.6457 6.91329 16.6415 6.98471 16.623 7.05308C16.6045 7.12144 16.5722 7.18528 16.5281 7.24063L16.0035 8.03544C15.9915 8.06432 15.971 8.08888 15.9447 8.1059C15.9185 8.12293 15.8877 8.13161 15.8564 8.13081Z" fill="black"/>
<path d="M10.2094 11.1035V11.2227C10.0663 11.5327 9.93117 11.8506 9.81195 12.1646L9.17213 13.6668C8.86021 14.327 8.62808 15.0221 8.48065 15.7372C8.34004 16.6427 8.48593 17.5695 8.89792 18.3879C9.11169 18.8159 9.39505 19.2053 9.73644 19.5404C9.42146 20.1142 8.97132 20.6025 8.42501 20.9631C7.72955 21.3605 6.70028 21.3287 6.25916 20.6571C6.11652 20.3852 6.04466 20.0818 6.05022 19.7748C6.05577 19.4678 6.13857 19.1671 6.29095 18.9006C6.55721 18.3482 6.96256 17.8753 7.2328 17.311C7.55333 16.5532 7.74539 15.7474 7.80109 14.9265C7.85671 14.1057 8.04877 13.2998 8.36937 12.5421C8.53661 12.1712 8.79145 11.8465 9.11197 11.5959C9.43248 11.3453 9.80907 11.1763 10.2094 11.1035Z" fill="#8E83C7"/>
<path d="M7.44336 21.3604C7.18913 21.3718 6.93606 21.3197 6.70707 21.2087C6.47808 21.0976 6.2804 20.9312 6.13193 20.7246C5.97374 20.4321 5.89289 20.1041 5.89707 19.7717C5.90124 19.4392 5.99029 19.1133 6.15578 18.825C6.30068 18.5404 6.46396 18.2656 6.64458 18.0023C6.81592 17.7631 6.97253 17.5136 7.11352 17.2552C7.42309 16.514 7.61097 15.7276 7.66988 14.9264C7.72729 14.0913 7.92477 13.2718 8.25407 12.5023C8.42736 12.1034 8.69653 11.7536 9.03765 11.4839C9.37876 11.2142 9.78124 11.033 10.2093 10.9564C10.2309 10.9538 10.2527 10.956 10.2734 10.9629C10.294 10.9697 10.3128 10.9811 10.3285 10.9961C10.3442 11.0108 10.3566 11.0287 10.3648 11.0486C10.373 11.0685 10.3769 11.0899 10.3762 11.1114V11.2266C10.3798 11.2463 10.3798 11.2665 10.3762 11.2862C10.2331 11.5922 10.098 11.9101 9.9788 12.2201L9.34295 13.7223C9.03375 14.3718 8.80424 15.0564 8.65942 15.761C8.52011 16.6346 8.65914 17.53 9.05682 18.3203C9.25813 18.7327 9.52674 19.1088 9.85163 19.433C9.87617 19.4568 9.89189 19.4883 9.89623 19.5222C9.90056 19.5561 9.89324 19.5905 9.87547 19.6198C9.55017 20.207 9.08973 20.7083 8.53225 21.0822C8.20126 21.272 7.82484 21.3682 7.44336 21.3604ZM10.0106 11.2902C9.68066 11.3938 9.37613 11.5654 9.11669 11.7941C8.85725 12.0227 8.64867 12.3032 8.50443 12.6175C8.19187 13.3578 8.00387 14.1447 7.94806 14.9463C7.88903 15.7811 7.69161 16.6004 7.36388 17.3705C7.22349 17.6445 7.0669 17.9099 6.89495 18.1653C6.72006 18.4188 6.56336 18.6844 6.42601 18.9601C6.28638 19.2003 6.20922 19.4716 6.20158 19.7493C6.19394 20.027 6.25608 20.3022 6.38229 20.5497C6.7797 21.1577 7.72552 21.1736 8.34944 20.808C8.84113 20.4869 9.2497 20.0538 9.54165 19.5443C9.22288 19.2179 8.95495 18.8455 8.74685 18.4395C8.3187 17.6005 8.16443 16.6485 8.30573 15.7173C8.45165 14.9874 8.68794 14.2785 9.00913 13.6071L9.64895 12.1049C9.76817 11.8227 9.89534 11.5604 10.0106 11.2942V11.2902Z" fill="black"/>
<path d="M19.9338 11.1035V11.2227C20.0769 11.5327 20.212 11.8506 20.3312 12.1646L20.971 13.6668C21.283 14.327 21.5151 15.0221 21.6625 15.7372C21.8093 16.6406 21.6703 17.5673 21.2651 18.3879C21.0513 18.8159 20.768 19.2053 20.4266 19.5404C20.736 20.1119 21.1791 20.6001 21.7182 20.9631C22.4136 21.3605 23.4429 21.3287 23.884 20.6571C24.0266 20.3852 24.0985 20.0818 24.0929 19.7748C24.0874 19.4678 24.0046 19.1671 23.8522 18.9006C23.586 18.3482 23.1806 17.8753 22.9104 17.311C22.5898 16.5532 22.3978 15.7474 22.3421 14.9265C22.2865 14.1057 22.0944 13.2998 21.7738 12.5421C21.6066 12.1712 21.3517 11.8465 21.0312 11.5959C20.7107 11.3453 20.3341 11.1763 19.9338 11.1035Z" fill="#8E83C7"/>
<path d="M22.6957 21.3604C22.3259 21.3608 21.9626 21.2634 21.6426 21.0782C21.0851 20.7043 20.6246 20.203 20.2993 19.6158C20.2816 19.5866 20.2743 19.5522 20.2786 19.5182C20.2829 19.4843 20.2986 19.4529 20.3232 19.429C20.6481 19.1048 20.9167 18.7288 21.118 18.3163C21.5157 17.526 21.6547 16.6307 21.5154 15.757C21.3706 15.0524 21.1411 14.3678 20.8319 13.7183L20.2278 12.2201C20.0967 11.9101 19.9615 11.5922 19.8304 11.2862C19.8268 11.2665 19.8268 11.2463 19.8304 11.2266V11.1114C19.8297 11.0899 19.8336 11.0685 19.8418 11.0486C19.85 11.0287 19.8624 11.0108 19.8781 10.9961C19.8938 10.9811 19.9126 10.9697 19.9332 10.9629C19.9539 10.956 19.9757 10.9538 19.9973 10.9564C20.4257 11.0334 20.8285 11.2147 21.1702 11.4843C21.5119 11.7539 21.782 12.1035 21.9565 12.5023C22.2822 13.2728 22.4783 14.0919 22.5367 14.9264C22.5937 15.7279 22.7816 16.5146 23.0931 17.2552C23.2288 17.5145 23.3801 17.7653 23.5461 18.0063C23.7253 18.2705 23.8885 18.5452 24.0349 18.8289C24.2004 19.1173 24.2895 19.4432 24.2936 19.7756C24.2978 20.1081 24.217 20.4361 24.0588 20.7285C23.9056 20.9428 23.6995 21.1136 23.4606 21.2244C23.2217 21.3351 22.9581 21.382 22.6957 21.3604ZM20.6252 19.5602C20.9184 20.0688 21.3267 20.5016 21.8174 20.8239C22.4413 21.1935 23.3832 21.1736 23.8044 20.5656C23.9307 20.3181 23.9928 20.0429 23.9852 19.7652C23.9775 19.4875 23.9004 19.2162 23.7607 18.976C23.6234 18.7003 23.4667 18.4347 23.2918 18.1812C23.1198 17.9258 22.9632 17.6604 22.8229 17.3864C22.4874 16.6175 22.2819 15.7983 22.2148 14.9622C22.159 14.1606 21.971 13.3737 21.6585 12.6334C21.5149 12.3173 21.3068 12.0348 21.0473 11.8042C20.7879 11.5735 20.483 11.3998 20.1523 11.2942C20.2755 11.5604 20.3947 11.8346 20.506 12.089L21.1458 13.5912C21.4573 14.2691 21.6829 14.9834 21.8174 15.7173C21.9646 16.6528 21.813 17.6109 21.3843 18.4554C21.1861 18.8585 20.9304 19.2306 20.6252 19.5602Z" fill="black"/>
<path d="M21.2253 18.388C20.9464 18.9542 20.545 19.4513 20.0501 19.8431C19.5551 20.2349 18.9792 20.5116 18.364 20.6532C17.0486 20.9313 15.0616 19.3735 15.0616 19.3735C15.0616 19.3735 13.0746 20.9393 11.7512 20.6611C10.9844 20.4913 10.2824 20.1052 9.72846 19.5484C9.38707 19.2133 9.10371 18.8239 8.88994 18.3959C8.47794 17.5775 8.33205 16.6507 8.47266 15.7452C8.6201 15.0301 8.85223 14.335 9.16415 13.6748L9.80397 12.1726C9.93908 11.8586 10.0742 11.5407 10.2014 11.2307C10.4228 10.7498 10.6889 10.2908 10.9962 9.85968C11.5364 9.09588 12.2979 8.5161 13.1779 8.19854C14.0999 7.88061 16.3572 7.99586 16.9254 8.19854C17.8023 8.50971 18.5634 9.08088 19.1072 9.83584C19.592 10.5585 19.9921 11.3346 20.2994 12.1487L20.9392 13.6509C21.2511 14.3112 21.4833 15.0062 21.6307 15.7214C21.7784 16.6308 21.6366 17.5636 21.2253 18.388Z" fill="#E6DAFC"/>
<path d="M18.0302 20.8358C16.8618 20.8358 15.4272 19.8343 15.0496 19.5522C14.6522 19.8622 12.9235 21.0583 11.7075 20.7961C10.9132 20.6233 10.1858 20.2244 9.61316 19.6476C9.26163 19.2998 8.96902 18.8971 8.74682 18.4554C8.31535 17.6118 8.16098 16.6536 8.3057 15.7172C8.45339 14.9878 8.68961 14.2792 9.00911 13.607L9.64893 12.1048C9.78007 11.7909 9.91916 11.469 10.0463 11.159C10.2665 10.67 10.5327 10.2029 10.8411 9.76414C11.3992 8.97508 12.1855 8.37593 13.0944 8.04735C14.0522 7.72148 16.3372 7.8407 16.9373 8.04735C17.8461 8.37616 18.6324 8.97526 19.1906 9.76414C19.6833 10.4901 20.0913 11.2702 20.4066 12.089L21.0504 13.607C21.3699 14.2792 21.6062 14.9878 21.7538 15.7172C21.901 16.6528 21.7494 17.6109 21.3207 18.4554C21.0334 19.0419 20.6183 19.5566 20.106 19.9617C19.5936 20.3667 18.997 20.6519 18.36 20.7961C18.2518 20.8208 18.1412 20.8341 18.0302 20.8358ZM14.9344 8.14273C14.3588 8.12304 13.7833 8.18594 13.2256 8.32951C12.3772 8.64118 11.6429 9.20227 11.1193 9.939C10.8114 10.3612 10.5452 10.8124 10.3245 11.2862C10.1814 11.5922 10.0463 11.9101 9.92711 12.2201L9.29127 13.7223C8.98206 14.3718 8.75255 15.0563 8.60773 15.761C8.46842 16.6346 8.60745 17.53 9.00513 18.3202C9.20645 18.7327 9.47506 19.1088 9.79994 19.433C10.334 19.9703 11.0113 20.3428 11.7512 20.506C12.9752 20.7682 14.9304 19.2621 14.9304 19.2502C14.9561 19.2288 14.9884 19.2171 15.0218 19.2171C15.0552 19.2171 15.0875 19.2288 15.1132 19.2502C15.1132 19.2502 17.0804 20.7682 18.2925 20.506C18.8862 20.3707 19.4421 20.1042 19.9194 19.726C20.3966 19.3477 20.7831 18.8674 21.0504 18.3202C21.4481 17.53 21.5871 16.6346 21.4478 15.761C21.303 15.0563 21.0735 14.3718 20.7643 13.7223L20.1722 12.2201C19.8636 11.4165 19.4635 10.6511 18.98 9.939C18.4571 9.20157 17.7226 8.6403 16.8737 8.32951C16.2375 8.18751 15.5861 8.12477 14.9344 8.14273Z" fill="black"/>
<path d="M15.0377 19.5643C15.0181 19.5643 14.9986 19.5603 14.9805 19.5527C14.9624 19.5451 14.946 19.5339 14.9323 19.5198C14.9186 19.5057 14.9079 19.489 14.9007 19.4707C14.8935 19.4524 14.8901 19.4329 14.8907 19.4133C14.8907 19.2384 14.8907 18.8847 14.8907 18.531C14.8907 18.1773 14.8907 17.8753 14.8907 17.7044C14.8895 17.6848 14.8925 17.6652 14.8995 17.6468C14.9065 17.6284 14.9173 17.6118 14.9312 17.5979C14.9451 17.584 14.9617 17.5732 14.9801 17.5662C14.9985 17.5592 15.0181 17.5562 15.0377 17.5574C15.0774 17.5584 15.1153 17.5746 15.1434 17.6027C15.1715 17.6308 15.1877 17.6687 15.1887 17.7084C15.1887 17.8753 15.1887 18.2051 15.1887 18.539C15.1887 18.8728 15.1887 19.2424 15.1887 19.4172C15.1877 19.4566 15.1713 19.494 15.1431 19.5214C15.1149 19.5489 15.0771 19.5643 15.0377 19.5643Z" fill="black"/>
<path d="M14.9623 17.8276C14.8437 17.8269 14.7254 17.8162 14.6086 17.7958C14.4178 17.7678 14.237 17.6924 14.0828 17.5765C13.9287 17.4605 13.8061 17.3077 13.7264 17.1321C13.719 17.097 13.7243 17.0604 13.7414 17.0289C13.7585 16.9974 13.7863 16.973 13.8198 16.9601C13.8532 16.9472 13.8902 16.9466 13.9241 16.9584C13.9579 16.9703 13.9865 16.9939 14.0045 17.0248C14.0673 17.1521 14.1602 17.262 14.2752 17.3452C14.3902 17.4283 14.5237 17.482 14.6642 17.5017C14.9795 17.542 15.2993 17.5286 15.6101 17.462C15.7473 17.452 15.8817 17.4184 16.0075 17.3626C16.0524 17.3408 16.0914 17.3085 16.1212 17.2684C16.1509 17.2282 16.1705 17.1815 16.1783 17.1321C16.1841 17.0968 16.2023 17.0647 16.2296 17.0415C16.2569 17.0183 16.2915 17.0055 16.3274 17.0055C16.3632 17.0055 16.3978 17.0183 16.4251 17.0415C16.4524 17.0647 16.4706 17.0968 16.4764 17.1321C16.4674 17.2323 16.4327 17.3285 16.3756 17.4114C16.3185 17.4943 16.241 17.561 16.1505 17.605C15.9997 17.6787 15.8368 17.7245 15.6697 17.7402C15.4367 17.7891 15.2001 17.8184 14.9623 17.8276Z" fill="black"/>
<path d="M12.6017 13.8336C12.6142 13.9188 12.6454 14.0002 12.6931 14.072C12.72 14.1106 12.7548 14.1429 12.7953 14.1669C12.8357 14.1909 12.8808 14.206 12.9276 14.2111C13.017 14.2075 13.1037 14.1793 13.178 14.1295C13.2524 14.0797 13.3115 14.0103 13.3488 13.9289C13.546 13.6068 13.6221 13.2251 13.5634 12.852C13.5117 12.5221 13.1223 12.1963 12.8163 12.5738C12.6983 12.7589 12.6185 12.9657 12.5817 13.182C12.5448 13.3984 12.5516 13.6199 12.6017 13.8336Z" fill="black"/>
<path d="M17.2116 13.8336C17.1991 13.9188 17.1679 14.0002 17.1202 14.072C17.0941 14.1105 17.06 14.1428 17.0202 14.1668C16.9804 14.1908 16.9359 14.2059 16.8897 14.2111C16.7996 14.2083 16.7121 14.1803 16.637 14.1305C16.5619 14.0807 16.5021 14.0109 16.4645 13.9289C16.2673 13.6068 16.1912 13.2251 16.2499 12.852C16.3055 12.5221 16.691 12.1963 16.997 12.5738C17.115 12.7589 17.1948 12.9657 17.2316 13.182C17.2685 13.3984 17.2617 13.6199 17.2116 13.8336Z" fill="black"/>
<path d="M10.0861 16.0631C9.84616 16.3343 9.70596 16.6791 9.68868 17.0407C9.65231 17.4343 9.7519 17.8284 9.97084 18.1575C10.0803 18.3206 10.2265 18.4559 10.3976 18.5525C10.5688 18.6491 10.7601 18.7044 10.9564 18.7138C11.1825 18.71 11.4031 18.6443 11.5944 18.5238C11.7857 18.4032 11.9403 18.2325 12.0413 18.0303C12.1384 17.826 12.1888 17.6027 12.1888 17.3766C12.1888 17.1504 12.1384 16.9271 12.0413 16.7228C11.6995 15.9797 10.7815 15.3518 10.0861 16.0631Z" fill="black"/>
<path d="M19.9934 16.0631C20.2373 16.3318 20.3781 16.6781 20.3908 17.0407C20.4283 17.4338 20.3302 17.8279 20.1126 18.1575C20.0018 18.3203 19.8548 18.4553 19.6832 18.5518C19.5115 18.6483 19.3198 18.7038 19.1231 18.7138C18.897 18.71 18.6763 18.6443 18.4851 18.5238C18.2938 18.4032 18.1392 18.2325 18.0382 18.0303C17.9421 17.8257 17.8923 17.6025 17.8923 17.3766C17.8923 17.1506 17.9421 16.9274 18.0382 16.7228C18.3799 15.9797 19.2979 15.3518 19.9934 16.0631Z" fill="black"/>
<path d="M4.68537 10.6306C4.58999 11.0916 4.51051 11.6201 4.79664 11.9937C5.08277 12.3673 5.75041 12.4269 6.28293 12.3911C5.93322 12.6653 5.43249 12.6494 5.04303 12.864C4.4668 13.178 4.27207 13.9013 4.13298 14.545C4.07337 14.0125 3.98594 13.5237 3.9303 12.9952C3.50905 12.9753 2.9209 12.558 2.49965 12.5421C2.98846 12.4229 3.69186 12.3355 4.02965 11.9619C4.30516 11.5485 4.52559 11.101 4.68537 10.6306Z" fill="#CCBEE3"/>
<path d="M4.13294 14.692C4.09749 14.6904 4.06371 14.6764 4.03755 14.6525C4.01139 14.6285 3.99451 14.5961 3.98988 14.5609C3.96206 14.2946 3.92629 14.0442 3.89052 13.7899C3.85476 13.5356 3.83091 13.3528 3.8031 13.1302C3.5742 13.0794 3.35162 13.0034 3.13943 12.9037C2.93052 12.7986 2.70668 12.7262 2.47577 12.6891C2.44014 12.6873 2.40638 12.6726 2.38079 12.6477C2.3552 12.6229 2.33952 12.5895 2.33668 12.554C2.33359 12.5186 2.34306 12.4833 2.3634 12.4543C2.38375 12.4252 2.41368 12.4042 2.44795 12.395L2.72613 12.3354C3.16033 12.294 3.57379 12.1299 3.91834 11.8625C4.1184 11.5957 4.27283 11.2976 4.37536 10.9803C4.43497 10.8332 4.4906 10.6901 4.55021 10.563C4.5671 10.5315 4.59459 10.5071 4.6278 10.4939C4.66102 10.4808 4.6978 10.4799 4.73163 10.4914C4.76546 10.5028 4.79414 10.5258 4.81258 10.5564C4.83102 10.587 4.83803 10.6231 4.83237 10.6584C4.74494 11.0876 4.66944 11.5764 4.91583 11.8983C5.16222 12.2202 5.71063 12.2758 6.27495 12.244C6.30699 12.2418 6.33891 12.2498 6.36607 12.267C6.39322 12.2841 6.4142 12.3095 6.42596 12.3394C6.43646 12.3693 6.43751 12.4018 6.42898 12.4323C6.42046 12.4629 6.40275 12.4901 6.37827 12.5103C6.15517 12.6613 5.90369 12.7654 5.6391 12.8163C5.46021 12.8596 5.28784 12.9264 5.12645 13.015C4.60982 13.2971 4.42305 13.9807 4.28793 14.6046C4.27576 14.6345 4.25382 14.6594 4.22568 14.6753C4.19754 14.6912 4.16485 14.6971 4.13294 14.692ZM3.10367 12.558L3.27455 12.6295C3.48311 12.7363 3.707 12.81 3.93821 12.8481C3.97322 12.8497 4.00648 12.8639 4.03198 12.8879C4.05748 12.912 4.07356 12.9444 4.0773 12.9792C4.10512 13.2415 4.14089 13.4958 4.17665 13.7502V13.782C4.29967 13.3444 4.5836 12.9697 4.97146 12.7328C5.15687 12.64 5.3531 12.5705 5.55565 12.5262C5.38627 12.5156 5.22087 12.4703 5.06977 12.393C4.91867 12.3158 4.7851 12.2082 4.67738 12.0771C4.56051 11.9199 4.48655 11.735 4.46279 11.5406C4.38354 11.73 4.27491 11.9057 4.14089 12.0612C3.85318 12.3276 3.49161 12.5008 3.10367 12.558Z" fill="black"/>
<path d="M19.0356 3.47729C19.2899 3.8747 19.6039 4.29992 20.0688 4.36748C20.6014 4.43901 21.0544 4.00584 21.4121 3.60843C21.3564 4.04955 20.9868 4.40324 20.8597 4.80064C20.6689 5.43252 21.0385 6.08029 21.3882 6.63666C20.9908 6.29887 20.5934 6.01273 20.1602 5.67494C19.8463 5.95709 19.1349 6.07234 18.821 6.35449C19.0872 5.92927 19.5323 5.36894 19.5085 4.86821C19.4092 4.38675 19.2503 3.91952 19.0356 3.47729Z" fill="#CCBEE3"/>
<path d="M21.3803 6.79166C21.3465 6.79124 21.314 6.77852 21.2889 6.75589C21.0823 6.58898 20.8915 6.43399 20.6769 6.279C20.4623 6.12401 20.3272 6.01274 20.1484 5.8816C19.9564 6.00183 19.751 6.0992 19.5364 6.17171C19.3134 6.24164 19.1028 6.34624 18.9124 6.48168C18.8869 6.50923 18.8519 6.52597 18.8144 6.52849C18.777 6.53101 18.74 6.51912 18.711 6.49524C18.682 6.47136 18.6633 6.4373 18.6586 6.40005C18.654 6.3628 18.6637 6.32518 18.6859 6.2949C18.7336 6.21939 18.7853 6.13594 18.8409 6.05646C19.1166 5.72388 19.2929 5.32031 19.3496 4.89207C19.3053 4.56253 19.2059 4.2428 19.0555 3.94624C18.9919 3.7992 18.9323 3.65614 18.8846 3.525C18.8752 3.49109 18.8779 3.45495 18.8923 3.42282C18.9066 3.39069 18.9318 3.36459 18.9634 3.34903C18.995 3.33348 19.031 3.32945 19.0652 3.33763C19.0994 3.34582 19.1297 3.36571 19.1509 3.39386C19.4052 3.79126 19.6834 4.16084 20.0848 4.21648C20.4862 4.27211 20.9273 3.91445 21.277 3.5091C21.2979 3.48566 21.3258 3.46955 21.3565 3.46311C21.3873 3.45667 21.4193 3.46026 21.4479 3.47333C21.477 3.48658 21.5011 3.50873 21.5168 3.53658C21.5326 3.56443 21.539 3.59656 21.5353 3.62833C21.4839 3.89285 21.3769 4.14344 21.2214 4.36353C21.1196 4.51861 21.0368 4.6854 20.975 4.86028C20.8041 5.42459 21.1498 6.05249 21.4876 6.57309C21.5067 6.6029 21.5144 6.63861 21.5093 6.67365C21.5042 6.7087 21.4866 6.74072 21.4598 6.76383C21.4364 6.78026 21.4089 6.7899 21.3803 6.79166ZM20.1523 5.53189C20.1855 5.53218 20.2176 5.54334 20.2437 5.56368C20.4504 5.73456 20.6411 5.88955 20.8597 6.04453H20.8836C20.6655 5.64825 20.6031 5.18486 20.7087 4.74503C20.7783 4.5496 20.8703 4.36289 20.9829 4.18867C20.8543 4.29964 20.7045 4.38328 20.5426 4.43452C20.3807 4.48576 20.2101 4.50353 20.0411 4.48672C19.8489 4.46362 19.6664 4.38952 19.5125 4.27212C19.5867 4.46444 19.6323 4.66663 19.6476 4.8722C19.6236 5.2636 19.4855 5.63939 19.2502 5.95314L19.4211 5.88558C19.6443 5.81442 19.8549 5.70846 20.045 5.57162C20.0742 5.54482 20.1127 5.53055 20.1523 5.53189Z" fill="black"/>
<path d="M16.6234 23.5223C16.226 23.7727 15.7849 24.0747 15.7094 24.5396C15.6259 25.0682 16.0472 25.5292 16.4366 25.8988C15.9955 25.8312 15.6657 25.4537 15.2444 25.3186C14.6165 25.1119 13.9568 25.4656 13.3925 25.8034C13.7422 25.406 14.0363 25.0086 14.3821 24.6112C14.1079 24.2933 14.0085 23.5779 13.7343 23.26C14.1555 23.5342 14.704 23.9912 15.2047 23.9793C15.6953 23.8886 16.1721 23.735 16.6234 23.5223Z" fill="#CCBEE3"/>
<path d="M16.4366 26.0458H16.4127C16.1497 25.9887 15.9017 25.8763 15.6855 25.7159C15.5329 25.6115 15.3689 25.5248 15.1967 25.4576C14.6363 25.2748 14.0045 25.6086 13.472 25.9345C13.4414 25.9513 13.4059 25.957 13.3716 25.9506C13.3373 25.9442 13.3062 25.9261 13.2838 25.8994C13.2613 25.8727 13.2487 25.8391 13.2483 25.8042C13.2478 25.7693 13.2594 25.7353 13.2812 25.708C13.4521 25.5053 13.611 25.3106 13.77 25.1079C13.929 24.9052 14.0482 24.7622 14.1913 24.5913C14.0787 24.3947 13.9868 24.1869 13.917 23.9713C13.8515 23.7464 13.7509 23.5331 13.619 23.3395C13.5981 23.3118 13.5873 23.2777 13.5886 23.243C13.5898 23.2083 13.603 23.1751 13.6258 23.149C13.6487 23.1229 13.6799 23.1054 13.7141 23.0996C13.7483 23.0937 13.7835 23.0999 13.8137 23.1169C13.8892 23.1686 13.9687 23.2202 14.0482 23.2799C14.3716 23.555 14.7626 23.7389 15.1808 23.8124H15.2007C15.5314 23.7733 15.8535 23.6807 16.1544 23.5382C16.3015 23.4825 16.4445 23.4229 16.5797 23.3792C16.6139 23.3707 16.65 23.3744 16.6818 23.3897C16.7136 23.405 16.739 23.431 16.7537 23.4631C16.7683 23.4952 16.7712 23.5314 16.762 23.5655C16.7527 23.5995 16.7318 23.6292 16.7028 23.6494C16.3293 23.8799 15.908 24.1621 15.8564 24.5635C15.8047 24.9648 16.1425 25.4139 16.5399 25.7914C16.5627 25.8129 16.578 25.841 16.5838 25.8717C16.5895 25.9024 16.5853 25.9342 16.5717 25.9623C16.5588 25.9871 16.5394 26.008 16.5156 26.0227C16.4919 26.0374 16.4645 26.0454 16.4366 26.0458ZM14.847 25.1079C14.9941 25.1067 15.1404 25.1295 15.2801 25.1755C15.4751 25.2484 15.6605 25.3444 15.8325 25.4616C15.724 25.3314 15.6432 25.1802 15.5954 25.0175C15.5475 24.8549 15.5336 24.6841 15.5543 24.5158C15.5893 24.3212 15.6742 24.1391 15.8007 23.9872C15.6078 24.0574 15.4056 24.0989 15.2007 24.1104C14.8123 24.0836 14.4398 23.9456 14.1277 23.713L14.1913 23.8839C14.2568 24.1089 14.3574 24.3221 14.4893 24.5158C14.5123 24.543 14.5249 24.5775 14.5249 24.6131C14.5249 24.6488 14.5123 24.6833 14.4893 24.7105C14.3145 24.9092 14.1555 25.1079 13.9965 25.3106L13.9767 25.3344C14.2505 25.1988 14.5496 25.1216 14.8549 25.1079H14.847Z" fill="black"/>
</g>
<defs>
<clipPath id="clip0">
<rect width="30" height="30" fill="white"/>
</clipPath>
</defs>
</svg>
