<svg width="31" height="30" viewBox="0 0 31 30" fill="none" xmlns="http://www.w3.org/2000/svg">
<g clip-path="url(#clip0_934:1017)">
<path d="M15.0848 29.4707C23.1236 29.4707 29.6403 22.9919 29.6403 14.9999C29.6403 7.00787 23.1236 0.529053 15.0848 0.529053C7.04602 0.529053 0.529297 7.00787 0.529297 14.9999C0.529297 22.9919 7.04602 29.4707 15.0848 29.4707Z" fill="#8E83C7"/>
<path d="M15.0853 29.9858C12.1222 29.9691 9.23048 29.0752 6.77491 27.4168C4.31934 25.7585 2.40995 23.41 1.2876 20.6677C0.165261 17.9253 -0.119766 14.9121 0.468538 12.0079C1.05684 9.10383 2.49211 6.43901 4.59323 4.34968C6.69435 2.26035 9.36724 0.840127 12.2746 0.268178C15.182 -0.303772 18.1936 -0.00181235 20.9296 1.13595C23.6655 2.27371 26.0032 4.19628 27.6477 6.66115C29.2922 9.12602 30.1699 12.0227 30.1699 14.9858C30.155 18.9742 28.5582 22.7936 25.7301 25.6059C22.902 28.4181 19.0736 29.9934 15.0853 29.9858V29.9858ZM15.0853 1.05828C12.3315 1.07501 9.64443 1.90686 7.3629 3.44892C5.08137 4.99099 3.30764 7.17417 2.2654 9.72311C1.22316 12.272 0.959072 15.0726 1.50654 17.7714C2.054 20.4702 3.38848 22.9464 5.34159 24.8877C7.2947 26.8291 9.77898 28.1485 12.4811 28.6796C15.1831 29.2107 17.9819 28.9297 20.5245 27.8721C23.0671 26.8144 25.2396 25.0275 26.7678 22.7367C28.296 20.4458 29.1116 17.7538 29.1116 15C29.0957 11.2926 27.6102 7.74289 24.9807 5.12932C22.3513 2.51576 18.7927 1.05171 15.0853 1.05828V1.05828Z" fill="black"/>
<path d="M19.5508 5.65845H10.6186C10.1782 5.65845 9.82129 6.0154 9.82129 6.45572V24.987C9.82129 25.4273 10.1782 25.7843 10.6186 25.7843H19.5508C19.9911 25.7843 20.3481 25.4273 20.3481 24.987V6.45572C20.3481 6.0154 19.9911 5.65845 19.5508 5.65845Z" fill="#E6DAFC"/>
<path d="M19.5514 25.9608H10.6192C10.3612 25.9599 10.1141 25.857 9.93171 25.6746C9.74931 25.4922 9.64644 25.2451 9.64551 24.9871V6.45584C9.64644 6.1979 9.74931 5.95079 9.93171 5.7684C10.1141 5.586 10.3612 5.48311 10.6192 5.48218H19.5514C19.8093 5.48311 20.0564 5.586 20.2388 5.7684C20.4212 5.95079 20.5241 6.1979 20.525 6.45584V24.9871C20.5241 25.2451 20.4212 25.4922 20.2388 25.6746C20.0564 25.857 19.8093 25.9599 19.5514 25.9608ZM10.6192 5.83495C10.4545 5.83495 10.2965 5.90037 10.1801 6.01681C10.0637 6.13325 9.99828 6.29117 9.99828 6.45584V24.9871C9.99828 25.1518 10.0637 25.3097 10.1801 25.4262C10.2965 25.5426 10.4545 25.608 10.6192 25.608H19.5514C19.716 25.608 19.874 25.5426 19.9904 25.4262C20.1069 25.3097 20.1723 25.1518 20.1723 24.9871V6.45584C20.1723 6.29117 20.1069 6.13325 19.9904 6.01681C19.874 5.90037 19.716 5.83495 19.5514 5.83495H10.6192Z" fill="black"/>
<path d="M18.104 7.33422H16.4918C16.445 7.33422 16.4002 7.31564 16.3671 7.28257C16.334 7.24949 16.3154 7.20461 16.3154 7.15783C16.3154 7.11105 16.334 7.0662 16.3671 7.03312C16.4002 7.00004 16.445 6.98145 16.4918 6.98145H18.104C18.1505 6.98235 18.1948 7.00123 18.2277 7.03411C18.2606 7.067 18.2795 7.11133 18.2804 7.15783C18.2804 7.20461 18.2618 7.24949 18.2287 7.28257C18.1957 7.31564 18.1508 7.33422 18.104 7.33422Z" fill="black"/>
<path d="M11.3209 12.2449C11.2741 12.2449 11.2293 12.2263 11.1962 12.1932C11.1631 12.1601 11.1445 12.1153 11.1445 12.0685V7.15783C11.1445 7.11105 11.1631 7.0662 11.1962 7.03312C11.2293 7.00004 11.2741 6.98145 11.3209 6.98145H15.2649C15.3114 6.98235 15.3558 7.00123 15.3887 7.03411C15.4216 7.067 15.4404 7.11133 15.4413 7.15783C15.4413 7.20461 15.4227 7.24949 15.3896 7.28257C15.3566 7.31565 15.3117 7.33422 15.2649 7.33422H11.4867V12.0685C11.4868 12.1135 11.4696 12.1568 11.4388 12.1896C11.408 12.2224 11.3658 12.2422 11.3209 12.2449Z" fill="black"/>
<path d="M13.6773 24.4614H12.0651C12.0183 24.4614 11.9734 24.4428 11.9403 24.4097C11.9073 24.3767 11.8887 24.3318 11.8887 24.285C11.8887 24.2382 11.9073 24.1934 11.9403 24.1603C11.9734 24.1272 12.0183 24.1086 12.0651 24.1086H13.6773C13.724 24.1086 13.7689 24.1272 13.802 24.1603C13.8351 24.1934 13.8537 24.2382 13.8537 24.285C13.8528 24.3315 13.8339 24.3759 13.801 24.4088C13.7681 24.4416 13.7238 24.4605 13.6773 24.4614Z" fill="black"/>
<path d="M18.8487 24.4614H14.9117C14.865 24.4614 14.8201 24.4428 14.787 24.4097C14.7539 24.3767 14.7354 24.3318 14.7354 24.285C14.7354 24.2383 14.7539 24.1934 14.787 24.1603C14.8201 24.1272 14.865 24.1086 14.9117 24.1086H18.6899V19.3744C18.6899 19.3276 18.7085 19.2828 18.7416 19.2497C18.7747 19.2166 18.8196 19.198 18.8663 19.198C18.9131 19.198 18.958 19.2166 18.991 19.2497C19.0241 19.2828 19.0427 19.3276 19.0427 19.3744V24.285C19.0423 24.3096 19.0369 24.3338 19.0268 24.3562C19.0167 24.3786 19.0021 24.3986 18.9839 24.4152C18.9657 24.4317 18.9444 24.4443 18.9211 24.4523C18.8979 24.4602 18.8732 24.4634 18.8487 24.4614Z" fill="black"/>
<path d="M13.9772 3.97217H16.1891C16.2947 3.97217 16.3993 3.99297 16.4969 4.03339C16.5945 4.07381 16.6831 4.13306 16.7578 4.20775C16.8325 4.28244 16.8918 4.37111 16.9322 4.46869C16.9726 4.56628 16.9934 4.67087 16.9934 4.7765V5.64432H13.1729V4.76238C13.1766 4.55152 13.2629 4.35054 13.4134 4.20274C13.5638 4.05494 13.7663 3.97214 13.9772 3.97217Z" fill="#CCBEE3"/>
<path d="M16.993 5.83493H13.1725C13.1257 5.83493 13.0808 5.81635 13.0478 5.78327C13.0147 5.75019 12.9961 5.70532 12.9961 5.65854V4.7766C12.997 4.51679 13.1006 4.26788 13.2844 4.08416C13.4681 3.90045 13.717 3.79683 13.9768 3.7959H16.1887C16.4488 3.7959 16.6982 3.89921 16.8821 4.08313C17.0661 4.26705 17.1694 4.5165 17.1694 4.7766V5.64444C17.1713 5.66876 17.1682 5.69323 17.1602 5.71629C17.1522 5.73934 17.1396 5.76048 17.123 5.77838C17.1065 5.79629 17.0863 5.81055 17.0639 5.82029C17.0416 5.83002 17.0174 5.83501 16.993 5.83493ZM13.3489 5.48215H16.8166V4.7766C16.8166 4.61006 16.7505 4.45036 16.6327 4.3326C16.5149 4.21484 16.3553 4.14867 16.1887 4.14867H13.9768C13.8103 4.14867 13.6505 4.21484 13.5327 4.3326C13.415 4.45036 13.3489 4.61006 13.3489 4.7766V5.48215Z" fill="black"/>
<path d="M17.1162 8.78418L15.6875 14.7672H17.7653L12.9323 22.0909L14.3469 16.2101H12.1104L17.1162 8.78418Z" fill="#CCBEE3"/>
<path d="M12.9323 22.2672C12.9091 22.2725 12.885 22.2725 12.8618 22.2672C12.8232 22.2508 12.7918 22.2212 12.773 22.1838C12.7543 22.1463 12.7494 22.1033 12.7595 22.0626L14.1248 16.4182H12.1104C12.0788 16.4179 12.0478 16.4093 12.0205 16.3932C11.9933 16.3771 11.9708 16.3541 11.9552 16.3265C11.9398 16.2984 11.9316 16.2669 11.9316 16.2348C11.9316 16.2027 11.9398 16.1712 11.9552 16.1431L16.9611 8.73478C16.9842 8.70006 17.0188 8.67462 17.0589 8.663C17.0989 8.65137 17.1417 8.65432 17.1798 8.67129C17.2174 8.68762 17.2481 8.7168 17.2662 8.75365C17.2843 8.79049 17.2887 8.83258 17.2786 8.87237L15.8992 14.6402H17.7548C17.7866 14.6398 17.818 14.6481 17.8454 14.6643C17.8727 14.6804 17.8951 14.7039 17.91 14.732C17.9266 14.7591 17.9353 14.7902 17.9353 14.8219C17.9353 14.8537 17.9266 14.8848 17.91 14.9119L13.077 22.1896C13.0613 22.2135 13.0398 22.2331 13.0145 22.2467C12.9893 22.2602 12.961 22.2673 12.9323 22.2672ZM12.442 16.0337H14.347C14.3735 16.0336 14.3998 16.0395 14.4236 16.0512C14.4475 16.0628 14.4684 16.0797 14.4846 16.1007C14.5015 16.1218 14.5134 16.1463 14.5195 16.1726C14.5256 16.1988 14.5257 16.2261 14.5198 16.2524L13.3381 21.156L17.4373 14.9471H15.6734C15.6464 14.9473 15.6196 14.9414 15.5952 14.9298C15.5708 14.9181 15.5493 14.9012 15.5323 14.8801C15.5161 14.8588 15.5048 14.8341 15.4993 14.8079C15.4938 14.7816 15.4942 14.7545 15.5006 14.7284L16.7071 9.69432L12.442 16.0337Z" fill="black"/>
</g>
<defs>
<clipPath id="clip0_934:1017">
<rect width="30.1658" height="30" fill="white"/>
</clipPath>
</defs>
</svg>
