<svg width="30" height="30" viewBox="0 0 30 30" fill="none" xmlns="http://www.w3.org/2000/svg">
<g clip-path="url(#clip0_934:906)">
<path d="M15.0019 29.4774C22.9965 29.4774 29.4774 22.9965 29.4774 15.0019C29.4774 7.00727 22.9965 0.526367 15.0019 0.526367C7.00727 0.526367 0.526367 7.00727 0.526367 15.0019C0.526367 22.9965 7.00727 29.4774 15.0019 29.4774Z" fill="#8E83C7"/>
<path d="M15.0013 30.0035C12.0341 30.0042 9.13337 29.125 6.66588 27.477C4.1984 25.829 2.275 23.4863 1.13902 20.7451C0.00303075 18.004 -0.294511 14.9875 0.283939 12.0772C0.862388 9.16694 2.2909 6.49355 4.38879 4.39517C6.48668 2.29678 9.15969 0.867645 12.0698 0.288514C14.98 -0.290616 17.9965 0.00627779 20.738 1.14162C23.4794 2.27697 25.8225 4.19976 27.4711 6.66686C29.1197 9.13397 29.9996 12.0346 29.9996 15.0018C29.9949 18.9785 28.4134 22.791 25.6018 25.6032C22.7902 28.4155 18.978 29.9979 15.0013 30.0035ZM15.0013 1.05252C12.2423 1.05183 9.54504 1.86933 7.25064 3.40167C4.95624 4.93401 3.16776 7.11235 2.11144 9.66118C1.05512 12.21 0.778394 15.0148 1.31623 17.721C1.85407 20.4271 3.18233 22.913 5.13303 24.8641C7.08373 26.8153 9.56925 28.1442 12.2752 28.6827C14.9812 29.2212 17.7861 28.9452 20.3352 27.8895C22.8843 26.8338 25.063 25.0459 26.596 22.7519C28.1289 20.4579 28.9471 17.7608 28.9471 15.0018C28.9434 11.3039 27.473 7.75858 24.8586 5.1435C22.2441 2.52841 18.6991 1.05716 15.0013 1.05252Z" fill="black"/>
<path d="M10.8967 7.06944C11.2475 7.38519 11.2475 8.3921 11.2475 8.70083C11.2475 10.5907 11.2475 12.4817 11.2475 14.3738L12.4299 14.4616V7.9746C12.4326 7.65093 12.5007 7.33114 12.6299 7.03436C13.093 5.95028 13.0894 3.91191 11.7738 3.47688C11.3528 3.34005 11.0721 3.32602 10.6546 3.86981C10.3424 4.30836 10.2582 4.92233 10.3845 5.78187C10.4472 6.24653 10.6231 6.68867 10.8967 7.06944Z" fill="#E6DAFC"/>
<path d="M10.4519 7.03084C10.4066 7.03087 10.363 7.01337 10.3303 6.98197C10.2976 6.95058 10.2783 6.90774 10.2765 6.86244C10.2756 6.83912 10.2793 6.81583 10.2875 6.79396C10.2956 6.77209 10.3081 6.75207 10.3241 6.73508C10.3401 6.71808 10.3594 6.70447 10.3807 6.69501C10.4021 6.68555 10.4251 6.68045 10.4484 6.68L11.7536 6.64844C11.8001 6.64844 11.8447 6.66691 11.8776 6.69981C11.9105 6.73271 11.929 6.77733 11.929 6.82386C11.929 6.87038 11.9105 6.91498 11.8776 6.94788C11.8447 6.98078 11.8001 6.99927 11.7536 6.99927L10.4449 7.03084H10.4519Z" fill="black"/>
<path d="M10.325 6.44828C10.3024 6.44875 10.28 6.44476 10.2589 6.43655C10.2379 6.42834 10.2186 6.41606 10.2023 6.40042C10.186 6.38478 10.173 6.36607 10.1639 6.34539C10.1549 6.32471 10.15 6.30244 10.1496 6.27987C10.1486 6.25683 10.1522 6.23382 10.1602 6.21218C10.1681 6.19054 10.1803 6.17069 10.1959 6.15374C10.2115 6.1368 10.2304 6.1231 10.2513 6.11344C10.2723 6.10378 10.2949 6.09835 10.318 6.09745L11.8581 6.05884C11.9034 6.0588 11.947 6.07633 11.9797 6.10772C12.0124 6.13912 12.0317 6.18196 12.0335 6.22725C12.0336 6.27387 12.0159 6.31875 11.9839 6.35267C11.9519 6.3866 11.9081 6.40698 11.8616 6.40967L10.3215 6.44828H10.325Z" fill="black"/>
<path d="M13.293 24.5305C12.693 24.8377 12.0068 24.933 11.3458 24.8006C10.381 24.6252 9.8758 23.9165 9.65127 23.0149C9.39962 22.1663 9.33861 21.2726 9.47242 20.3976C9.5544 19.9457 9.75818 19.5248 10.0618 19.1802L10.6617 18.4786C10.7005 18.435 10.7301 18.3842 10.749 18.3291C10.7679 18.274 10.7756 18.2156 10.7717 18.1575C10.7678 18.0993 10.7523 18.0426 10.7262 17.9905C10.7001 17.9384 10.6638 17.892 10.6196 17.8541C10.2898 17.5839 9.91795 16.6296 9.87585 15.9911C9.87468 15.5565 10.0192 15.1341 10.2863 14.7913C10.1625 14.6727 10.0864 14.513 10.0723 14.3422C10.0824 14.146 10.1646 13.9604 10.3032 13.8212C10.4418 13.682 10.6269 13.5989 10.8231 13.5879C10.9884 13.5873 11.1493 13.6419 11.2801 13.7429C11.411 13.8439 11.5045 13.9857 11.5458 14.1457C11.7577 14.1419 11.9692 14.1679 12.1738 14.2229C12.2255 14.05 12.3373 13.9014 12.4891 13.8039C12.6409 13.7065 12.8226 13.6667 13.0013 13.6917C13.1799 13.7167 13.3437 13.805 13.4628 13.9404C13.582 14.0758 13.6487 14.2495 13.6509 14.4299C13.6509 14.5436 13.625 14.6557 13.5751 14.7579C13.5253 14.86 13.4528 14.9494 13.3631 15.0193C13.5867 15.2955 13.7331 15.626 13.7876 15.9771C13.8304 16.3056 13.8 16.6394 13.6987 16.9548C13.5974 17.2702 13.4278 17.5593 13.2018 17.8014C13.1077 17.9103 13.0514 18.0468 13.0413 18.1903C13.0311 18.3339 13.0678 18.4768 13.1457 18.5978C13.293 18.7698 16.1558 22.864 13.293 24.5305Z" fill="#E6DAFC"/>
<path d="M11.9499 25.0147C11.737 25.0152 11.5245 24.9964 11.315 24.9586C10.3853 24.7902 9.75016 24.1271 9.48002 23.043C9.22323 22.1689 9.16213 21.249 9.30109 20.3486C9.38983 19.8648 9.60948 19.4147 9.93612 19.047L10.5325 18.3453C10.5569 18.3177 10.5755 18.2854 10.5869 18.2504C10.5984 18.2155 10.6026 18.1785 10.5992 18.1418C10.5927 18.0765 10.5613 18.0162 10.5115 17.9734C10.1361 17.6682 9.72565 16.6613 9.70109 15.9807C9.6928 15.5565 9.81529 15.14 10.0519 14.7878C9.95235 14.6556 9.8938 14.497 9.88353 14.3317C9.88266 14.215 9.90515 14.0993 9.94974 13.9915C9.99433 13.8836 10.0601 13.7858 10.1431 13.7038C10.3157 13.5167 10.5554 13.4056 10.8097 13.395C10.9907 13.395 11.1677 13.4482 11.3187 13.548C11.4696 13.6478 11.5879 13.7898 11.6588 13.9563C11.7921 13.9592 11.9247 13.9745 12.0552 14.002C12.1485 13.8159 12.3017 13.6666 12.4902 13.5783C12.6787 13.49 12.8916 13.4678 13.0942 13.5152C13.2969 13.5626 13.4777 13.677 13.6075 13.8398C13.7372 14.0025 13.8083 14.2043 13.8094 14.4124C13.8108 14.637 13.7297 14.8543 13.5814 15.0229C13.7663 15.2962 13.8863 15.6082 13.9322 15.9351C13.98 16.2889 13.948 16.649 13.8387 16.9889C13.7295 17.3288 13.5457 17.64 13.3007 17.8997C13.257 17.9463 13.224 18.0018 13.2041 18.0624C13.1841 18.123 13.1775 18.1872 13.1849 18.2506C13.1882 18.3304 13.2098 18.4084 13.248 18.4786C13.269 18.4997 15.0022 20.8538 14.6513 22.836C14.5882 23.2212 14.4371 23.5866 14.2095 23.9036C13.9818 24.2207 13.684 24.4809 13.3392 24.6639C12.9126 24.8949 12.435 25.0155 11.9499 25.0147ZM10.8237 13.7634C10.6652 13.7743 10.5169 13.8459 10.4098 13.9634C10.3101 14.0619 10.2523 14.1951 10.2484 14.3353C10.2571 14.4688 10.316 14.5942 10.4133 14.6861C10.4393 14.7171 10.4535 14.7562 10.4535 14.7966C10.4535 14.837 10.4393 14.8762 10.4133 14.9071C10.1708 15.2208 10.0376 15.6053 10.0344 16.0017C10.0819 16.6347 10.319 17.2387 10.715 17.7349C10.7774 17.7847 10.8291 17.8469 10.8665 17.9175C10.9039 17.9881 10.9264 18.0656 10.9325 18.1453C10.939 18.2289 10.9287 18.313 10.9022 18.3925C10.8757 18.472 10.8335 18.5455 10.7782 18.6084L10.1782 19.3101C9.89385 19.6314 9.70336 20.0246 9.62743 20.4468C9.50071 21.2962 9.56057 22.163 9.80285 22.9869C10.0414 23.9411 10.5641 24.499 11.357 24.6428C11.9782 24.7648 12.6223 24.6772 13.1884 24.3937C13.4869 24.2367 13.7452 24.0129 13.943 23.7396C14.1408 23.4664 14.2727 23.1511 14.3286 22.8185C14.6198 21.1485 13.2094 18.9909 12.9954 18.7418C12.9057 18.6191 12.8545 18.4726 12.8481 18.3207C12.8388 18.2111 12.8521 18.1006 12.887 17.9962C12.922 17.8919 12.9781 17.7957 13.0516 17.7138C13.2627 17.4924 13.4214 17.2265 13.5161 16.9357C13.6108 16.6449 13.6391 16.3365 13.5988 16.0333C13.5493 15.7115 13.4149 15.4088 13.2094 15.1562C13.195 15.1382 13.1844 15.1173 13.1784 15.095C13.1723 15.0726 13.1709 15.0493 13.1743 15.0264C13.1763 15.0034 13.1833 14.9811 13.1948 14.9611C13.2063 14.9411 13.2222 14.9239 13.2411 14.9106C13.3098 14.8571 13.3651 14.7884 13.4029 14.7098C13.4406 14.6313 13.4596 14.5451 13.4585 14.458C13.459 14.3822 13.4445 14.307 13.4158 14.2368C13.3871 14.1666 13.3447 14.1027 13.2912 14.0489C13.2378 13.9951 13.1742 13.9524 13.1042 13.9233C13.0341 13.8942 12.959 13.8792 12.8832 13.8792C12.7575 13.8807 12.6355 13.9223 12.5351 13.9981C12.4347 14.0738 12.3613 14.1797 12.3253 14.3002C12.313 14.3447 12.2836 14.3826 12.2435 14.4056C12.2035 14.4285 12.1559 14.4348 12.1113 14.423C11.9231 14.3698 11.728 14.345 11.5324 14.3493C11.4933 14.3505 11.4549 14.3383 11.4237 14.3147C11.3924 14.2911 11.3701 14.2575 11.3605 14.2195C11.3348 14.0945 11.268 13.9816 11.1707 13.899C11.0735 13.8163 10.9513 13.7686 10.8237 13.7634Z" fill="black"/>
<path d="M10.1705 5.88697C10.124 5.88697 10.0793 5.8685 10.0464 5.8356C10.0135 5.8027 9.99512 5.75808 9.99512 5.71155C9.99512 5.66503 10.0135 5.62042 10.0464 5.58752C10.0793 5.55463 10.124 5.53613 10.1705 5.53613H11.9562C12.0028 5.53613 12.0474 5.55463 12.0803 5.58752C12.1132 5.62042 12.1317 5.66503 12.1317 5.71155C12.1317 5.75808 12.1132 5.8027 12.0803 5.8356C12.0474 5.8685 12.0028 5.88697 11.9562 5.88697H10.1705Z" fill="black"/>
<path d="M10.0309 5.33619C9.98496 5.3362 9.94086 5.3182 9.90806 5.28606C9.87526 5.25392 9.85639 5.21019 9.85547 5.16428C9.85546 5.11743 9.8738 5.07245 9.9066 5.03899C9.9394 5.00554 9.98404 4.98627 10.0309 4.98535H11.9886C12.0351 4.98535 12.0797 5.00385 12.1126 5.03674C12.1455 5.06964 12.164 5.11425 12.164 5.16077C12.164 5.20729 12.1455 5.25192 12.1126 5.28482C12.0797 5.31771 12.0351 5.33619 11.9886 5.33619H10.0309Z" fill="black"/>
<path d="M10.1959 4.76433C10.1494 4.76433 10.1048 4.74586 10.0719 4.71296C10.039 4.68006 10.0205 4.63544 10.0205 4.58891C10.0205 4.54239 10.039 4.49778 10.0719 4.46489C10.1048 4.43199 10.1494 4.41349 10.1959 4.41349L11.8659 4.37842C11.9116 4.37928 11.9552 4.39757 11.9878 4.42953C12.0204 4.46149 12.0395 4.5047 12.0413 4.55032C12.0405 4.59633 12.0224 4.64033 11.9905 4.67352C11.9587 4.7067 11.9154 4.72661 11.8694 4.72925L10.1994 4.76433H10.1959Z" fill="black"/>
<path d="M11.6938 3.99268L11.0307 3.99618L10.3711 3.99969" fill="#8E83C7"/>
<path d="M10.3708 4.18213C10.3479 4.1826 10.3252 4.17851 10.304 4.17008C10.2827 4.16165 10.2633 4.14904 10.247 4.13303C10.2307 4.11702 10.2177 4.09791 10.2088 4.07682C10.1999 4.05573 10.1953 4.0331 10.1953 4.01023C10.1949 3.98719 10.199 3.96428 10.2073 3.94282C10.2157 3.92136 10.2283 3.90177 10.2443 3.88515C10.2602 3.86854 10.2793 3.85523 10.3004 3.84599C10.3216 3.83675 10.3442 3.83175 10.3673 3.8313H11.6934C11.7399 3.8313 11.7846 3.84977 11.8174 3.88267C11.8503 3.91557 11.8688 3.96019 11.8688 4.00672C11.8693 4.02959 11.8652 4.05233 11.8568 4.07359C11.8483 4.09485 11.8358 4.11421 11.8198 4.13055C11.8038 4.14689 11.7847 4.15987 11.7636 4.16873C11.7425 4.17759 11.7198 4.18214 11.6969 4.18213H10.3708Z" fill="black"/>
<path d="M11.3773 15.9239C11.3883 15.8082 11.194 15.6949 10.9433 15.6709C10.6925 15.647 10.4803 15.7214 10.4692 15.8371C10.4582 15.9529 10.6525 16.0661 10.9032 16.09C11.154 16.114 11.3662 16.0397 11.3773 15.9239Z" fill="#CCBEE3"/>
<path d="M10.9818 16.2612H10.8661C10.5152 16.2261 10.2555 16.0402 10.2766 15.8156C10.2976 15.5911 10.5713 15.4648 10.9397 15.4929C11.3081 15.521 11.5537 15.7104 11.5326 15.9385C11.5116 16.1665 11.294 16.2612 10.9818 16.2612ZM10.6871 15.8543C10.7546 15.8847 10.8271 15.9025 10.9011 15.9069C10.9743 15.9185 11.0489 15.9185 11.1222 15.9069C11.0548 15.8754 10.9822 15.8564 10.9081 15.8507C10.8349 15.838 10.7599 15.8392 10.6871 15.8543Z" fill="black"/>
<path d="M11.728 15.4895C11.8113 15.4895 11.8789 15.4219 11.8789 15.3386C11.8789 15.2553 11.8113 15.1877 11.728 15.1877C11.6447 15.1877 11.5771 15.2553 11.5771 15.3386C11.5771 15.4219 11.6447 15.4895 11.728 15.4895Z" fill="#231F20"/>
<path d="M10.5464 15.3947C10.6297 15.3947 10.6972 15.3272 10.6972 15.2439C10.6972 15.1606 10.6297 15.093 10.5464 15.093C10.463 15.093 10.3955 15.1606 10.3955 15.2439C10.3955 15.3272 10.463 15.3947 10.5464 15.3947Z" fill="#231F20"/>
<path d="M10.985 16.8682C10.9385 16.8682 10.8939 16.8497 10.861 16.8168C10.8281 16.7839 10.8096 16.7393 10.8096 16.6928C10.8096 16.6463 10.8281 16.6017 10.861 16.5688C10.8939 16.5359 10.9385 16.5174 10.985 16.5174C11.1215 16.5136 11.2557 16.4801 11.378 16.4192C11.5211 16.344 11.642 16.2328 11.7288 16.0964C11.7409 16.0767 11.7569 16.0597 11.7757 16.0463C11.7946 16.0329 11.816 16.0235 11.8386 16.0186C11.8612 16.0137 11.8846 16.0134 11.9073 16.0177C11.93 16.022 11.9516 16.0309 11.9709 16.0438C12.0099 16.0689 12.0373 16.1086 12.0472 16.1539C12.057 16.1993 12.0485 16.2467 12.0234 16.2858C11.9003 16.4763 11.7283 16.6302 11.5253 16.7314C11.357 16.8185 11.1709 16.8653 10.9815 16.8682H10.985Z" fill="black"/>
<path d="M12.0621 22.4255C11.9726 22.4246 11.8843 22.4051 11.8028 22.3683C11.7212 22.3314 11.6482 22.2781 11.5884 22.2115C11.1744 21.773 11.5884 21.2783 11.8585 20.952C11.9552 20.8453 12.0388 20.7276 12.1076 20.6012C12.3099 20.0683 12.3538 19.4884 12.234 18.9312C12.2307 18.9081 12.2321 18.8847 12.2379 18.8622C12.2437 18.8397 12.254 18.8185 12.268 18.8C12.282 18.7814 12.2995 18.7658 12.3195 18.754C12.3396 18.7422 12.3618 18.7344 12.3848 18.7312C12.4078 18.728 12.4313 18.7293 12.4538 18.7352C12.4763 18.741 12.4974 18.7512 12.516 18.7652C12.5346 18.7792 12.5502 18.7968 12.562 18.8168C12.5738 18.8369 12.5816 18.859 12.5848 18.8821C12.7163 19.5071 12.6627 20.157 12.4304 20.752C12.3474 20.9011 12.2473 21.04 12.1322 21.166C11.7814 21.5765 11.6761 21.7765 11.848 21.9624C11.8758 21.9965 11.9113 22.0235 11.9516 22.0412C11.9918 22.0589 12.0357 22.0668 12.0796 22.0641C12.3041 22.0641 12.5918 21.794 12.7813 21.5554C13.1401 21.075 13.32 20.4844 13.29 19.8855V19.7486C13.3253 19.4963 13.3013 19.2392 13.2198 18.9978C13.1956 18.9578 13.1883 18.9099 13.1995 18.8645C13.2107 18.8191 13.2394 18.78 13.2794 18.7558C13.3195 18.7316 13.3674 18.7243 13.4128 18.7355C13.4582 18.7466 13.4973 18.7754 13.5215 18.8154C13.6475 19.1155 13.6877 19.4446 13.6373 19.7662V19.8995C13.6626 20.5721 13.4571 21.2332 13.0549 21.773C12.8303 22.1055 12.4837 22.3362 12.0901 22.415L12.0621 22.4255Z" fill="black"/>
<path d="M9.97389 22.015C9.8738 22.0149 9.77473 21.9946 9.68267 21.9554C9.58986 21.9183 9.50684 21.8605 9.43993 21.7863C9.37302 21.7121 9.32406 21.6235 9.2968 21.5273L9.23007 21.3168C9.21679 21.2722 9.22147 21.2241 9.24309 21.1828C9.26471 21.1415 9.3016 21.1103 9.34588 21.0958C9.39007 21.0827 9.43767 21.0874 9.47838 21.1091C9.51909 21.1307 9.54959 21.1676 9.56335 21.2116L9.63008 21.4221C9.64283 21.4696 9.66662 21.5135 9.69954 21.5501C9.73247 21.5866 9.77361 21.6149 9.81954 21.6326C9.88199 21.6565 9.94891 21.6664 10.0156 21.6615C10.0823 21.6567 10.1471 21.6372 10.2054 21.6045C10.3493 21.5308 10.2651 21.1344 10.2054 20.9028C10.1822 20.8093 10.1646 20.7144 10.1528 20.6187C10.1212 20.26 10.1765 19.8989 10.3142 19.5662C10.3328 19.5241 10.3668 19.4908 10.4093 19.4732C10.4517 19.4555 10.4993 19.4549 10.5422 19.4714C10.5638 19.4803 10.5834 19.4933 10.5998 19.5098C10.6163 19.5262 10.6293 19.5458 10.6381 19.5674C10.6469 19.5889 10.6514 19.612 10.6512 19.6353C10.651 19.6586 10.6461 19.6816 10.6369 19.703C10.522 19.9802 10.4763 20.2812 10.5037 20.5801C10.5132 20.6617 10.5284 20.7426 10.5492 20.8222C10.6264 21.173 10.7422 21.7203 10.3598 21.9168C10.2409 21.9802 10.1086 22.0139 9.97389 22.015Z" fill="black"/>
<path d="M10.2232 15.0578C10.1925 15.0576 10.1624 15.0494 10.1359 15.0339C10.1093 15.0185 10.0874 14.9963 10.0721 14.9697C10.0569 14.943 10.0488 14.9129 10.0488 14.8822C10.0489 14.8515 10.057 14.8213 10.0724 14.7947C10.1399 14.6759 10.2224 14.5662 10.318 14.4684C10.3897 14.3964 10.4684 14.3318 10.553 14.2755C10.5915 14.2548 10.6363 14.2493 10.6787 14.2599C10.7211 14.2706 10.758 14.2967 10.7821 14.3332C10.8063 14.3696 10.816 14.4137 10.8093 14.4569C10.8026 14.5001 10.78 14.5392 10.746 14.5667C10.6824 14.6108 10.6226 14.6601 10.567 14.714C10.494 14.7903 10.4304 14.8751 10.3776 14.9666C10.3627 14.9945 10.3405 15.0178 10.3132 15.0339C10.286 15.05 10.2549 15.0583 10.2232 15.0578Z" fill="black"/>
<path d="M11.2165 14.3984C11.17 14.4059 11.1224 14.3945 11.0842 14.3669C11.0461 14.3393 11.0204 14.2976 11.013 14.2511C11.0055 14.2046 11.0169 14.157 11.0445 14.1188C11.0721 14.0807 11.1138 14.055 11.1603 14.0476H11.1989C11.2958 14.0099 11.3972 13.9851 11.5006 13.9739C11.6178 13.9659 11.7356 13.9718 11.8514 13.9915C11.8979 14 11.9391 14.0266 11.966 14.0653C11.993 14.1041 12.0035 14.152 11.9953 14.1985C11.9868 14.244 11.9606 14.2843 11.9225 14.3106C11.8844 14.3368 11.8374 14.347 11.7918 14.3388C11.7034 14.3265 11.6136 14.3265 11.5252 14.3388C11.4521 14.3485 11.3804 14.3661 11.3112 14.3914L11.2691 14.409L11.2165 14.3984Z" fill="black"/>
<path d="M13.0442 14.8614C13.0077 14.863 12.9717 14.8518 12.9424 14.8298C12.9051 14.803 12.8798 14.7627 12.872 14.7174C12.8641 14.6721 12.8742 14.6256 12.9003 14.5878C12.9564 14.5071 12.8653 14.4299 12.8583 14.4264C12.8501 14.4221 12.8411 14.4198 12.832 14.4198C12.8228 14.4198 12.8138 14.4221 12.8057 14.4264C12.7862 14.4305 12.7677 14.4385 12.7514 14.45C12.7352 14.4615 12.7214 14.4761 12.7109 14.493C12.6852 14.5315 12.6453 14.5582 12.6 14.5674C12.5547 14.5766 12.5075 14.5676 12.4688 14.5422C12.4301 14.5158 12.4033 14.4753 12.3941 14.4294C12.3849 14.3835 12.3941 14.3358 12.4197 14.2966C12.4572 14.2392 12.5061 14.1903 12.5635 14.1528C12.6209 14.1154 12.6854 14.0903 12.753 14.0791C12.8113 14.0701 12.8708 14.0736 12.9276 14.0893C12.9845 14.105 13.0373 14.1326 13.0827 14.1703C13.179 14.2412 13.2438 14.3468 13.2635 14.4647C13.2831 14.5826 13.256 14.7035 13.188 14.8018C13.1704 14.8223 13.1483 14.8385 13.1233 14.8488C13.0983 14.8592 13.0712 14.8635 13.0442 14.8614Z" fill="black"/>
<path d="M11.2755 13.9177C11.229 13.9177 11.1844 13.8992 11.1515 13.8663C11.1186 13.8334 11.1001 13.7888 11.1001 13.7423V8.39203C11.1001 7.43074 10.9492 7.09744 10.8229 6.98868C10.7905 6.9553 10.7725 6.91064 10.7725 6.86414C10.7725 6.81765 10.7905 6.77296 10.8229 6.73958C10.8557 6.70744 10.8998 6.68945 10.9457 6.68945C10.9917 6.68945 11.0357 6.70744 11.0685 6.73958C11.4193 7.05183 11.465 7.84121 11.465 8.40957V13.7563C11.4632 13.7794 11.4569 13.8019 11.4464 13.8225C11.4359 13.8431 11.4214 13.8614 11.4038 13.8764C11.3862 13.8914 11.3658 13.9028 11.3438 13.9099C11.3217 13.917 11.2986 13.9196 11.2755 13.9177Z" fill="black"/>
<path d="M12.4546 14.0054C12.408 14.0054 12.3634 13.9869 12.3305 13.954C12.2976 13.9211 12.2792 13.8765 12.2792 13.83V7.71141C12.2827 7.3788 12.3581 7.05089 12.5001 6.75012C12.8238 6.00145 12.8451 5.15657 12.5598 4.39249C12.4888 4.21505 12.3793 4.05563 12.2392 3.92577C12.099 3.79591 11.9317 3.69889 11.7494 3.64172C11.6337 3.60454 11.5116 3.59188 11.3908 3.60457C11.2699 3.61725 11.1531 3.65499 11.0477 3.71538C10.9959 3.74613 10.9528 3.78972 10.9227 3.84196C10.8926 3.89419 10.8764 3.95332 10.8758 4.01361C10.8721 4.06013 10.85 4.10326 10.8145 4.13352C10.779 4.16379 10.7329 4.1787 10.6863 4.17498C10.6398 4.17126 10.5967 4.14922 10.5664 4.11369C10.5362 4.07816 10.5213 4.03206 10.525 3.98553C10.5301 3.8726 10.5625 3.76258 10.6193 3.66485C10.6761 3.56711 10.7556 3.48457 10.8512 3.4242C11.001 3.33399 11.1682 3.27668 11.3419 3.25611C11.5155 3.23554 11.6914 3.25218 11.8581 3.30491C12.088 3.37834 12.2993 3.50072 12.4774 3.66365C12.6554 3.82657 12.7961 4.02616 12.8896 4.24866C13.2115 5.10661 13.1888 6.05584 12.8264 6.89747C12.7048 7.15176 12.6401 7.42954 12.6369 7.71141V13.823C12.6379 13.8472 12.6339 13.8714 12.6251 13.894C12.6163 13.9165 12.6028 13.937 12.5857 13.9542C12.5686 13.9713 12.5481 13.9847 12.5255 13.9936C12.5029 14.0024 12.4788 14.0064 12.4546 14.0054Z" fill="black"/>
<path d="M16.5031 8.63765C16.854 8.9534 16.854 9.96028 16.854 10.269C16.854 12.1589 16.854 14.0499 16.854 15.9421L18.0363 16.0298V9.54281C18.0387 9.21909 18.1068 8.89921 18.2363 8.60255C18.6994 7.51496 18.6959 5.48012 17.3802 5.04509C16.9592 4.90475 16.6786 4.89422 16.2611 5.43802C15.9488 5.87306 15.8646 6.49053 15.9909 7.35008C16.0537 7.81474 16.2295 8.25688 16.5031 8.63765Z" fill="#E6DAFC"/>
<path d="M16.0574 8.59887C16.0121 8.59891 15.9685 8.58138 15.9358 8.54999C15.9031 8.51859 15.8838 8.47575 15.882 8.43046C15.881 8.40713 15.8848 8.38385 15.8929 8.36198C15.9011 8.34011 15.9136 8.3201 15.9296 8.30311C15.9456 8.28612 15.9649 8.27251 15.9862 8.26305C16.0076 8.25359 16.0305 8.24849 16.0539 8.24804L17.3591 8.21645C17.3819 8.21551 17.4047 8.21916 17.4261 8.22716C17.4476 8.23516 17.4672 8.24734 17.4839 8.26303C17.5005 8.27871 17.5139 8.29757 17.5232 8.31849C17.5325 8.33941 17.5376 8.36197 17.538 8.38485C17.5389 8.40789 17.5353 8.43089 17.5273 8.45254C17.5193 8.47418 17.5072 8.49405 17.4916 8.51099C17.4759 8.52794 17.4571 8.54163 17.4362 8.55129C17.4152 8.56095 17.3926 8.56639 17.3695 8.56729L16.0609 8.59887H16.0574Z" fill="black"/>
<path d="M15.9206 8.01671C15.8977 8.01718 15.8749 8.01309 15.8537 8.00466C15.8324 7.99623 15.8131 7.98362 15.7967 7.96761C15.7804 7.9516 15.7675 7.93251 15.7586 7.91142C15.7497 7.89033 15.7452 7.86768 15.7452 7.84481C15.7442 7.79887 15.7613 7.75439 15.7928 7.72093C15.8243 7.68747 15.8676 7.66771 15.9136 7.66588L17.4538 7.62378C17.4994 7.62464 17.543 7.64293 17.5756 7.67489C17.6082 7.70685 17.6274 7.75006 17.6292 7.79568C17.6297 7.81872 17.6255 7.84163 17.6171 7.86309C17.6087 7.88455 17.5962 7.90414 17.5803 7.92076C17.5643 7.93738 17.5452 7.95068 17.5241 7.95992C17.503 7.96916 17.4802 7.97416 17.4572 7.97461L15.9171 8.01671H15.9206Z" fill="black"/>
<path d="M18.9029 26.0847C18.3016 26.3917 17.6143 26.4869 16.9522 26.3548C15.9874 26.1794 15.4822 25.4672 15.2577 24.5691C15.0062 23.7205 14.9451 22.8268 15.0788 21.9518C15.1597 21.4989 15.3649 21.0774 15.6717 20.7344L16.2716 20.0328C16.3103 19.9892 16.34 19.9384 16.3589 19.8833C16.3777 19.8282 16.3855 19.7698 16.3816 19.7117C16.3776 19.6535 16.3622 19.5968 16.3361 19.5447C16.31 19.4926 16.2737 19.4462 16.2294 19.4083C15.8786 19.1381 15.5068 18.1804 15.4857 17.5453C15.4805 17.1107 15.6241 16.6873 15.8926 16.3455C15.7702 16.2264 15.6954 16.0667 15.6822 15.8964C15.6915 15.7 15.7734 15.514 15.9122 15.3746C16.0509 15.2352 16.2365 15.1523 16.4329 15.1421C16.598 15.1411 16.7586 15.1955 16.8891 15.2967C17.0195 15.3978 17.1121 15.5398 17.1522 15.6999C17.3641 15.6959 17.5755 15.7219 17.7802 15.7771C17.8269 15.6196 17.9231 15.4813 18.0545 15.3828C18.186 15.2842 18.3456 15.2306 18.5099 15.2298C18.6085 15.2303 18.7061 15.2502 18.797 15.2883C18.8879 15.3265 18.9704 15.3821 19.0398 15.4522C19.1092 15.5222 19.164 15.6053 19.2014 15.6965C19.2387 15.7878 19.2577 15.8855 19.2572 15.9841C19.2579 16.0975 19.2326 16.2096 19.1834 16.3117C19.1341 16.4139 19.0622 16.5034 18.973 16.5735C19.1965 16.8497 19.343 17.1802 19.3975 17.5313C19.4398 17.86 19.4089 18.194 19.307 18.5094C19.2051 18.8248 19.0347 19.1138 18.8081 19.3556C18.7497 19.419 18.7051 19.4938 18.6773 19.5754C18.6495 19.657 18.6391 19.7434 18.6467 19.8293C18.6516 19.945 18.6894 20.057 18.7555 20.1521C18.9029 20.338 21.7657 24.4322 18.9029 26.0847Z" fill="#E6DAFC"/>
<path d="M17.5553 26.5828C17.3424 26.5833 17.1299 26.5645 16.9204 26.5267C15.9907 26.3583 15.3557 25.6952 15.0855 24.6111C14.8287 23.7358 14.7676 22.8147 14.9066 21.9132C14.9953 21.4305 15.2149 20.9814 15.5415 20.6151L16.138 19.9134C16.1624 19.8859 16.1809 19.8536 16.1923 19.8186C16.2038 19.7836 16.208 19.7466 16.2047 19.71C16.1981 19.6447 16.1667 19.5844 16.117 19.5416C15.7416 19.2363 15.3346 18.2294 15.3065 17.5488C15.2982 17.1246 15.4207 16.7081 15.6574 16.356C15.5581 16.2238 15.5007 16.065 15.4925 15.8999C15.4897 15.7832 15.511 15.6672 15.5551 15.5592C15.5991 15.4511 15.665 15.3533 15.7486 15.2719C15.8344 15.1788 15.9378 15.1037 16.0528 15.0507C16.1678 14.9977 16.2921 14.9679 16.4186 14.9631C16.5986 14.9635 16.7746 15.0165 16.9248 15.1157C17.0751 15.2148 17.193 15.3557 17.2642 15.521C17.3975 15.5267 17.53 15.5432 17.6606 15.5701C17.7539 15.384 17.9071 15.2348 18.0956 15.1465C18.2842 15.0581 18.497 15.0359 18.6997 15.0833C18.9024 15.1308 19.0832 15.2451 19.2129 15.4079C19.3427 15.5707 19.4138 15.7724 19.4148 15.9806C19.4159 16.2051 19.3348 16.4222 19.1868 16.591C19.3717 16.8644 19.4917 17.1764 19.5376 17.5032C19.5849 17.857 19.5527 18.2169 19.4435 18.5568C19.3343 18.8966 19.1507 19.2079 18.9061 19.4679C18.8622 19.5143 18.8291 19.5698 18.8091 19.6304C18.7891 19.691 18.7827 19.7553 18.7903 19.8187C18.7895 19.8992 18.8114 19.9782 18.8535 20.0467C18.8746 20.0678 20.6077 22.4254 20.2568 24.4077C20.1934 24.7918 20.0422 25.1561 19.8153 25.4725C19.5884 25.7889 19.2917 26.0487 18.9482 26.232C18.5207 26.4641 18.0417 26.5848 17.5553 26.5828ZM16.4327 15.3315C16.2729 15.3415 16.1232 15.4132 16.0152 15.5315C15.9654 15.5798 15.9258 15.6376 15.8986 15.7014C15.8715 15.7653 15.8575 15.834 15.8574 15.9034C15.8633 16.0369 15.9212 16.1628 16.0187 16.2542C16.045 16.2857 16.0593 16.3255 16.0593 16.3665C16.0593 16.4075 16.045 16.4472 16.0187 16.4787C15.7764 16.7912 15.6433 17.1745 15.6398 17.5698C15.686 18.2031 15.9233 18.8075 16.3204 19.303C16.3826 19.3531 16.4339 19.4153 16.4713 19.4859C16.5087 19.5564 16.5314 19.6339 16.538 19.7135C16.5445 19.7976 16.5342 19.8822 16.5077 19.9623C16.4812 20.0424 16.439 20.1164 16.3836 20.1801L15.7837 20.8817C15.4994 21.203 15.3088 21.5962 15.2329 22.0185C15.1061 22.8678 15.166 23.7346 15.4083 24.5585C15.6468 25.5128 16.1696 26.0671 16.966 26.2109C17.5867 26.3351 18.2312 26.2487 18.7973 25.9654C19.0951 25.8078 19.3525 25.5837 19.5496 25.3105C19.7467 25.0373 19.8783 24.7223 19.934 24.3901C20.2252 22.7201 18.8148 20.559 18.6043 20.3134C18.5129 20.1916 18.4615 20.0446 18.457 19.8924C18.4457 19.782 18.458 19.6705 18.4931 19.5653C18.5282 19.46 18.5853 19.3634 18.6605 19.2819C18.8701 19.0604 19.0275 18.7949 19.1216 18.5048C19.2157 18.2147 19.244 17.9073 19.2043 17.6049C19.1548 17.2832 19.0203 16.9804 18.8149 16.7279C18.8006 16.7097 18.7902 16.6888 18.7841 16.6665C18.7781 16.6442 18.7766 16.6209 18.7798 16.598C18.7817 16.575 18.7888 16.5528 18.8003 16.5328C18.8118 16.5128 18.8276 16.4955 18.8465 16.4823C18.9152 16.4287 18.9705 16.36 19.0083 16.2815C19.046 16.203 19.0651 16.1168 19.064 16.0297C19.0649 15.8903 19.0151 15.7552 18.9239 15.6497C18.8327 15.5442 18.7064 15.4754 18.5683 15.4561C18.4302 15.4368 18.2898 15.4683 18.1732 15.5448C18.0566 15.6213 17.9716 15.7375 17.9343 15.8718C17.9205 15.916 17.8901 15.953 17.8496 15.9753C17.809 15.9975 17.7614 16.0032 17.7168 15.9911C17.5292 15.9409 17.3355 15.9173 17.1414 15.9209C17.103 15.9207 17.0657 15.9079 17.0353 15.8844C17.0048 15.861 16.983 15.8282 16.973 15.7911C16.9484 15.6646 16.8815 15.5502 16.7833 15.4667C16.6852 15.3832 16.5615 15.3355 16.4327 15.3315Z" fill="black"/>
<path d="M15.777 7.45533C15.7305 7.45533 15.6858 7.43683 15.6529 7.40394C15.62 7.37104 15.6016 7.32643 15.6016 7.27991C15.6016 7.23339 15.62 7.18876 15.6529 7.15586C15.6858 7.12297 15.7305 7.10449 15.777 7.10449H17.5627C17.6092 7.10449 17.6538 7.12297 17.6867 7.15586C17.7196 7.18876 17.7381 7.23339 17.7381 7.27991C17.7381 7.32643 17.7196 7.37104 17.6867 7.40394C17.6538 7.43683 17.6092 7.45533 17.5627 7.45533H15.777Z" fill="black"/>
<path d="M15.6364 6.90436C15.5901 6.90346 15.5461 6.88468 15.5134 6.85198C15.4807 6.81927 15.4618 6.77518 15.4609 6.72894C15.4609 6.68241 15.4794 6.63779 15.5123 6.60489C15.5452 6.57199 15.5898 6.55352 15.6364 6.55352L17.594 6.53247C17.6403 6.53337 17.6843 6.55214 17.717 6.58485C17.7497 6.61755 17.7686 6.66165 17.7695 6.70789C17.7695 6.75441 17.751 6.79902 17.7181 6.83191C17.6852 6.86481 17.6406 6.88331 17.594 6.88331L15.6364 6.90436Z" fill="black"/>
<path d="M15.8014 6.33269C15.7549 6.33269 15.7103 6.31422 15.6774 6.28132C15.6445 6.24842 15.626 6.20379 15.626 6.15727C15.626 6.11075 15.6445 6.06612 15.6774 6.03322C15.7103 6.00033 15.7549 5.98185 15.8014 5.98185L17.4714 5.94678C17.5173 5.94677 17.5614 5.96476 17.5942 5.99691C17.627 6.02905 17.6459 6.07277 17.6468 6.11868C17.6468 6.16495 17.629 6.20941 17.5969 6.24277C17.5649 6.27613 17.5211 6.2958 17.4749 6.29761L15.8049 6.33269H15.8014Z" fill="black"/>
<path d="M17.3037 5.56079L16.6371 5.5643L15.9775 5.56781" fill="#8E83C7"/>
<path d="M15.9772 5.74317C15.9307 5.74317 15.886 5.72467 15.8531 5.69178C15.8203 5.65888 15.8018 5.61428 15.8018 5.56775C15.8018 5.52123 15.8203 5.4766 15.8531 5.4437C15.886 5.41081 15.9307 5.39233 15.9772 5.39233H17.2998C17.3464 5.39233 17.391 5.41081 17.4239 5.4437C17.4568 5.4766 17.4753 5.52123 17.4753 5.56775C17.4753 5.61428 17.4568 5.65888 17.4239 5.69178C17.391 5.72467 17.3464 5.74317 17.2998 5.74317H15.9737H15.9772Z" fill="black"/>
<path d="M16.9837 17.4911C16.9948 17.3753 16.8005 17.2621 16.5497 17.2381C16.299 17.2141 16.0868 17.2885 16.0757 17.4043C16.0646 17.52 16.2589 17.6332 16.5097 17.6572C16.7604 17.6811 16.9727 17.6068 16.9837 17.4911Z" fill="#CCBEE3"/>
<path d="M16.5837 17.8294H16.475C16.1242 17.7978 15.861 17.6084 15.882 17.3874C15.9031 17.1663 16.1838 17.0365 16.5487 17.0646C16.9136 17.0926 17.1591 17.2821 17.1381 17.5066C17.1269 17.5746 17.096 17.6378 17.0492 17.6883C17.0025 17.7389 16.9418 17.7745 16.8749 17.7908C16.7809 17.8206 16.6823 17.8336 16.5837 17.8294ZM16.2926 17.4189C16.36 17.4504 16.4324 17.4694 16.5065 17.4751C16.5795 17.4892 16.6546 17.4892 16.7276 17.4751C16.6599 17.4451 16.5874 17.4272 16.5136 17.4224C16.4405 17.4096 16.366 17.4084 16.2926 17.4189Z" fill="black"/>
<path d="M17.3384 17.0542C17.4217 17.0542 17.4892 16.9866 17.4892 16.9033C17.4892 16.82 17.4217 16.7524 17.3384 16.7524C17.255 16.7524 17.1875 16.82 17.1875 16.9033C17.1875 16.9866 17.255 17.0542 17.3384 17.0542Z" fill="#231F20"/>
<path d="M16.1518 16.9628C16.2352 16.9628 16.3027 16.8953 16.3027 16.812C16.3027 16.7287 16.2352 16.6611 16.1518 16.6611C16.0685 16.6611 16.001 16.7287 16.001 16.812C16.001 16.8953 16.0685 16.9628 16.1518 16.9628Z" fill="#231F20"/>
<path d="M16.5905 18.4329C16.5445 18.4329 16.5004 18.4149 16.4676 18.3827C16.4348 18.3506 16.416 18.3069 16.415 18.261C16.4158 18.2149 16.434 18.1709 16.4659 18.1378C16.4978 18.1046 16.541 18.0847 16.5869 18.082C16.7235 18.0811 16.858 18.0487 16.9799 17.9873C17.1241 17.912 17.2452 17.7993 17.3308 17.661C17.357 17.6246 17.3963 17.5996 17.4404 17.5912C17.4845 17.5828 17.5302 17.5917 17.5679 17.616C17.6057 17.6403 17.6328 17.6781 17.6435 17.7218C17.6542 17.7654 17.6477 17.8115 17.6255 17.8505C17.5126 18.0276 17.3571 18.1737 17.1732 18.2754C16.9894 18.3771 16.7831 18.4313 16.573 18.4329H16.5905Z" fill="black"/>
<path d="M17.6753 24.0042C17.5859 24.0033 17.4976 23.9838 17.4161 23.947C17.3345 23.9101 17.2615 23.8568 17.2017 23.7902C16.7877 23.3482 17.2017 22.857 17.4718 22.5307C17.5685 22.424 17.6521 22.3063 17.7209 22.1799C17.923 21.647 17.9669 21.0671 17.8472 20.5099C17.8411 20.464 17.8531 20.4175 17.8806 20.3802C17.908 20.3429 17.9489 20.3177 17.9946 20.3099C18.0405 20.3038 18.087 20.3157 18.1243 20.3432C18.1616 20.3707 18.1868 20.4116 18.1946 20.4573C18.3262 21.0835 18.2725 21.7345 18.0402 22.3307C17.9572 22.4798 17.8571 22.6187 17.742 22.7447C17.3911 23.1552 17.2859 23.3552 17.4578 23.5376C17.4852 23.5724 17.5205 23.6001 17.5608 23.6184C17.6011 23.6367 17.6452 23.6451 17.6894 23.6428C17.9758 23.5611 18.2243 23.381 18.3911 23.1342C18.7473 22.6526 18.9258 22.0625 18.8962 21.4642V21.3273C18.9333 21.0751 18.9092 20.8176 18.8261 20.5766C18.8019 20.5365 18.7946 20.4886 18.8058 20.4432C18.817 20.3978 18.8457 20.3587 18.8857 20.3345C18.9257 20.3103 18.9738 20.303 19.0191 20.3142C19.0645 20.3254 19.1036 20.3541 19.1278 20.3941C19.2534 20.6943 19.2947 21.023 19.2471 21.3449V21.4782C19.274 22.1511 19.0684 22.8127 18.6647 23.3517C18.4379 23.6821 18.0923 23.9121 17.6999 23.9937L17.6753 24.0042Z" fill="black"/>
<path d="M15.5699 23.5834C15.4698 23.5833 15.3707 23.563 15.2787 23.5237C15.1865 23.4856 15.1041 23.4274 15.0374 23.3533C14.9706 23.2793 14.9212 23.1913 14.8928 23.0957L14.8261 22.8852C14.8192 22.8622 14.8169 22.838 14.8193 22.8141C14.8217 22.7901 14.8289 22.7669 14.8403 22.7458C14.8517 22.7246 14.8671 22.7058 14.8858 22.6906C14.9044 22.6754 14.9259 22.6641 14.9489 22.6572C14.9719 22.6502 14.9961 22.648 15.0201 22.6504C15.044 22.6528 15.0672 22.6599 15.0883 22.6713C15.1095 22.6827 15.1282 22.6982 15.1434 22.7168C15.1586 22.7355 15.17 22.7569 15.1769 22.78L15.2436 22.9905C15.2569 23.0377 15.2808 23.0814 15.3137 23.1179C15.3466 23.1544 15.3874 23.1828 15.4331 23.201C15.4955 23.2249 15.5625 23.2347 15.6292 23.2299C15.6958 23.225 15.7606 23.2056 15.819 23.1729C15.9628 23.0992 15.8786 22.7028 15.819 22.4712C15.796 22.3776 15.7785 22.2827 15.7664 22.187C15.7347 21.8283 15.7901 21.4673 15.9277 21.1345C15.9463 21.0925 15.9804 21.0592 16.0228 21.0415C16.0653 21.0239 16.1128 21.0233 16.1557 21.0398C16.1773 21.0486 16.1969 21.0617 16.2134 21.0781C16.2299 21.0946 16.2429 21.1142 16.2517 21.1357C16.2605 21.1573 16.2649 21.1804 16.2647 21.2037C16.2645 21.2269 16.2597 21.25 16.2505 21.2714C16.1351 21.5485 16.0894 21.8496 16.1172 22.1485C16.1172 22.2116 16.1417 22.2958 16.1628 22.3905C16.24 22.7414 16.3557 23.2887 15.9733 23.4851C15.8486 23.5496 15.7103 23.5833 15.5699 23.5834Z" fill="black"/>
<path d="M15.8299 16.6297C15.8001 16.6299 15.7708 16.6213 15.7457 16.6052C15.7254 16.5942 15.7074 16.5793 15.693 16.5612C15.6785 16.5431 15.6678 16.5224 15.6616 16.5001C15.6554 16.4778 15.6537 16.4545 15.6567 16.4316C15.6597 16.4086 15.6673 16.3865 15.6791 16.3666C15.7466 16.2478 15.8291 16.1381 15.9246 16.0403C15.9964 15.9683 16.0751 15.9037 16.1597 15.8474C16.1984 15.822 16.2455 15.8129 16.2908 15.8221C16.3362 15.8313 16.3761 15.858 16.4018 15.8965C16.4149 15.9155 16.4239 15.9369 16.4285 15.9595C16.4331 15.9821 16.4331 16.0054 16.4285 16.0279C16.424 16.0505 16.4148 16.0719 16.4018 16.091C16.3888 16.11 16.3721 16.1262 16.3527 16.1386C16.2891 16.1828 16.2293 16.232 16.1737 16.2859C16.1007 16.3622 16.0371 16.447 15.9843 16.5385C15.9694 16.5665 15.9472 16.5898 15.9199 16.6059C15.8927 16.622 15.8615 16.6302 15.8299 16.6297Z" fill="black"/>
<path d="M16.8226 15.9664C16.7851 15.9666 16.7485 15.9548 16.7182 15.9327C16.6879 15.9106 16.6655 15.8794 16.6542 15.8436C16.6408 15.7994 16.645 15.7517 16.6659 15.7105C16.6868 15.6693 16.7228 15.6378 16.7664 15.6226H16.8051C16.9031 15.5845 17.0057 15.5598 17.1102 15.5489C17.2267 15.5332 17.3447 15.5332 17.4611 15.5489C17.4839 15.5527 17.5059 15.561 17.5255 15.5734C17.5451 15.5857 17.5621 15.6018 17.5754 15.6207C17.5888 15.6396 17.5983 15.661 17.6034 15.6836C17.6084 15.7062 17.609 15.7296 17.605 15.7524C17.5964 15.7981 17.5703 15.8387 17.5323 15.8656C17.4944 15.8924 17.4474 15.9034 17.4015 15.8962C17.313 15.884 17.2233 15.884 17.1348 15.8962C17.0615 15.9042 16.9896 15.9219 16.9209 15.9489H16.8787L16.8226 15.9664Z" fill="black"/>
<path d="M18.6503 16.4297C18.6151 16.4299 18.5806 16.4189 18.5521 16.3981C18.514 16.3712 18.4879 16.3305 18.4794 16.2846C18.4709 16.2387 18.4806 16.1913 18.5065 16.1525C18.5627 16.0753 18.4714 15.9982 18.4644 15.9946C18.4475 15.9878 18.4287 15.9878 18.4118 15.9946C18.3921 15.9994 18.3735 16.008 18.3572 16.0201C18.341 16.0322 18.3273 16.0474 18.3171 16.0648C18.3044 16.0839 18.288 16.1003 18.2688 16.113C18.2497 16.1257 18.2282 16.1345 18.2056 16.1387C18.1831 16.143 18.1599 16.1426 18.1374 16.1378C18.115 16.1329 18.0937 16.1236 18.0749 16.1104C18.0365 16.0847 18.0098 16.0448 18.0006 15.9995C17.9914 15.9542 18.0005 15.907 18.0258 15.8683C18.0631 15.8108 18.1121 15.7618 18.1695 15.7243C18.2269 15.6869 18.2915 15.6618 18.3591 15.6508C18.4174 15.6419 18.4769 15.6454 18.5338 15.6611C18.5906 15.6768 18.6435 15.7044 18.6889 15.7421C18.7859 15.8124 18.8513 15.9181 18.871 16.0362C18.8907 16.1544 18.8631 16.2756 18.7942 16.3736C18.7762 16.3935 18.7539 16.4089 18.7289 16.4187C18.7039 16.4284 18.677 16.4322 18.6503 16.4297Z" fill="black"/>
<path d="M16.8819 15.4824C16.8354 15.4824 16.7908 15.4639 16.7579 15.431C16.725 15.3981 16.7065 15.3535 16.7065 15.307V9.96023C16.7065 8.95333 16.5346 8.64811 16.4294 8.55689C16.397 8.52351 16.3789 8.47884 16.3789 8.43235C16.3789 8.38585 16.397 8.34119 16.4294 8.30781C16.4451 8.29103 16.4642 8.27766 16.4853 8.26851C16.5064 8.25937 16.5292 8.25464 16.5522 8.25464C16.5752 8.25464 16.598 8.25937 16.6191 8.26851C16.6402 8.27766 16.6592 8.29103 16.6749 8.30781C16.9451 8.54287 17.0749 9.09017 17.0714 9.97428V15.321C17.0696 15.3441 17.0633 15.3666 17.0528 15.3872C17.0423 15.4078 17.0279 15.4261 17.0103 15.4411C16.9926 15.4561 16.9722 15.4675 16.9502 15.4746C16.9282 15.4817 16.905 15.4843 16.8819 15.4824Z" fill="black"/>
<path d="M18.0608 15.5667C18.0143 15.5667 17.9696 15.5482 17.9367 15.5153C17.9038 15.4824 17.8854 15.4378 17.8854 15.3913V9.27972C17.889 8.94711 17.9643 8.61917 18.1064 8.31841C18.4312 7.57019 18.4538 6.72533 18.1695 5.9608C18.097 5.78337 17.9866 5.62392 17.846 5.49363C17.7054 5.36333 17.5381 5.26534 17.3556 5.2065C17.2397 5.17098 17.1178 5.15919 16.9973 5.17185C16.8767 5.18451 16.76 5.22136 16.654 5.28018C16.6042 5.31319 16.5627 5.3573 16.5328 5.40904C16.503 5.46079 16.4857 5.51876 16.482 5.57838C16.4776 5.62461 16.4553 5.6673 16.4199 5.69742C16.3846 5.72753 16.3389 5.74272 16.2926 5.73977C16.2467 5.73618 16.204 5.71467 16.1738 5.67988C16.1436 5.64509 16.1283 5.5998 16.1312 5.55382C16.1364 5.44089 16.1687 5.33089 16.2255 5.23315C16.2823 5.13542 16.3619 5.05285 16.4575 4.99249C16.6073 4.90248 16.7745 4.8453 16.9481 4.82474C17.1217 4.80418 17.2976 4.82069 17.4643 4.8732C17.6946 4.94599 17.9061 5.06816 18.0843 5.23116C18.2624 5.39417 18.4029 5.59407 18.4958 5.81695C18.8175 6.67373 18.7948 7.62181 18.4326 8.46226C18.3114 8.71792 18.2468 8.99677 18.2433 9.27972V15.4088C18.2388 15.4535 18.2174 15.4947 18.1835 15.5241C18.1495 15.5535 18.1056 15.5687 18.0608 15.5667Z" fill="black"/>
</g>
<defs>
<clipPath id="clip0_934:906">
<rect width="30" height="30" fill="white"/>
</clipPath>
</defs>
</svg>
