<svg width="30" height="30" viewBox="0 0 30 30" fill="none" xmlns="http://www.w3.org/2000/svg">
<g clip-path="url(#clip0)">
<path d="M15.002 29.408C22.9581 29.408 29.4079 22.9582 29.4079 15.0021C29.4079 7.04592 22.9581 0.596191 15.002 0.596191C7.04583 0.596191 0.5961 7.04592 0.5961 15.0021C0.5961 22.9582 7.04583 29.408 15.002 29.408Z" fill="#8E83C7"/>
<path d="M15.002 30.0001C12.0346 30.0009 9.13352 29.1216 6.66585 27.4734C4.19818 25.8253 2.27471 23.4823 1.13875 20.7409C0.002795 17.9995 -0.294622 14.9828 0.284107 12.0723C0.862835 9.16185 2.29172 6.48838 4.39002 4.39008C6.48833 2.29177 9.16178 0.862893 12.0723 0.284165C14.9827 -0.294564 17.9995 0.00286504 20.7409 1.13882C23.4823 2.27478 25.8252 4.19823 27.4734 6.66591C29.1215 9.13358 30.0008 12.0346 30 15.0021C29.9948 18.9782 28.4129 22.7899 25.6014 25.6014C22.7899 28.413 18.9781 29.9948 15.002 30.0001ZM15.002 1.19228C12.2705 1.1915 9.60015 2.00075 7.32862 3.51771C5.05709 5.03467 3.28644 7.19119 2.2406 9.71453C1.19476 12.2379 0.920713 15.0147 1.45312 17.6938C1.98552 20.3729 3.30046 22.8339 5.23163 24.7656C7.1628 26.6974 9.62347 28.013 12.3024 28.5462C14.9814 29.0794 17.7582 28.8061 20.2819 27.761C22.8055 26.7159 24.9625 24.9459 26.4802 22.6748C27.9978 20.4037 28.8078 17.7335 28.8078 15.0021C28.7994 11.3442 27.3418 7.83877 24.7542 5.2534C22.1666 2.66802 18.6599 1.21343 15.002 1.20818V1.19228Z" fill="black"/>
<path fill-rule="evenodd" clip-rule="evenodd" d="M16.9572 6.44984C16.7595 6.08888 16.6532 5.685 16.6477 5.2735C16.6421 4.862 16.7375 4.4554 16.9254 4.08926C17.0764 3.80313 17.287 3.47726 17.1439 3.18715C17.0009 2.89705 16.6313 2.86525 16.3173 2.86128L13.9647 2.83346C13.8206 2.81188 13.6736 2.8209 13.5332 2.85993C13.3929 2.89896 13.2623 2.96713 13.15 3.05998C12.8798 3.35009 13.0189 3.8071 13.1302 4.18861C13.3533 4.94263 13.4036 5.73728 13.2772 6.51342C14.0362 6.5929 14.7357 6.64456 15.4907 6.72404C16.0074 6.77173 16.5796 6.8075 16.9572 6.44984Z" fill="#CCBEE3"/>
<path d="M16.0074 6.90287C15.8308 6.90229 15.6543 6.89169 15.4789 6.87108C15.0815 6.83134 14.7397 6.79955 14.3741 6.76775L13.2653 6.66046H13.1103L13.1342 6.50546C13.2559 5.75049 13.207 4.97786 12.9911 4.24425C12.8679 3.84685 12.7209 3.32227 13.0428 2.97255C13.1703 2.86496 13.3189 2.78531 13.4791 2.73876C13.6393 2.69222 13.8074 2.6798 13.9727 2.70232L16.3253 2.73013C16.679 2.73013 17.1201 2.78179 17.2831 3.12753C17.3327 3.28732 17.3431 3.4567 17.3133 3.62134C17.2836 3.78598 17.2146 3.94103 17.1122 4.07336L17.0645 4.16079C16.8879 4.5052 16.7977 4.88744 16.8019 5.27448C16.8061 5.66152 16.9044 6.04173 17.0884 6.38227L17.148 6.4856L17.0645 6.56509C16.7692 6.81031 16.3902 6.9314 16.0074 6.90287ZM13.4481 6.37433L14.3979 6.46176C14.7636 6.49355 15.1292 6.52534 15.5067 6.56905C15.9327 6.66427 16.3787 6.60659 16.7665 6.40611C16.5893 6.03278 16.4997 5.62391 16.5045 5.21069C16.5093 4.79747 16.6084 4.39079 16.7943 4.02169L16.8459 3.9303C16.9731 3.69185 17.1043 3.44546 17.0129 3.25868C16.9214 3.0719 16.7188 3.02023 16.3174 3.01626L13.9648 2.98845C13.8412 2.9687 13.7148 2.974 13.5933 3.00404C13.4718 3.03407 13.3576 3.08824 13.2574 3.16331C13.0507 3.38983 13.17 3.78723 13.2574 4.14092C13.4755 4.86403 13.5405 5.62469 13.4481 6.37433Z" fill="black"/>
<path fill-rule="evenodd" clip-rule="evenodd" d="M9.74829 25.2153C13.2574 25.9774 16.8948 25.9216 20.3788 25.0523C19.247 18.8032 18.7847 12.4513 18.9998 6.10414C16.49 5.66752 13.9096 5.89775 11.5167 6.77177C11.5167 6.77177 10.2967 19.0555 9.64496 25.2987" fill="#E6DAFC"/>
<path d="M14.6482 25.8988C12.9893 25.9026 11.3352 25.7213 9.71644 25.3583V25.2987L9.48196 25.2749C10.1258 19.1032 11.3378 6.8711 11.3498 6.74791V6.6565L11.4372 6.62471C13.8528 5.74679 16.4571 5.52063 18.9879 5.969H19.115V6.10014C18.9024 12.4365 19.3633 18.7775 20.49 25.0166L20.5179 25.1556L20.3788 25.1874C18.5034 25.6501 16.5798 25.8889 14.6482 25.8988ZM9.81579 25.0762C13.2374 25.8134 16.781 25.7713 20.1841 24.953C19.0785 18.7797 18.623 12.5075 18.8249 6.23923C16.4251 5.84305 13.964 6.06182 11.6717 6.87508C11.5405 8.01165 10.4437 19.131 9.81579 25.0762Z" fill="black"/>
<path d="M13.0229 9.95101H11.4333H11.163V9.65296H11.4333C14.2151 9.6768 16.2259 9.69269 18.9601 9.18799L19.0157 9.4781C17.0386 9.83277 15.0312 9.99117 13.0229 9.95101Z" fill="black"/>
<path d="M19.0078 10.5947H11.028V10.8928H19.0078V10.5947Z" fill="black"/>
<path d="M14.2867 19.5642C12.9172 19.5523 11.5514 19.4193 10.2054 19.1668L10.257 18.8727C13.7383 19.4927 16.5757 19.3655 19.4649 18.4753L19.5563 18.7615C17.8516 19.2992 16.0741 19.57 14.2867 19.5642Z" fill="black"/>
<path d="M13.2654 20.9592C12.2758 20.9592 11.2466 20.8996 10.11 20.8042L10.1338 20.5062C13.6151 20.7963 16.0353 20.7486 19.604 19.6875L19.6874 19.9697C17.6102 20.6273 15.4442 20.961 13.2654 20.9592Z" fill="black"/>
<path d="M14.0589 3.54379L13.7624 3.57422L13.9243 5.15157L14.2208 5.12114L14.0589 3.54379Z" fill="black"/>
<path d="M15.1403 3.6287L14.8423 3.63208L14.859 5.10238L15.157 5.099L15.1403 3.6287Z" fill="black"/>
<path d="M15.921 3.61964L15.7837 5.05566L16.0804 5.08402L16.2177 3.648L15.921 3.61964Z" fill="black"/>
<path d="M21.0107 16.1544C20.9916 16.1552 20.9727 16.1521 20.9549 16.1453C20.9371 16.1384 20.9209 16.128 20.9073 16.1147C20.8933 16.101 20.8821 16.0846 20.8745 16.0665C20.8669 16.0484 20.8629 16.029 20.8629 16.0094C20.8629 15.9897 20.8669 15.9703 20.8745 15.9522C20.8821 15.9341 20.8933 15.9178 20.9073 15.9041L23.1447 13.5554C23.1583 13.5413 23.1745 13.53 23.1924 13.5222C23.2104 13.5144 23.2297 13.5102 23.2492 13.5098C23.2688 13.5094 23.2882 13.5129 23.3064 13.5201C23.3246 13.5272 23.3413 13.5379 23.3553 13.5514C23.3694 13.565 23.3807 13.5812 23.3886 13.5991C23.3964 13.6171 23.4006 13.6364 23.401 13.6559C23.4013 13.6755 23.3978 13.6949 23.3907 13.7131C23.3836 13.7313 23.3729 13.748 23.3593 13.7621L21.1219 16.1067C21.1078 16.1221 21.0906 16.1343 21.0714 16.1426C21.0523 16.1508 21.0315 16.1548 21.0107 16.1544Z" fill="black"/>
<path d="M21.7379 16.397C21.7094 16.3971 21.6813 16.3889 21.6573 16.3734C21.6334 16.3578 21.6144 16.3357 21.6028 16.3095C21.5864 16.2736 21.5847 16.2327 21.5981 16.1956C21.6114 16.1585 21.6388 16.128 21.6744 16.1108L23.9912 15.0617C24.0086 15.0531 24.0276 15.0481 24.047 15.0471C24.0663 15.046 24.0857 15.049 24.1039 15.0557C24.1221 15.0623 24.1388 15.0727 24.1529 15.086C24.167 15.0993 24.1782 15.1154 24.1859 15.1332C24.1946 15.1509 24.1996 15.1702 24.2007 15.1898C24.2018 15.2095 24.1989 15.2292 24.1922 15.2477C24.1856 15.2663 24.1752 15.2833 24.1619 15.2977C24.1485 15.3122 24.1324 15.3238 24.1144 15.3319L21.8015 16.3811C21.7819 16.3915 21.7601 16.397 21.7379 16.397Z" fill="black"/>
<path d="M22.0797 17.3386C22.0433 17.3388 22.0081 17.3255 21.981 17.3013C21.9538 17.2771 21.9366 17.2437 21.9327 17.2075C21.9299 17.1882 21.931 17.1684 21.9359 17.1495C21.9408 17.1306 21.9494 17.1129 21.9612 17.0974C21.9731 17.0818 21.9879 17.0688 22.0048 17.059C22.0217 17.0493 22.0405 17.043 22.0598 17.0406L24.0985 16.8021C24.1375 16.7979 24.1766 16.8094 24.2071 16.834C24.2377 16.8586 24.2572 16.8943 24.2614 16.9333C24.2657 16.9723 24.2542 17.0113 24.2296 17.0419C24.205 17.0725 24.1693 17.092 24.1303 17.0962L22.0956 17.3386H22.0797Z" fill="black"/>
<path d="M8.99318 16.1544C8.97294 16.1545 8.95291 16.1503 8.93441 16.1421C8.91591 16.1338 8.89937 16.1218 8.88587 16.1067L6.64453 13.762C6.62121 13.7324 6.6098 13.6951 6.61256 13.6575C6.61531 13.62 6.63203 13.5848 6.65942 13.5589C6.68681 13.533 6.72289 13.5182 6.76058 13.5176C6.79826 13.517 6.83483 13.5304 6.86309 13.5554L9.10048 15.904C9.12791 15.9322 9.14326 15.97 9.14326 16.0093C9.14326 16.0487 9.12791 16.0865 9.10048 16.1146C9.07051 16.1401 9.03251 16.1542 8.99318 16.1544Z" fill="black"/>
<path d="M8.26597 16.3969C8.24512 16.4023 8.22324 16.4023 8.20239 16.3969L5.88951 15.3477C5.85397 15.3305 5.82636 15.3003 5.81232 15.2634C5.79829 15.2264 5.79889 15.1855 5.814 15.149C5.82211 15.1311 5.83373 15.1149 5.8482 15.1016C5.86266 15.0882 5.87967 15.0779 5.8982 15.0712C5.91674 15.0645 5.93642 15.0616 5.95609 15.0627C5.97576 15.0638 5.99501 15.0688 6.0127 15.0775L8.32559 16.1266C8.36113 16.1439 8.38874 16.1741 8.40277 16.211C8.41681 16.2479 8.4162 16.2888 8.40109 16.3253C8.38729 16.3485 8.3674 16.3674 8.34357 16.3801C8.31974 16.3927 8.29289 16.3985 8.26597 16.3969Z" fill="black"/>
<path d="M7.9242 17.3386H7.90432L5.86961 17.0962C5.83062 17.0915 5.7951 17.0714 5.77088 17.0405C5.74666 17.0096 5.73572 16.9703 5.74046 16.9313C5.74521 16.8923 5.76524 16.8568 5.79617 16.8325C5.8271 16.8083 5.86638 16.7974 5.90538 16.8021L7.94009 17.0406C7.97952 17.0455 8.01538 17.0658 8.03993 17.0971C8.06448 17.1283 8.07573 17.168 8.07123 17.2075C8.0673 17.2437 8.05009 17.2771 8.02293 17.3013C7.99577 17.3255 7.96059 17.3388 7.9242 17.3386Z" fill="black"/>
<path d="M11.6359 14.3938C11.6081 14.0362 11.7313 13.9964 12.0333 13.9964H12.5102C12.6149 13.9937 12.7195 14.0071 12.8202 14.0362C12.8642 14.0491 12.9015 14.0789 12.9238 14.119C12.9461 14.1592 12.9517 14.2065 12.9394 14.2508C12.9303 14.2889 12.9083 14.3228 12.8772 14.3467C12.8461 14.3705 12.8077 14.383 12.7685 14.3819H12.7248C12.6448 14.3585 12.5617 14.3478 12.4784 14.3501H11.9856C12.0153 14.5474 12.0286 14.7468 12.0254 14.9462C12.0969 14.9462 12.4903 14.8986 12.5817 14.8986C12.7566 14.8986 12.8241 14.986 12.8241 15.0734C12.8253 15.1178 12.8096 15.161 12.78 15.1943C12.7505 15.2275 12.7094 15.2482 12.6652 15.2522C12.4502 15.2443 12.2351 15.2643 12.0254 15.3118C12.0254 15.4827 12.0254 15.7569 12.0254 15.896C12.0254 16.0351 11.9856 16.0987 11.8545 16.0987C11.817 16.0989 11.7805 16.0865 11.751 16.0634C11.7214 16.0403 11.7005 16.008 11.6915 15.9715C11.6836 15.8763 11.6836 15.7806 11.6915 15.6854C11.6915 15.3675 11.7154 14.9423 11.7154 14.9105C11.6986 14.7369 11.6721 14.5644 11.6359 14.3938Z" fill="black"/>
<path d="M13.2256 14.227C13.2113 14.2006 13.204 14.1709 13.2044 14.1408C13.2049 14.1107 13.2131 14.0813 13.2283 14.0553C13.2435 14.0293 13.2651 14.0077 13.2911 13.9925C13.3171 13.9774 13.3466 13.9691 13.3766 13.9687C13.5358 13.9673 13.695 13.9739 13.8535 13.9886C14.3145 14.0363 14.6761 14.3303 14.5887 14.68C14.5346 14.8124 14.451 14.9306 14.3442 15.0256C14.2375 15.1207 14.1104 15.19 13.9727 15.2285C14.2167 15.3959 14.436 15.5965 14.6245 15.8246C14.6365 15.8437 14.6446 15.8651 14.6481 15.8875C14.6516 15.9098 14.6506 15.9327 14.645 15.9546C14.6394 15.9765 14.6294 15.9971 14.6157 16.0151C14.6019 16.033 14.5846 16.048 14.5649 16.059C14.5392 16.0765 14.5084 16.0849 14.4774 16.0829C14.4482 16.0812 14.4197 16.0728 14.3942 16.0583C14.3687 16.0439 14.3469 16.0237 14.3304 15.9994C14.2708 15.9319 14.2032 15.8683 14.1357 15.8047C13.9888 15.6488 13.8201 15.515 13.635 15.4073L13.5674 15.3517C13.5841 15.5472 13.5908 15.7436 13.5873 15.9398C13.5878 15.9621 13.5839 15.9842 13.5757 16.0049C13.5676 16.0256 13.5554 16.0445 13.5398 16.0604C13.5243 16.0763 13.5057 16.089 13.4852 16.0976C13.4646 16.1063 13.4426 16.1107 13.4204 16.1107C13.321 16.1107 13.2217 16.0392 13.2375 15.9398C13.2534 15.8405 13.1899 15.145 13.1899 14.6522C13.1818 14.5095 13.1938 14.3664 13.2256 14.227ZM14.1317 14.7436C14.1993 14.684 14.2549 14.6324 14.2549 14.5728C14.2549 14.5131 14.1993 14.4535 14.0483 14.386C13.8939 14.3323 13.7307 14.308 13.5674 14.3144C13.5445 14.4241 13.5365 14.5364 13.5435 14.6483C13.5435 14.7397 13.5435 14.8589 13.5435 15.0178C13.6071 14.9702 13.631 14.9821 13.8774 14.8867C13.9615 14.8449 14.0425 14.7971 14.1198 14.7436H14.1317Z" fill="black"/>
<path d="M14.9265 15.169C14.9265 15.0697 14.9265 14.9703 14.9265 14.8829C14.9265 14.6961 14.9265 14.5371 14.9265 14.398C14.92 14.3121 14.92 14.2257 14.9265 14.1397C14.9315 14.1117 14.943 14.0852 14.96 14.0624C14.9771 14.0396 14.9992 14.021 15.0247 14.0083C15.0502 13.9956 15.0783 13.989 15.1068 13.989C15.1353 13.9891 15.1634 13.9958 15.1888 14.0086H15.308H15.6021C16.0432 14.0086 16.1545 13.9847 16.226 14.1079C16.2975 14.2311 16.1624 14.3662 16.0233 14.3662C15.773 14.3464 15.5266 14.3662 15.2802 14.3424C15.2802 14.5292 15.2802 14.6405 15.2802 14.8789C15.3955 14.8789 15.4869 14.8988 15.5624 14.8988C15.7014 14.8988 15.8008 14.8988 15.9319 14.8789C15.9783 14.8789 16.0228 14.8973 16.0556 14.9301C16.0884 14.9629 16.1068 15.0074 16.1068 15.0538C16.1068 15.1005 16.0885 15.1454 16.0558 15.1788C16.0232 15.2123 15.9787 15.2316 15.9319 15.2326C15.7889 15.2326 15.7054 15.2326 15.5822 15.2326C15.476 15.2321 15.3698 15.2254 15.2643 15.2127C15.2444 15.5306 15.2325 15.6101 15.2365 15.7254C15.2934 15.7297 15.3505 15.7297 15.4074 15.7254C15.6339 15.7254 15.916 15.6737 16.0989 15.6737C16.2101 15.6737 16.3174 15.7254 16.3174 15.8446C16.3174 15.892 16.2986 15.9375 16.265 15.971C16.2315 16.0046 16.186 16.0234 16.1386 16.0234C16.0605 16.0193 15.9822 16.0193 15.9041 16.0234C15.7383 16.0487 15.5711 16.0633 15.4034 16.0671C14.9782 16.0671 14.8907 15.9122 14.8907 15.63C14.8947 15.5426 14.9106 15.3717 14.9265 15.169Z" fill="black"/>
<path d="M16.5797 15.169C16.5797 15.0697 16.5797 14.9703 16.5797 14.8829C16.5797 14.6961 16.5797 14.5371 16.5797 14.398C16.5796 14.3116 16.5863 14.2252 16.5996 14.1397C16.6046 14.1117 16.6161 14.0852 16.6331 14.0624C16.6502 14.0396 16.6724 14.021 16.6978 14.0083C16.7233 13.9956 16.7514 13.989 16.7799 13.989C16.8084 13.9891 16.8365 13.9958 16.8619 14.0086H16.9811H17.2752C17.7163 14.0086 17.8236 13.9847 17.8991 14.1079C17.9746 14.2311 17.8355 14.3662 17.6964 14.3662H17.6766C17.4302 14.3464 17.1838 14.3662 16.9334 14.3424C16.9334 14.5292 16.9334 14.6405 16.9334 14.8789C17.0487 14.8789 17.1401 14.8988 17.2196 14.8988C17.3586 14.8988 17.458 14.8988 17.5852 14.8789C17.6315 14.8789 17.676 14.8973 17.7088 14.9301C17.7416 14.9629 17.76 15.0074 17.76 15.0538C17.76 15.1005 17.7417 15.1454 17.7091 15.1788C17.6764 15.2123 17.6319 15.2316 17.5852 15.2326C17.4461 15.2326 17.3626 15.2326 17.2394 15.2326C17.1332 15.2321 17.027 15.2254 16.9215 15.2127C16.9031 15.383 16.8938 15.5541 16.8937 15.7254C16.9506 15.7297 17.0077 15.7297 17.0646 15.7254C17.2871 15.7254 17.5732 15.6737 17.7561 15.6737C17.8673 15.6737 17.9707 15.7254 17.9707 15.8446C17.9707 15.892 17.9518 15.9375 17.9183 15.971C17.8847 16.0046 17.8392 16.0234 17.7918 16.0234C17.7163 16.0234 17.6368 16.0234 17.5574 16.0234C17.3929 16.0488 17.227 16.0634 17.0606 16.0671C16.6314 16.0671 16.544 15.9122 16.544 15.63C16.5479 15.5426 16.5678 15.3717 16.5797 15.169Z" fill="black"/>
</g>
<defs>
<clipPath id="clip0">
<rect width="30" height="30" fill="white"/>
</clipPath>
</defs>
</svg>
