<svg width="40" height="70" xmlns="http://www.w3.org/2000/svg"><path d="M22.234 41.633c.074.125.152.25.23.37a2.14 2.14 0 00-.518.211s-.352.405-.522 1.055c-.095-.44-.191-.775-.278-.934.409-.04.87-.414 1.088-.702m6.613 22.615c.257-.552.2-1.086-.03-1.366.152-.392.152-.947.008-1.279.227-.53.283-1.193.07-1.473.096-.077.287-.516.5-1.098 1.462 1.628 3.75 3.024 5.826 1.87 3.56-1.982 4.604-5.84 4.26-6.943 1.183-1.956.104-7.287-.866-8.08-.988-4.513-6.204-6.507-9.22-5.693 2.21-1.951-1.466-6.086-3.106-6.073 3.768-4.066-3.26-9.492-4.047-9.712a.744.744 0 00-.104-.021c.944-1.31 1.079-3.312.226-4.958-.77-1.49-2.771-2.459-4.373-2.963.353-.654 1.597-2.838 2.776-3.393.27-.147.07-.685-.256-1 .243-.676-1.58-6.903-3.877-9.212-4.495-4.522.16.586.448 1.094.23.41 2.171 3.308 2.863 8.187-.618.461-1.27 1.426-1.788 2.326.283-.814.674-1.64 1.17-2.072.218-.215-.013-.706-.418-.921.044-.72-3.567-6.168-6.422-7.753-5.586-3.105.318.517.736.93.335.328 3.02 2.576 5.047 7.073-.77 1.025-1.249 3.428-1.401 4.448-.148-.03-.283-.056-.41-.077-1.479-.224-3.989.099-4.616.47-.626.365-.744.443-1.318.81a1.399 1.399 0 00-.574.787c-2.302.478-2.485 1.31-2.607 1.572-.126.263.183.177.4.185.075 0 .149.005.218.013a.733.733 0 00.113.272s.179.323.331.404c.392.203 1.349.367 1.884.444.252.271.492.59.722.948.818 1.27 2.38 2.175 3.83 2.795 1.07.456 3.193 1.068 4.89.908-.366.41-.814.922-1.092 1.288-.457.599-.583 1.693-.414 2.99-.23.098-.496.266-.757.55-1.148-1.374-1.518-1.636-1.845-1.468-1.24-.246-4.903-.892-5.521-1.004-2.206-1.645-3.298-1.96-3.56-1.873-.508-.392-1.326-1.185-1.587-1.098-.292-.608-.67-.784-.857-.793.148.396.2.513.2.513s-.261-.302-.614-.233c.392.345.688.84.688.84s1.64 1.214 1.932 1.128c.152.616 2.832 2.042 3.32 1.977.108.22 2.023.702 3.632 1.016-.004 0-.008.005-.008.01-1.323-.126-5.2-.423-5.852-.475-2.659-1.602-3.847-1.826-4.086-1.7-.618-.38-1.653-1.18-1.893-1.052-.452-.654-.878-.81-1.074-.796.252.435.335.56.335.56s-.34-.315-.679-.19c.483.34.914.866.914.866s1.975 1.18 2.245 1.05c.313.68 3.394 1.977 3.872 1.844.274.396 5.744.995 6.21.788.112.435 3.019 2.8 3.35 2.808.052.198 1.196-.125 2.014-.62.091-.013.183-.026.287-.048.548 1.473 1.392 2.972 2.51 4.2-.147.305-.19.663-.165 1.046 0 0-1.497 1.3-.93 3.006-.023.461.09 1.676.269 2.873-.23.37-.361.71-.309.943-.096.246-.096 1.387-.022 2.283-1.244 1.033-3.037 2.88-2.92 3.652-.234.465-.408 3.41-.156 4.044-.183.344-.43 2.196-.296 2.554-.209.202-.34.534-.34.534s.314-.043.536-.271c-.083.288-.03.43-.004.603.195-.138.217-.534.226-.737.34-.232.409-1.972.322-2.291.435-.25.457-3.622.413-4.2.296-.12 1.362-1.115 2.293-2.08-.03.513-.022 1.099.052 1.275-.139.155-.387.474-.387.474s.396-.073.544-.241c-.04.228.009.349.04.49.134-.102.221-.34.217-.507.235-.164.07-1.667-.018-1.934a.238.238 0 00.074-.112c.562-.612.984-1.124.988-1.266.148-.198.083-1.37-.074-2.627.157.659 1.275 1.761 3.755 3.398.152 1.852.53 3.742.983 4.104-.209.228-.117 1.344.279 2.43-.675 1.278-1.227 2.45-1.249 2.975-.579.754-1.566 4.583-1.31 5.173-.374.073-.291 1.447-.065 1.597-.244.25-.17.991.07 1.284-.083.082-.053 1.085.121 1.292-.056.15.518 1.038.074 1.848.505-.41.453-.25.453-.25s.117.305-.048.555c.218.005.71-.982-.048-1.98.257-.556.2-1.09-.026-1.37.148-.392.152-.948.004-1.28.227-.534.283-1.193.07-1.472.322-.259 1.606-4.346 1.545-4.807.139-.095.661-.917 1.283-2.011.083.09.166.172.253.245-.122.38.121 1.081.613 1.857-.213.943-.33 1.783-.222 2.037-.374.069-.291 1.442-.065 1.593-.244.25-.174.99.07 1.284-.083.081-.053 1.085.117 1.292-.052.15.522 1.038.074 1.847.51-.409.457-.25.457-.25s.113.306-.052.556c.222.004.709-.982-.044-1.985" fill-rule="evenodd"/></svg>