<svg width="50" height="70" xmlns="http://www.w3.org/2000/svg" xmlns:xlink="http://www.w3.org/1999/xlink"><defs><path id="a" d="M0 0h50v68H0z"/></defs><g transform="translate(0 1)" fill="none" fill-rule="evenodd"><mask id="b" fill="#fff"><use xlink:href="#a"/></mask><path d="M16.752.002c.963.035 1.67.848 2.15 1.595.624.975.944 2.176 1.277 3.274.086.278.163.559.236.843.26.645.474 1.312.677 1.973.773 2.522 1.315 5.112 1.784 7.707a55.45 55.45 0 01.708 5.293c.08.293.102.82.094 1.4.037.74.054 1.48.05 2.216.502-.552 1.854-1.503 3.67-3.113.462-.41 1.194-.865 2.086-1.333a4.17 4.17 0 01.189-.145c2.052-1.544 4.449-2.519 6.766-3.587 1.152-.533 2.297-1.088 3.404-1.71 1.126-.638 2.175-1.396 3.263-2.092.905-.58 1.897-1.246 2.967-1.452 1.26-.24 2.333.415 2.937 1.499.476.858.685 1.904.822 2.866.156 1.084.176 2.183.166 3.277-.013 1.62-.242 3.232-.607 4.81-.095 1.6-.497 3.18-.92 4.73-.41 1.512-.828 3.03-.999 4.59a19.16 19.16 0 00-.088 2.785l.038.27c.197 1.383.54 2.743.623 4.14.087 1.422-.304 2.824-1.352 3.825-.559.53-1.318.824-2.053 1.01a7.532 7.532 0 01-1.257.182c-1.507.465-5.27 1.128-7.041 1.409 3.617 1.785 7.057 3.974 9.49 7.266 2.377 3.216 4.599 8.255 2.242 12.055-.91 1.47-2.374 2.26-4.066 2.397-1.54.125-3.107-.409-4.46-1.1a15.056 15.056 0 01-2.193-1.377 2.616 2.616 0 01-.868-.526c-.256-.233-.507-.47-.762-.704-.578-.321-1.062-.749-1.51-1.233-.7-.5-1.347-.987-1.927-1.646-.305-.348-.676-.637-1.025-.937l-.101-.09c-.161-.12-.301-.228-.42-.322-.046-.024-.094-.045-.14-.069-.002-.002-.002-.003-.004-.003a1.423 1.423 0 00-.132-.13 1.48 1.48 0 00-.17-.162c-.004-.004-.005-.007-.009-.008a.151.151 0 00-.029-.02c-.008-.006-.016-.013-.024-.017a.07.07 0 00-.082-.004.96.96 0 01-.072-.166c-1.792-1.618-7.454-6.708-9.06-8.655-1.753-2.127-4.23-4.665-4.134-4.37.092.28.182.353.323.644.58.497 1.101 1.047 1.528 1.699a4.1 4.1 0 01.638 1.82c.219.226.415.47.573.754.396.713.26 1.568.198 2.336-.063.783-.013 1.557-.097 2.34-.047.452-.127.968-.385 1.354-.017.156-.042.313-.064.468-.106.718-.275 1.418-.644 2.023a.944.944 0 01-.254.357c-.065.079-.13.155-.205.229-.449.45-1.27.156-1.39-.447-.055-.28-.02-.549.064-.812a26.364 26.364 0 01-.591-2.548c-.021-.179-.193-3.37-.467-3.779-.274-.41-1.101-3.417-1.12-3.462-.021-.047-.749-.48-1.098-.77-.35-.289-.226.09-.247.177-.02.087.382.714.562 1.164.182.452.707 1.355.768 1.628.06.274-.27 1.37-.433 1.835-.16.464-.64 3.106-.414 3.485.227.38-.064.258-.135.213-.072-.044-.092-.592-.178-1.084-.089-.493.639-4.312.642-4.578.003-.266-1.09-2.538-1.245-2.872-.156-.334-.462-.798-.576-.67-.114.127.984 2.706.958 2.788-.026.084-2.38 2.964-2.857 3.397-.477.432-.577 2.009-.836 2.312-.26.302-.034.313-.212.333-.18.019-.12-.076.058-.565.178-.49.627-2.245.787-2.445.16-.198 2.648-3.16 2.714-3.319.067-.158-1.21-2.348-1.272-2.254-.06.097-1.767 1.783-1.867 1.886-.1.105-.301-.158-.22-.34.085-.181 2.066-1.827 2.066-1.827s-.084-.657-.16-1.007c-.078-.35-.344-.721-.7-.949-.355-.227-1.27-.208-1.48-.243-.211-.036-2.241 2.786-2.492 3.127-.252.342-1.158 1.136-1.48 1.431-.322.297-.766.681-1.012.49-.247-.19-.145-.191.109-.33.256-.139 1.431-1.094 1.951-1.7.518-.606 2.315-3.375 2.474-3.573.161-.2.392.014.636.104.243.088.652.183.76.118.108-.064-.127-.114-.385-.447-.256-.33-.537-.677-.732-1.105-.197-.428-.452-.39-.723-.595-.27-.207-.224.09-.571.37-.347.281-1.531.73-2.106.896-.575.17-1.698.254-2.012.221-.313-.034-.494-.114-.654-.284-.16-.168.044-.172.285-.185.242-.013 1.056.072 1.49.02.434-.053 1.42-.236 1.89-.504.472-.268 1.572-.736 1.41-1.007-.16-.271-1.578-1.612-1.641-1.62-.063-.007-1.124.087-2.35.44-1.229.352-3.29-.029-3.534-.118-.243-.088-.874-.356-.926-.592-.051-.232.28-.02.475-.064.195-.042 1.23.585 1.755.653.525.068 2.96-.45 3.323-.653.363-.204 1.23-.252 1.503-.212.275.044 1.151 1.24 1.431 1.586.28.346.824.594.937.364.113-.228.087-.714.172-1.16.084-.45.6-.79.433-1.364-.169-.576-1.539-1.152-2.144-1.775-.607-.623-3.883-2.716-4.11-2.727-.227-.011-.544.12-.885-.13-.341-.254-.431-.11-.57-.367-.138-.255-.072-.515.079-.754.151-.237.497-.15.771-.108.274.04.362.533.64.776.28.247 3.697 2.432 3.528 2.124-.17-.312-2.01-1.99-2.67-2.679-.664-.692-3.431-2.328-3.716-2.51-.285-.181-.57-.365-.734-.736-.163-.375.096-.676.407-.746.312-.068.419.604.786.972.367.367.967.684 2.413 1.878 1.445 1.192 6.027 6.064 6.33 6.325.3.26.88.294 1.669.734.792.438 1.017-1.494 1.01-1.9 0-.047-.009-.218-.02-.483a1.006 1.006 0 01-.092-.387c-.212-5.496-.642-10.994-.726-16.493-.039-2.572-.02-5.146.177-7.713.11-1.402.26-2.822.509-4.22.003-.661.01-1.321.024-1.98.02-.877.014-1.739.253-2.586.191-.681.47-1.336.78-1.969C14.31 1.41 15.3-.055 16.753.002" fill="#000" mask="url(#b)"/></g></svg>