<svg width="40" height="40" xmlns="http://www.w3.org/2000/svg"><g fill="#FFF" fill-rule="evenodd"><path d="M20 37.339c-9.563 0-17.339-7.776-17.339-17.339 0-9.563 7.776-17.339 17.339-17.339 9.563 0 17.38 7.776 17.38 17.339 0 9.563-7.817 17.339-17.38 17.339M20 0C8.981 0 0 8.981 0 20s8.981 20 20 20 20-8.981 20-20S31.019 0 20 0"/><path d="M16.701 10.543a.934.934 0 00-1.03-.126.977.977 0 00-.537.879v17.613c0 .377.206.753.536.92.124.084.289.084.412.084a1.1 1.1 0 00.619-.209l10.722-8.828a.976.976 0 00.37-.794.976.976 0 00-.37-.795L16.7 10.543z"/></g></svg>