<svg width="20" height="20" xmlns="http://www.w3.org/2000/svg"><path d="M14.458 0c-1.124 0-2.229.45-3.08 1.33L3.801 9.147c-2.403 2.48-2.403 6.513 0 8.993a6.032 6.032 0 008.711 0l5.05-5.213-1.136-1.173-5.05 5.213a4.444 4.444 0 01-6.44 0c-1.783-1.841-1.783-4.806 0-6.647l7.576-7.819a2.698 2.698 0 013.914 0 2.912 2.912 0 010 4.04l-7.575 7.82c-.388.4-1 .4-1.389 0a1.028 1.028 0 010-1.434l6.944-7.168-1.136-1.173-6.944 7.168c-1.007 1.04-1.007 2.74 0 3.78a2.54 2.54 0 003.661 0l7.576-7.82c1.704-1.76 1.704-4.626 0-6.386A4.326 4.326 0 0014.458 0z" fill="#FFF"/></svg>