<svg width="360" height="360" xmlns="http://www.w3.org/2000/svg" xmlns:xlink="http://www.w3.org/1999/xlink"><defs><path id="a" d="M0 0h363v356H0z"/></defs><g transform="translate(-2 2)" fill="none" fill-rule="evenodd"><mask id="b" fill="#fff"><use xlink:href="#a"/></mask><path d="M287.858 108.879c10.453-5.113 16.8-9.568 27.406-14.305 27.006-12.056 53.87-45.874 45.015-77.69-.282-1.01-21.77-3.7-53.221 4.542-9.338 2.446-26.11 10.625-45.935 26.832-6.77 5.537-14.495 13.72-23.378 14.524-5.412.493-8.856-4.305-6.79-9.4 1.769-4.372 5.69-8.03 8.956-11.073 17.326-16.15 41.338-17.24 60.618-29.56 1.72-1.103-1.838-2.727-1.838-2.727-8.584-6.602-26.032-6.405-35.575-5.718-17.85 1.286-32.23 4.442-49.343 10.664-16.335 5.943-31.024 16.194-40.449 31.843-8.267 13.73-10.227 29.761-15.373 44.833-2.397 7.008-14.758 24.644-19.156 9.887-2.965-9.943-1.047-22.148.834-32.055 2.687-14.174 10.143-23.024 20.735-31.832 12.52-10.41 26.704-18.683 35.688-33.15.62-1.003.237-2.112-.451-2.711-14.597-2.175-28.675 3.744-41.227 9.108-13.761 5.882-27.455 12.4-39.91 21.006C90.182 48.676 66.07 77.012 67.23 110.119c.617 17.589 9.14 33.793 12.013 50.96.674 4.026 2.733 24.351-4.388 23.658-4.792-.466-9.093-8.171-11.491-11.929-19.064-29.869-13.087-71.496 5.765-98.4 1.154-1.642-1.259-3.136-3.137-3.41-19.266-2.778-32.787 8.489-44.884 23.075-12.43 14.987-18.455 33.751-19.037 53.758-.637 21.795 3.106 43.39 7.916 64.554 5.572 24.539 15.015 48.45 27.609 69.912.434.745 23.429 56.82 50.935 66.863 24.51 8.948 52.182 4.3 76.231-3.28 24.423-7.696 46.809-21.331 67.919-36.238 21.733-15.344 43.443-35.796 48.887-64.392.782-1.34-.269-3.53-1.859-2.663-17.041 9.3-33.67 18.221-53.016 20.485-13.453 1.573-27.56 1.734-41.068.613-13.396-1.11-27.732-4.196-38.326-13.757-4.42-3.987-16.886-23.208-4.71-24.312 9.28-.845 19.78 4.678 28.137 8.41 7.977 3.567 15.697 7.738 23.606 11.459 21.212 9.98 48.03 6.655 69.074-1.13 32.537-12.035 61.376-42.875 57.698-82.225 1.653-1.628-.29-4.586-1.87-3.026-20.705 20.455-51.524 27.44-79.013 30.324-10.488 1.1-27.183 1.784-32.343-10.733-5.215-12.662 11.32-13.773 18.89-14.026 8.41-.282 16.818.729 25.232.594 14.679-.229 29.63-1.633 43.417-7.168 11.724-4.706 20.965-14.631 28.39-25.113 6.48-9.156 12.756-21.408 10.747-33.355-.842-2.835-1.236-3.662-2.679-2.124-14.09 15.028-37.236 30.61-58.065 29.46-6.414-.36-5.43-4.665-1.592-8.422 4.42-4.33 10.26-7.029 15.64-9.662z" fill="#FFF" mask="url(#b)"/></g></svg>