<svg width="1560" height="830" xmlns="http://www.w3.org/2000/svg"><path d="M1377.286 305.633c14.662.475 28.821-2.39 42.853-5.682-10.92 4.73-21.472 10.157-31.08 16.384-15.822 10.246-26.731 22.776-38.23 36.24-.932 1.095.333 2.568 1.773 2.58 6.063.042 13.062-2.246 19.006-3.293 9.295-1.638 18.603-3.234 27.866-5.007 5.69-1.089 11.519-2.23 17.336-3.544-5.56 3.91-9.749 8.815-11 15.217-1.71 8.79 5.746 14.503 14.39 18.98-10.477-2.157-21.697-3.24-23.473 2.317-2.755 8.625 10.315 16.57 20.401 22.865-10.58-2.717-24.313-5.085-26.728 2.796-2.265 7.404 3.675 14.917 8.698 20.554 6.331 7.098 14.055 13.21 21.228 19.717-3.294.416-5.356 3.124-5.256 8.106.052 2.754.456 5.552 1.059 8.346-18.21-30.265-50.093-57.699-48.31-92.389.041-.878-.91-1.602-1.928-1.605-.21-.002-.421-.002-.633-.003-.652-.003-1.35.304-1.658.797-14.565 23.239-2.41 47.558 11.938 68.587 17.324 25.39 39.28 47.678 41.82 77.2-10.129-26.675-27.166-51.01-45.219-74.503-10.715-13.94-21.728-27.71-31.689-42.042-9.87-14.203-20.99-29.808-23.137-46.395-.234-1.786-3.025-2.092-3.85-.923-.318.11-.58.313-.678.643-10.619 36.177 5.22 75.65 27.992 106.219 12.33 16.547 27.07 31.764 40.45 47.715 13.288 15.843 31.587 42.707 35.387 64.106-28.479-26.155-58.966-80.029-93.98-104.618-18.171-12.755-31.396-24.424-52.176-33.955-22.101-10.149-46.488-20.842-71.708-23.842-2.691-.321-3.851 3.116-1.134 3.44a.438.438 0 01.05.007c4.385 7.452 12.086 12.934 19.603 18.216 10.542 7.41 19.992 15.633 29.788 23.715 21.346 17.611 41.569 35.521 59.562 55.623 16.406 18.325 31.624 37.363 49.013 55.074 16.104 16.4 32.101 33.94 51.379 47.962-4.526.237-7.118 3.752-6.796 9.662.31 5.624 3.226 10.606 6.048 15.594 3.01 5.33 6.271 10.566 9.58 15.78-2.056-.775-4.151-.836-6.082.411-3.704 2.39-4.265 5.535-3.273 8.804-27.82-31.148-48.695-65.78-72.9-99.046-12.754-17.524-27.553-34.037-45.223-48.327-15.239-12.322-51.235-39.18-72.291-43.071-1.234-.23-2.083.997-1.356 1.716-.338.52-.338 1.178.326 1.748 18.34 15.724 46.352 48.73 58 68.25 11.877 19.912 23.291 39.98 36.012 59.54 13.887 21.353 29.385 41.956 47.095 61.25 8.532 9.3 17.886 17.968 25.535 27.825 7.573 9.762 11.656 19.914 14.643 30.993-19.124-22.701-39.743-44.525-58.786-67.288a1149.277 1149.277 0 01-28.036-34.916c-10.17-13.17-17.29-26.03-22.978-40.957-.41-1.082-1.622-1.219-2.457-.776-.74-.225-1.635-.032-1.926.817-10.105 29.778 6.91 60.915 28.558 84.105 24.35 26.08 59.276 51.434 62.36 86.293-11.776-17.115-23.906-34.036-37.849-50.008-13.78-15.779-30.572-33.627-52.46-41.742-1.433-.532-3.722.36-3.002 1.926 8.104 17.68 20.362 33.486 32.278 49.485 11.265 15.124 24.329 32.383 27.175 50.577-5.47-13.333-17.781-29.04-33.726-30.171-4.914-.35-8.585 3.31-8.786 7.16-.348 6.72 2.673 12.9 6.467 18.767-5.484-3.516-11.65-5.87-15.512-1.923-3.657 3.737-2.389 8.238.571 12.47-5.065-2.528-10.24-4.923-14.774-8.153-9.86-7.04-18.618-16.994-26.09-25.754-14.99-17.583-20.67-39.669-24.389-60.67-3.884-21.917-4.211-44.223-4.304-66.338-.089-20.437 1.28-41.466-7.042-61.029-.79-1.851-3.973-1.406-4.207.154-16.763 44.947-26.423 94.837-23.88 141.994 1.067 19.904 6.697 39.723 21.005 55.974 12.723 14.45 30.623 25.932 49.712 34.5-36.13-5.362-65.716-18.8-86.52-45.72-21.532-27.862-31.949-61.062-29.048-93.966.156-1.764-3.303-2.154-3.703-.418a3.722 3.722 0 00-.045.235c-21.116 22.225-17.605 57.853-10.07 83.71 4.33 14.876 13.105 28.513 24.444 40.452 12.5 13.16 28.388 21.147 45.069 29.843-41.412-9.636-68.192-40.057-99.667-62.77-28.91-20.853-65.989-39.515-104.739-42.802-2.667-.227-2.923 2.845-.844 3.687 11.398 18.17 34.055 31.995 54.072 42.884 12.733 6.925 25.58 13.584 37.137 21.876 8.18 5.87 14.408 13.256 19.996 20.923-12.554-8.799-30.204-14.88-45.206-16.892-6.647-.892-14.117-.602-19.018 3.69-3.387 2.969-3.96 6.854-3.247 10.887-4.302-4.309-9.764-6.95-17.818-4.58-12.976 3.815-18.275 18.584-25.257 27.699-11.358-8.929-27.81-22.942-44.417-14.672-7.31 3.64-4.776 10.86-.345 17.07-9.315-4.82-20.235-7.257-31.147-4.64-9.303 2.23-15.571 8.833-15.208 16.172-10.692-11.401-26.483-22.066-41.89-27.095-7.706-2.509-15.868-3.628-23.337-.03-6.703 3.226-9.142 9.172-9.764 15.371-5.57-10.784-16.611-19.869-26.77-27.403-15.84-11.744-33.67-22.101-51.054-32.181-21.357-12.384-43.694-23.571-62.87-38.374-20.85-16.092-33.136-36.829-45.662-57.689-.725-1.21-2.282-1.022-3.13-.248-.537.004-1.048.238-1.203.802-4.272 15.42-.45 33.105 4.48 48.118 5.3 16.12 14.54 31.253 25.504 45.164 11.048 14.029 24.57 26.66 39.183 38.149 14.61 11.493 31.427 21.291 42.282 35.589-12.132-3.134-21.15-10.354-30.067-17.777-9.24-7.69-19.288-14.648-28.845-22.066-18.533-14.38-38.135-27.906-63.29-33.03-.818-.167-1.893.09-2.423.684-1.237.533-1.146 2.121-.372 2.947 11.418 12.23 22.453 24.328 31.212 38.04 3.745 5.859 7.458 11.95 11.823 17.634-7.645-6.836-15.922-13.185-26.793-13.554-12.483-.423-16.352 8.226-22.022 15.617.13-8.835.033-20.09-9.859-23.796-7.049-2.638-16.095 1.113-22.466 3.312-6.555 2.266-12.89 4.766-19.348 7.037 8.774-5.971 15.944-14.76 21.668-21.673 12.582-15.193 21.712-32.499 36.178-46.576.953-.927.47-2.91-1.354-2.727-22.791 2.274-42.055 12.272-59.01 24.723-20.095 14.756-33.202 34.31-52.015 49.804.11-4.245 7.228-13.12 8.57-15.076 6.2-9.026 13.21-17.67 20.182-26.28 6.263-7.736 12.688-15.38 18.781-23.203 6.927-8.897 9.777-18.699 12.42-29.024.473-1.845-1.954-2.911-3.621-1.758-10.223 7.065-22.128 11.898-33.568 17.395-11.25 5.41-20.653 12.393-29.582 20.211-8.255 7.228-15.618 15.161-22.847 23.105-7.002 7.692-12.91 16.426-21.147 23.258 7.06-12.132 17.666-35.11-1.44-34.555-9.447.272-18.04 9.107-23.594 14.463-2.94 2.837-5.693 5.808-8.354 8.84 1.926-6.667 1.222-12.43-9.731-9.599-8.206 2.121-15.078 9.71-20.401 14.856-3.49 3.377-7.09 6.932-10.383 10.637 4.807-9.49 10.748-19.019 7.557-29.268-2.444-7.851-10.744-10.248-19.504-8.877-11.708 1.83-22.538 8.863-31.8 14.694-10.931 6.88-21.742 13.89-32.52 20.933 4.435-5.44 15.193-18.24 8.232-20.157-20.07-5.519-34.342 14.521-51.535 21.897 6.483-7.214 16.075-18.512 7.972-22.201-14.804-6.733-35.26 7.144-49.703 14.505 8.263-9.965 23.087-15.296 36.203-19.847 15.524-5.384 31.224-10.324 46.467-16.28 31.336-12.234 63.21-36.973 65.924-67.567.068-.779-.39-1.272-1.015-1.525-.329-1.31-3.013-1.342-3.544.064-5.291 14.023-18.163 22.128-33.245 28.73-17.723 7.754-36.962 13.271-55.385 19.757-30.152 10.62-60.918 23.525-83.458 43.78 31.654-59.634 133.245-67.064 159.192-131.079.6-1.475-1.873-2.633-3.117-1.512-12.3 11.083-25.233 22.119-40.205 30.686-15.363 8.785-33.508 14.598-50.071 21.626-29.928 12.701-57.719 28.483-80.425 49.073 8.334-12.763 18.442-24.648 25.876-37.838 4.527-8.035 13.133-22.276 5.073-30.617-15.063-15.584-39.273 6.02-55.874 23.49 2.363-3.497 4.73-6.996 6.983-10.59 2.383-3.8 7.325-12.578 3.86-16.896-2.163-2.696-4.912-2.981-7.917-1.805 2.152-2.536 4.3-5.075 6.388-7.648 2.504-3.082 13.878-14.766 7.164-18.85-5.312-3.232-14.176 2.058-18.395 4.46-7.594 4.332-13.886 10.722-19.527 17.29 3.563-8.139 7.418-16.128 12.24-23.895 7.006-11.29 16.636-19.78 26.567-29.226 1.384-1.315.026-3.07-1.947-2.796-14.299 2.006-27.015 8.944-36.799 18.029 3.198-7.709 6.083-15.505 9.576-23.152 6.474-14.173 17.803-25.263 31.204-35.246 24.149-17.992 55.562-29.49 77.45-49.542.915-.16 1.709-.722 1.707-1.73 0-.178 0-.353.002-.53l-.002-.01c-.002-.173-.002-.345-.002-.515-.003-1.052-1.015-1.82-2.23-1.864-30.567-1.112-59.916 10.13-84.733 24.123-21.386 12.06-38.514 27.46-51.643 45.505 5.103-23.105 18.892-42.398 37.898-60.634 20.964-20.116 46.126-37.413 72.816-51.938 26.917-14.652 55.414-27.196 81.087-43.425 11.653-7.369 22.812-15.491 31.526-25.34 9.65-10.91 15.968-23.602 25.451-34.624.446-.52.435-1.031.166-1.44.461-.784-.767-1.813-1.812-1.32-20.787 9.785-40.737 20.41-62.092 29.419-21.104 8.901-42.593 17.147-63.7 26.041-37.328 15.73-70.443 34.574-100.276 58.519 8.13-9.15 16.677-17.616 27.484-25.32 15.009-10.686 31.901-19.4 48.358-28.41 32.876-17.999 61.968-37.803 82.27-66.464 1.128-1.594-1.356-3.022-2.83-2.08a1.918 1.918 0 00-.901.124c-35.18 14.348-71.548 26.545-106.614 41.067-17.249 7.144-35.75 15.208-51.558 25.586 7.89-15.011 37.183-23.934 49.344-40.665 3.958-5.442 3.715-11.335-4.399-13.268-13.091-3.117-24.243 3.42-34.696 9.695 11.253-11.039 25.592-21.858 26.342-36.476.795-15.539-23.639-15.863-40.187-14.913 22.895-4.108 55.05-7.953 61.27-28.294 2.829-9.25-5.41-18.253-13.896-23.178-5.055-2.935-10.743-4.858-16.644-6.405 10.26 1.058 20.574 1.977 30.555 4.232 18.535 4.187 36.477 12.007 48.795 24.551 1.232 1.253 3.135-.15 2.9-1.407-2.537-13.442-9.523-25.481-21.847-34.528-13.448-9.872-30.258-16.215-46.39-22.36-15.814-6.026-31.47-12.134-46.044-20.108-9.304-5.09-16.849-11.103-23.596-17.799 20.842 14.199 49.158 21.713 72.972 30.273 37.5 13.48 75.912 26.749 100.332 55.295.416.484 1.285.448 1.69.086 1.227-.039 2.359-.825 1.775-2.02-9.006-18.372-17.12-35.56-35.302-49.079-18.341-13.641-41.547-22.117-63.78-30.295-23.023-8.469-46.115-16.141-63.445-31.989-8.37-7.655-14.54-16.897-19.269-26.426-3.369-6.8-5.08-14.012-7.48-21.027 10.61 8.6 21.82 16.672 35.414 21.839 7.185 2.73 19.454 6.14 25.547-.094 4.97-5.082 1.02-13.357-1.8-18.4-2.752-4.92-6.607-9.6-10.984-14.064 8.276 4.877 16.826 9.417 24.929 13.852 8.798 4.816 26.995 14.512 37.13 6.606 9.728-7.59 2.93-18.757-2.838-26.598-7.09-9.643-16.126-18.11-25.052-26.64 3.44 1.497 7.026 2.299 10.61 1.846 8.035-1.012 6.79-8.17 3.717-14.678 5.555 5.844 11.768 11.398 18.657 15.67 6.892 4.269 16.537 9.678 25.23 5.759 6.578-2.968 5.124-11.29 3.591-16.084-2.294-7.156-7.568-13.576-12.757-19.952 2.799 2.658 5.782 5.173 8.974 7.475 4.131 2.978 12.868 7.806 18.3 3.936 4.184-2.98.72-8.352-1.38-11.465-1.427-2.118-3.36-4.895-5.593-7.437 16.882 6.058 29.575 15.125 40.157 28.585 11.613 14.771 17.56 31.837 24.705 48.298 13.376 30.818 33.414 65.125 71.827 78.348a1.849 1.849 0 001.637.561c2.273.675 3.233-2.35 1.01-3.124-16.557-25.812-34.32-50.83-44.407-79.11-5.023-14.09-6.51-28.421-7.945-42.995-.84-8.531-2.052-17.15-5.204-25.27 9.25 11.24 11.47 26 13.752 39.274 2.855 16.6 6.46 31.434 16.58 46.164 10.751 15.652 26.668 28.489 43.849 39.204 9.284 5.792 19.288 10.666 29.46 15.272 10.208 4.623 19.76 9.722 31.313 11.625 1.497.248 3.287-1.12 2.196-2.381-11.092-12.816-25.101-23.462-38.021-34.94-14.458-12.847-24.284-27.956-31.746-44.345-10.072-22.124-12.745-48.717-26.74-69.76 2.29 2.226 4.445 4.422 6.44 6.17 9.084 7.96 18.331 16.151 28.78 22.88 4.027 2.591 12.799 8.623 18.174 4.874 2.439-1.703 2.86-4.396 3.028-6.895.278-4.22-.596-8.416-1.922-12.559 8.733 11.314 21.02 21.816 36.57 18.765 14.926-2.93 12.205-21.45 7.648-35.939 10.528 15.077 24.117 28.997 39.786 40.113 20.005 14.19 52.09 27.991 79.014 24.818 2.083-.246 1.784-2.362.283-3.08-1.96-3.954-5.782-7.145-9.088-10.363-5.684-5.53-11.443-10.996-16.94-16.662-5.178-5.343-9.916-10.965-13.814-17.025-3.96-6.153-4.618-12.141-4.517-18.453 13.645 32.404 66.897 44.5 92.605 68.389 1.192 1.108 2.772.534 3.383-.487.687-.119 1.244-.546 1.17-1.336-1.182-12.266-5.654-24.017-8.687-36.011-1.74-6.883-2.572-13.794-1.994-20.812.542-6.576 3.696-11.994 7.537-17.362 2.556 12.098 15.927 24.795 30.473 24.804 12.511.007 22.733-8.764 29.763-18.186-1.538 5.913-2.385 11.941-.914 17.69 1.632 6.379 5.726 15 14.89 15.705 16.488 1.27 30.534-13.361 39.454-26.022-.111 4.744 2.09 9.122 8.336 10.904 8.712 2.487 20.867-2.07 28.157-7.532-2.481 13.517-8.372 26.667-7.767 40.441.08 1.832 2.616 2.16 3.811.864 17.15-18.534 43.423-31.415 57.946-51.518-4.821 14.22-16.9 25.776-24.773 39.225-.666 1.141.13 2.572 1.768 2.572 4.044.002 8.498-5.214 11.39-7.265 7.386-5.241 15.3-9.73 23.822-13.569 9.454-4.26 19.162-8.47 26.222-14.915-1.629 6.875-2.777 13.821-3.327 20.83-.1 1.257 1.792 2.12 3.031 1.452 21.976-11.826 45.417-23.637 63.262-39.885 4.052 4.82 9.458 9.044 14.487 12.944 6.252 4.848 13.6 10.004 22.033 11.806 16.635 3.552 15.293-15.912 12.353-29.315 11.047 12.736 28.627 24.397 45.677 27.156 18.001 2.914 29.526-7.66 37.136-19.974-1.71 13.348.482 28.195 15.672 27.4 9.859-.518 18.86-8.971 25.02-14.532a130.088 130.088 0 0014.342-15.236c-3.257 9.456-4.353 19.283 5.497 22.8 7.608 2.715 16.588-1.927 23.898-7.886-14.322 26.347-7.794 64.82 2.388 91.735.547 1.457 3.118 1.51 3.567 0 7.391-24.833 11.8-48.84 22.071-68.43 5.014-9.565 11.891-18.306 20.67-25.748 5.987-5.077 13.382-8.193 20.726-11.405-9.998 9.524-17.935 21.213-23.26 32.357-9.577 20.06-7.6 41.257-7.225 62.355.002.25.077.461.17.656-.09.147-.193.287-.283.433-.607 1.014.828 1.917 1.84 1.187.263-.187.517-.383.774-.572.812-.09 1.518-.516 1.724-1.279 8.391-6.284 16.18-13.259 24.57-19.561 10.476-7.874 19.7-16.528 28.567-25.66 16.698-17.202 32.393-34.39 54.182-46.948 1.46 15.17-25.953 32.871-48.435 59.553-29.583 35.108-46.2 54.158-76.127 75.12-1.763 1.233.592 3.88 2.5 2.702.114-.069.215-.147.327-.216 12.255 1.22 25.673-2.209 37.066-5.342 14.383-3.957 28.036-9.751 41.162-15.994 22.685-10.783 56.992-34.996 76.03-50.474-2.767 5.985-2.906 11.706 5.722 12.136 5.784.29 12.06-2.302 17.478-5.003-4.343 4.075-8.461 8.298-12.07 12.806-4.223 5.28-10.613 14.616-5.196 20.76 3.98 4.52 12.674 3.29 18.22 2.297 4.16-.743 8.26-1.929 12.277-3.383-6.626 5.108-11.912 10.892-12.324 17.438-.636 9.956 9.73 7.7 18.982 3.623-32.713 32.389-34.094 81.059-68.144 112.944-1.078 1.01-.496 3.223 1.494 3.011 24.85-2.627 40.418-19.484 52.151-36.482 6.877-9.962 12.536-20.484 18.539-30.818 3.52-6.065 7.643-11.605 11.97-17.028-11.395 22.465-20.943 45.996-39.335 65.056-19.806 20.524-50.823 30.407-70.263 51.023-1.232 1.304-.166 4.02 2.235 3.209 17.202-5.81 35.626-8.274 53.01-13.626 16.429-5.058 30.506-14.084 41.897-25.066 10.105-9.74 17.572-21.414 23.43-33.272 6.769-13.719 10.735-28.583 18.586-41.916-.54 10.573-5.567 20.28-9.086 30.49-1.444 4.194-4.355 13.007-.047 16.863 3.407 3.053 7.856 2.185 12.237-.263-.152.296-.338.582-.474.879-2.352 4.99-3.397 10.265 1.959 14.09 2.81 2.007 6.858 2.405 11.342 1.867-9.387 4.842-18.368 10.352-26.953 15.777-13.898 8.78-29.36 18.82-38.566 31.387-.91 1.246.285 2.743 1.923 2.796zM-3 834h1565V-5H-3v839z" fill-rule="evenodd"/></svg>