<svg width="80" height="7" xmlns="http://www.w3.org/2000/svg"><path d="M.122 3.04c.818.07 1.507.97 2.35 1.041.821.068 1.756-.456 2.6-.386.82.065 1.723-.284 2.567-.216.822.061 1.67.02 2.512.081.824.062 1.495 1.219 2.338 1.278.824.06 1.833-1.078 2.675-1.022.824.054 1.493 1.363 2.334 1.416.827.05 1.752-.58 2.594-.529.828.048 1.763-.808 2.605-.766.83.045 1.586.808 2.428.848.83.04 1.604.788 2.449.822.829.034 1.744-.859 2.586-.83.833.03 1.661.162 2.503.188.833.025 1.62 1.08 2.462 1.1.834.02 1.743-1.669 2.587-1.655.833.012 1.663-.115 2.507-.107.833.009 1.657.262 2.5.262.835.003 1.677 1.478 2.519 1.475.834-.003 1.662-.951 2.503-.96.834-.011 1.687.37 2.528.352.835-.017 1.602-1.354 2.442-1.376.835-.023 1.66 0 2.5-.031.834-.028 1.84 1.99 2.681 1.954.833-.037 1.65-.429 2.49-.474.834-.042 1.603-.715 2.441-.765.834-.051 1.712.18 2.55.124.831-.06 1.555-.837 2.39-.904.83-.065 1.639.349 2.474.276.83-.073 1.954.763 2.788.681.827-.082 1.614-.453 2.446-.543.828-.088 1.453-1.084 2.283-1.18.824-.096 1.54.313 2.368.205-.796-.073-1.307-1.635-2.171-1.708-.805-.065-1.698.155-2.555.09-.81-.06-1.783.788-2.638.729-.813-.056-1.702.307-2.553.25-.817-.05-1.034-.98-1.885-1.027-.819-.048-2.265.816-3.114.771-.822-.045-1.68.17-2.526.127-.825-.04-1.587-.81-2.43-.847-.828-.04-1.681.118-2.525.084-.83-.033-1.576-1.202-2.418-1.233-.831-.03-1.737.862-2.578.833-.833-.028-1.652-.332-2.494-.357-.833-.023-1.638-.72-2.478-.74-.836-.023-1.75 1.627-2.59 1.61C44.33 1.964 43.553.334 42.714.32 41.878.309 41 1.657 40.162 1.649c-.837-.009-1.66-.803-2.498-.809-.838-.005-1.677-.77-2.514-.77-.84-.004-1.69-.006-2.524-.004-.84 0-1.68.676-2.514.685-.842.008-1.697-.355-2.53-.344-.845.011-1.704-.225-2.535-.208-.845.02-1.641 1.016-2.473 1.041-.846.023-1.671.198-2.503.225-.846.032-1.698-.137-2.524-.1-.848.036-1.76-.598-2.584-.553-.847.046-1.547 1.234-2.37 1.287-.849.053-1.794-.659-2.61-.594-.852.065-1.82-.52-2.634-.448-.85.08-1.619.606-2.425.693-.85.096-1.498.943-2.295 1.047-.851.113-1.723.116-2.507.242" fill="#DDA71E" fill-rule="evenodd"/></svg>