<svg width="40" height="60" xmlns="http://www.w3.org/2000/svg" xmlns:xlink="http://www.w3.org/1999/xlink"><defs><path id="a" d="M0 .847h6.688v3.93H0z"/></defs><g fill="none" fill-rule="evenodd"><path d="M35.14 42.88l.516.734c.633.901.367 2.127-.591 2.724l-3.53 2.193c-1.388.863-3.273.5-4.19-.805-.634-.9-.37-2.125.59-2.723l4.31-2.678c.958-.597 2.261-.347 2.895.555" fill="#091216"/><path d="M37.37 47.115l.415.8c.511.987.08 2.191-.958 2.675l-7.054 3.297c-1.503.704 1.313-2.064.573-3.49l-1.025.713c-.51-.984-.474-2.239.564-2.726l4.667-2.18c1.038-.485 2.306-.075 2.818.91m-6.683-7.611l.661.586c.815.718.874 1.95.13 2.737l-3.335 3.543a2.056 2.056 0 01-2.83.127l-.663-.586a1.902 1.902 0 01-.13-2.739l3.337-3.541c.742-.788 2.015-.845 2.83-.127" fill="#091216"/><path d="M27.687 36.504l.663.585a1.9 1.9 0 01.129 2.738l-3.336 3.543a2.056 2.056 0 01-2.83.125l-.663-.584a1.903 1.903 0 01-.13-2.74l3.337-3.54c.742-.79 2.015-.845 2.83-.127" fill="#091216"/><path d="M26.133 33.831l.518.697c.638.858.376 2.025-.58 2.597l-4.304 2.563c-.958.57-2.262.337-2.899-.52l-.52-.697c-.636-.857-.376-2.025.582-2.594l4.304-2.565c.956-.57 2.26-.336 2.899.52" fill="#091216"/><path d="M25.998 33.243l-.036.877c-.046 1.078-.986 1.922-2.086 1.878l-4.954-.2c-1.102-.044-1.965-.963-1.92-2.04l.036-.878c.045-1.078.984-1.922 2.086-1.878l4.954.2c1.102.044 1.965.963 1.92 2.04" fill="#091216"/><path d="M26.499 33.681l-.583.665a1.899 1.899 0 01-2.738.135l-3.546-3.332a2.057 2.057 0 01-.13-2.83l.583-.665a1.899 1.899 0 012.738-.136l3.544 3.332c.79.742.848 2.016.132 2.831" fill="#091216"/><path d="M31.817 30.971l-2.478 1.6c-1.216.786-2.873.461-3.68-.721l-2.218-3.243a2.543 2.543 0 01.743-3.578l2.476-1.6c1.216-.786 2.873-.461 3.68.72l2.219 3.244c.808 1.182.474 2.791-.742 3.578" fill="#091216"/><path d="M36.394 25.836l-1.864 2.24a2.567 2.567 0 01-3.637.31l-2.978-2.54a2.644 2.644 0 01-.31-3.684l1.865-2.236a2.569 2.569 0 013.639-.314l2.976 2.543a2.64 2.64 0 01.31 3.681" fill="#091216"/><path d="M37.417 16.13l.536 2.912c.263 1.428-.595 2.833-1.907 3.12l-3.6.786c-1.312.287-2.6-.649-2.863-2.077l-.536-2.912c-.262-1.431.596-2.833 1.908-3.122l3.598-.786c1.312-.285 2.6.651 2.864 2.08" fill="#091216"/><path d="M32.705 8.555l2.303 1.795a2.557 2.557 0 01.428 3.623l-2.456 3.052c-.896 1.113-2.554 1.301-3.685.42l-2.303-1.794a2.559 2.559 0 01-.428-3.625l2.456-3.05c.896-1.113 2.554-1.303 3.685-.421" fill="#091216"/><path d="M22.7 9.116l2.68-.97c1.318-.477 2.769.255 3.225 1.625l1.255 3.758c.458 1.368-.245 2.879-1.56 3.355l-2.68.97c-1.316.477-2.767-.255-3.225-1.625l-1.255-3.758c-.458-1.368.245-2.879 1.56-3.355" fill="#091216"/><path d="M17.241 11.94l2.526-1.544c1.24-.757 2.895-.396 3.677.806l2.146 3.295c.784 1.2.409 2.804-.831 3.562l-2.525 1.544c-1.24.76-2.894.396-3.678-.805l-2.146-3.295c-.784-1.202-.409-2.805.831-3.562" fill="#091216"/><path d="M14.09 13.394l2.68-.371c1.316-.184 2.54.768 2.718 2.114l.49 3.69c.178 1.346-.752 2.596-2.069 2.779l-2.68.371c-1.316.183-2.539-.767-2.718-2.114l-.489-3.69c-.179-1.346.752-2.596 2.068-2.779" fill="#091216"/><path d="M13.904 11.632l2.204 1.901a2.574 2.574 0 01.253 3.645l-2.584 2.939a2.636 2.636 0 01-3.681.251l-2.204-1.901a2.574 2.574 0 01-.253-3.645l2.584-2.938a2.634 2.634 0 013.681-.252" fill="#091216"/><path d="M10.069 6.009c1.235.1 1.899.503 2.533 2.081l1.391 4.663c.107 1.587-1.072 2.976-2.618 3.084l-2.229.156c-1.546.11-2.898-1.1-3.005-2.687l-.129-1.932c-.19-2.846 1.841-5.549 4.057-5.365m8.492 29.803l.31.71c.34.777-.016 1.788-.793 2.244l-3.301.79c-.777.455-1.12.636-1.38.177l-.31-.707c-.278-.487.129-.606.976-1.102l2.465-2.702c.778-.454 1.693-.19 2.033.59" fill="#091216"/><g transform="translate(1 13)"><mask id="b" fill="#fff"><use xlink:href="#a"/></mask><path d="M6.537 2.118l.13.78c.143.858-.495 1.703-1.419 1.88l-3.616-.34C.708 4.615.307 4.674.16 4.15l-.13-.78c-.157-.556.296-.534 1.302-.726L4.598.88c.924-.175 1.797.381 1.94 1.24" fill="#091216" mask="url(#b)"/></g><path d="M21.974 41.365l.576.518c.631.571.594 1.616-.084 2.326l-3.272 1.978c-.678.708-.984 1-1.42.69l-.575-.52c-.463-.332-.068-.593.672-1.365l1.721-3.379c.68-.707 1.75-.82 2.382-.248m10.001 9.999l.575.52c.631.571.594 1.616-.085 2.324l-3.271 1.98c-.678.707-.984 1-1.42.688l-.575-.518c-.463-.332-.068-.594.672-1.365l1.721-3.38c.68-.706 1.75-.82 2.383-.249m-18-30.999l.575.518c.632.571.593 1.617-.084 2.325l-3.272 1.98c-.679.707-.983 1-1.42.688l-.574-.518c-.465-.333-.068-.594.67-1.366l1.723-3.378c.679-.708 1.75-.82 2.382-.25" fill="#091216"/><path d="M10.121 4.414a2.502 2.502 0 013.464.707 2.499 2.499 0 11-3.464-.707" fill="#000"/></g></svg>